<mxfile host="app.diagrams.net" modified="2021-02-18T19:16:17.608Z" agent="5.0 (Windows NT 10.0; Win64; x64) AppleWebKit/537.36 (KHTML, like Gecko) Chrome/88.0.4324.150 Safari/537.36" etag="gXrC2N4wPwkOHbhJNmyM" version="14.4.1" type="github" pages="12">
  <diagram id="kgpKYQtTHZ0yAKxKKP6v" name="Sequence diagram Izbornik">
    <mxGraphModel dx="1952" dy="614" grid="1" gridSize="10" guides="1" tooltips="1" connect="1" arrows="1" fold="1" page="1" pageScale="1" pageWidth="850" pageHeight="1100" math="0" shadow="0">
      <root>
        <mxCell id="0" />
        <mxCell id="1" parent="0" />
        <mxCell id="ooydl_P31hYm9O-PlnHO-94" value="&lt;p style=&quot;margin: 4px 0px 0px 5px&quot;&gt;&lt;b&gt;alt&amp;nbsp;&lt;/b&gt;&lt;/p&gt;&lt;p style=&quot;margin: 4px 0px 0px 5px&quot;&gt;&lt;b&gt;&lt;br&gt;&lt;/b&gt;&lt;/p&gt;&lt;p style=&quot;margin: 4px 0px 0px 5px&quot;&gt;&lt;b&gt;odabir igraca==1&lt;/b&gt;&lt;/p&gt;&lt;div&gt;&lt;p style=&quot;margin: 4px 0px 0px 5px&quot;&gt;&lt;br&gt;&lt;/p&gt;&lt;p style=&quot;margin: 4px 0px 0px 5px&quot;&gt;&lt;b&gt;&lt;br&gt;&lt;/b&gt;&lt;/p&gt;&lt;p style=&quot;margin: 4px 0px 0px 5px&quot;&gt;&lt;b&gt;odabir igraca==&lt;/b&gt;&lt;b&gt;2&lt;/b&gt;&lt;/p&gt;&lt;/div&gt;&lt;div&gt;&lt;p style=&quot;margin: 4px 0px 0px 5px&quot;&gt;&lt;b&gt;&lt;br&gt;&lt;/b&gt;&lt;/p&gt;&lt;p style=&quot;margin: 4px 0px 0px 5px&quot;&gt;&lt;b&gt;odabir igraca==3&lt;/b&gt;&lt;/p&gt;&lt;/div&gt;&lt;div&gt;&lt;p style=&quot;margin: 4px 0px 0px 5px&quot;&gt;&lt;b&gt;&lt;br&gt;&lt;/b&gt;&lt;/p&gt;&lt;p style=&quot;margin: 4px 0px 0px 5px&quot;&gt;&lt;b&gt;odabir igraca==e&lt;/b&gt;&lt;br&gt;&lt;/p&gt;&lt;p style=&quot;margin: 4px 0px 0px 5px&quot;&gt;&lt;b&gt;&lt;br&gt;&lt;/b&gt;&lt;/p&gt;&lt;p style=&quot;margin: 4px 0px 0px 5px&quot;&gt;&lt;b&gt;else&lt;/b&gt;&lt;/p&gt;&lt;/div&gt;&lt;div&gt;&lt;b&gt;&lt;br&gt;&lt;/b&gt;&lt;/div&gt;" style="html=1;shape=mxgraph.sysml.package;overflow=fill;labelX=95;align=left;spacingLeft=5;verticalAlign=top;spacingTop=-3;" parent="1" vertex="1">
          <mxGeometry x="250" y="730" width="1100" height="240" as="geometry" />
        </mxCell>
        <mxCell id="ooydl_P31hYm9O-PlnHO-49" value="&lt;p style=&quot;margin: 4px 0px 0px 5px&quot;&gt;&lt;b&gt;alt&amp;nbsp;&lt;/b&gt;&lt;/p&gt;&lt;p style=&quot;margin: 4px 0px 0px 5px&quot;&gt;&lt;b&gt;&lt;br&gt;&lt;/b&gt;&lt;/p&gt;&lt;p style=&quot;margin: 4px 0px 0px 5px&quot;&gt;&lt;b&gt;odabir izbornik==1&lt;/b&gt;&lt;/p&gt;&lt;div&gt;&lt;p style=&quot;margin: 4px 0px 0px 5px&quot;&gt;&lt;br&gt;&lt;/p&gt;&lt;p style=&quot;margin: 4px 0px 0px 5px&quot;&gt;&lt;b&gt;&lt;br&gt;&lt;/b&gt;&lt;/p&gt;&lt;p style=&quot;margin: 4px 0px 0px 5px&quot;&gt;&lt;b&gt;odabir izbornik==&lt;/b&gt;&lt;b&gt;2&lt;/b&gt;&lt;/p&gt;&lt;p style=&quot;margin: 4px 0px 0px 5px&quot;&gt;&lt;b&gt;odabir izbornik==3&lt;/b&gt;&lt;br&gt;&lt;/p&gt;&lt;/div&gt;&lt;div&gt;&lt;p style=&quot;margin: 4px 0px 0px 5px&quot;&gt;&lt;b&gt;&lt;br&gt;&lt;/b&gt;&lt;/p&gt;&lt;p style=&quot;margin: 4px 0px 0px 5px&quot;&gt;&lt;b&gt;odabir izbornik==4&lt;/b&gt;&lt;/p&gt;&lt;/div&gt;&lt;div&gt;&lt;p style=&quot;margin: 4px 0px 0px 5px&quot;&gt;&lt;b&gt;&lt;br&gt;&lt;/b&gt;&lt;/p&gt;&lt;p style=&quot;margin: 4px 0px 0px 5px&quot;&gt;&lt;b&gt;odabir izbornik==e&lt;/b&gt;&lt;br&gt;&lt;/p&gt;&lt;p style=&quot;margin: 4px 0px 0px 5px&quot;&gt;&lt;b&gt;&lt;br&gt;&lt;/b&gt;&lt;/p&gt;&lt;p style=&quot;margin: 4px 0px 0px 5px&quot;&gt;&lt;b&gt;else&lt;/b&gt;&lt;/p&gt;&lt;/div&gt;&lt;div&gt;&lt;b&gt;&lt;br&gt;&lt;/b&gt;&lt;/div&gt;" style="html=1;shape=mxgraph.sysml.package;overflow=fill;labelX=95;align=left;spacingLeft=5;verticalAlign=top;spacingTop=-3;" parent="1" vertex="1">
          <mxGeometry x="250" y="420" width="1100" height="240" as="geometry" />
        </mxCell>
        <mxCell id="ooydl_P31hYm9O-PlnHO-25" value="Main" style="shape=umlLifeline;perimeter=lifelinePerimeter;whiteSpace=wrap;html=1;container=1;collapsible=0;recursiveResize=0;outlineConnect=0;" parent="1" vertex="1">
          <mxGeometry x="150" y="30" width="100" height="970" as="geometry" />
        </mxCell>
        <mxCell id="ooydl_P31hYm9O-PlnHO-26" value="" style="html=1;points=[];perimeter=orthogonalPerimeter;" parent="ooydl_P31hYm9O-PlnHO-25" vertex="1">
          <mxGeometry x="45" y="100" width="10" height="760" as="geometry" />
        </mxCell>
        <mxCell id="ooydl_P31hYm9O-PlnHO-31" value="" style="html=1;points=[];perimeter=orthogonalPerimeter;" parent="ooydl_P31hYm9O-PlnHO-25" vertex="1">
          <mxGeometry x="45" y="210" width="10" height="60" as="geometry" />
        </mxCell>
        <mxCell id="ooydl_P31hYm9O-PlnHO-27" value="Izbornik" style="shape=umlLifeline;perimeter=lifelinePerimeter;whiteSpace=wrap;html=1;container=1;collapsible=0;recursiveResize=0;outlineConnect=0;" parent="1" vertex="1">
          <mxGeometry x="350" width="100" height="1220" as="geometry" />
        </mxCell>
        <mxCell id="ooydl_P31hYm9O-PlnHO-28" value="" style="html=1;points=[];perimeter=orthogonalPerimeter;" parent="ooydl_P31hYm9O-PlnHO-27" vertex="1">
          <mxGeometry x="45" y="80" width="10" height="560" as="geometry" />
        </mxCell>
        <mxCell id="ooydl_P31hYm9O-PlnHO-58" value="" style="html=1;points=[];perimeter=orthogonalPerimeter;" parent="ooydl_P31hYm9O-PlnHO-27" vertex="1">
          <mxGeometry x="45" y="430" width="10" height="40" as="geometry" />
        </mxCell>
        <mxCell id="ooydl_P31hYm9O-PlnHO-59" value="4:nova_igra()" style="edgeStyle=orthogonalEdgeStyle;html=1;align=left;spacingLeft=2;endArrow=block;rounded=0;entryX=1;entryY=0;" parent="ooydl_P31hYm9O-PlnHO-27" target="ooydl_P31hYm9O-PlnHO-58" edge="1">
          <mxGeometry relative="1" as="geometry">
            <mxPoint x="50" y="410" as="sourcePoint" />
            <Array as="points">
              <mxPoint x="75" y="410" />
            </Array>
          </mxGeometry>
        </mxCell>
        <mxCell id="ooydl_P31hYm9O-PlnHO-72" value="" style="html=1;points=[];perimeter=orthogonalPerimeter;" parent="ooydl_P31hYm9O-PlnHO-27" vertex="1">
          <mxGeometry x="45" y="470" width="10" height="40" as="geometry" />
        </mxCell>
        <mxCell id="ooydl_P31hYm9O-PlnHO-73" value="poredakIgraca()" style="edgeStyle=orthogonalEdgeStyle;html=1;align=left;spacingLeft=2;endArrow=block;rounded=0;entryX=1;entryY=0;" parent="ooydl_P31hYm9O-PlnHO-27" target="ooydl_P31hYm9O-PlnHO-72" edge="1">
          <mxGeometry relative="1" as="geometry">
            <mxPoint x="50" y="450" as="sourcePoint" />
            <Array as="points">
              <mxPoint x="75" y="450" />
            </Array>
          </mxGeometry>
        </mxCell>
        <mxCell id="ooydl_P31hYm9O-PlnHO-81" value="" style="html=1;points=[];perimeter=orthogonalPerimeter;" parent="ooydl_P31hYm9O-PlnHO-27" vertex="1">
          <mxGeometry x="45" y="520" width="10" height="40" as="geometry" />
        </mxCell>
        <mxCell id="ooydl_P31hYm9O-PlnHO-82" value="pravila()" style="edgeStyle=orthogonalEdgeStyle;html=1;align=left;spacingLeft=2;endArrow=block;rounded=0;entryX=1;entryY=0;" parent="ooydl_P31hYm9O-PlnHO-27" target="ooydl_P31hYm9O-PlnHO-81" edge="1">
          <mxGeometry relative="1" as="geometry">
            <mxPoint x="50" y="510" as="sourcePoint" />
            <Array as="points">
              <mxPoint x="50" y="490" />
              <mxPoint x="75" y="490" />
              <mxPoint x="75" y="520" />
            </Array>
          </mxGeometry>
        </mxCell>
        <mxCell id="ooydl_P31hYm9O-PlnHO-68" value="" style="endArrow=none;dashed=1;html=1;dashPattern=1 3;strokeWidth=2;exitX=0;exitY=0.25;exitDx=0;exitDy=0;exitPerimeter=0;entryX=1;entryY=0.25;entryDx=0;entryDy=0;entryPerimeter=0;" parent="ooydl_P31hYm9O-PlnHO-27" edge="1">
          <mxGeometry width="50" height="50" relative="1" as="geometry">
            <mxPoint x="-100" y="570" as="sourcePoint" />
            <mxPoint x="1000" y="570" as="targetPoint" />
          </mxGeometry>
        </mxCell>
        <mxCell id="ooydl_P31hYm9O-PlnHO-91" value="main_menu()" style="edgeStyle=orthogonalEdgeStyle;html=1;align=left;spacingLeft=2;endArrow=block;rounded=0;entryX=1;entryY=0;" parent="ooydl_P31hYm9O-PlnHO-27" target="ooydl_P31hYm9O-PlnHO-90" edge="1">
          <mxGeometry relative="1" as="geometry">
            <mxPoint x="50" y="580" as="sourcePoint" />
            <Array as="points">
              <mxPoint x="75" y="580" />
            </Array>
          </mxGeometry>
        </mxCell>
        <mxCell id="ooydl_P31hYm9O-PlnHO-66" value="" style="endArrow=none;dashed=1;html=1;dashPattern=1 3;strokeWidth=2;exitX=0;exitY=0.25;exitDx=0;exitDy=0;exitPerimeter=0;entryX=1;entryY=0.25;entryDx=0;entryDy=0;entryPerimeter=0;" parent="ooydl_P31hYm9O-PlnHO-27" edge="1">
          <mxGeometry width="50" height="50" relative="1" as="geometry">
            <mxPoint x="-100" y="539.5" as="sourcePoint" />
            <mxPoint x="1000" y="539.5" as="targetPoint" />
          </mxGeometry>
        </mxCell>
        <mxCell id="ooydl_P31hYm9O-PlnHO-90" value="" style="html=1;points=[];perimeter=orthogonalPerimeter;" parent="ooydl_P31hYm9O-PlnHO-27" vertex="1">
          <mxGeometry x="45" y="600" width="10" height="570" as="geometry" />
        </mxCell>
        <mxCell id="ooydl_P31hYm9O-PlnHO-106" value="" style="html=1;points=[];perimeter=orthogonalPerimeter;" parent="ooydl_P31hYm9O-PlnHO-27" vertex="1">
          <mxGeometry x="45" y="720" width="15" height="40" as="geometry" />
        </mxCell>
        <mxCell id="ooydl_P31hYm9O-PlnHO-110" value="" style="html=1;points=[];perimeter=orthogonalPerimeter;" parent="ooydl_P31hYm9O-PlnHO-27" vertex="1">
          <mxGeometry x="45" y="780" width="15" height="40" as="geometry" />
        </mxCell>
        <mxCell id="P3Dy5kL7c9ubcryvWia6-1" value="dispatch" style="html=1;verticalAlign=bottom;startArrow=oval;startFill=1;endArrow=block;startSize=8;" parent="ooydl_P31hYm9O-PlnHO-27" edge="1">
          <mxGeometry width="60" relative="1" as="geometry">
            <mxPoint x="75" y="539.5" as="sourcePoint" />
            <mxPoint x="960" y="540" as="targetPoint" />
          </mxGeometry>
        </mxCell>
        <mxCell id="ooydl_P31hYm9O-PlnHO-33" value="return" style="html=1;verticalAlign=bottom;endArrow=open;dashed=1;endSize=8;exitX=1;exitY=0.95;" parent="1" source="ooydl_P31hYm9O-PlnHO-31" target="ooydl_P31hYm9O-PlnHO-27" edge="1">
          <mxGeometry relative="1" as="geometry">
            <mxPoint x="265" y="297" as="targetPoint" />
          </mxGeometry>
        </mxCell>
        <mxCell id="ooydl_P31hYm9O-PlnHO-32" value="1.main_menu()" style="html=1;verticalAlign=bottom;endArrow=block;entryX=1;entryY=0;" parent="1" source="ooydl_P31hYm9O-PlnHO-27" target="ooydl_P31hYm9O-PlnHO-31" edge="1">
          <mxGeometry relative="1" as="geometry">
            <mxPoint x="265" y="240" as="sourcePoint" />
          </mxGeometry>
        </mxCell>
        <mxCell id="ooydl_P31hYm9O-PlnHO-35" value="Random boje" style="shape=umlLifeline;perimeter=lifelinePerimeter;whiteSpace=wrap;html=1;container=1;collapsible=0;recursiveResize=0;outlineConnect=0;" parent="1" vertex="1">
          <mxGeometry x="980" y="30" width="100" height="620" as="geometry" />
        </mxCell>
        <mxCell id="ooydl_P31hYm9O-PlnHO-36" value="" style="html=1;points=[];perimeter=orthogonalPerimeter;" parent="ooydl_P31hYm9O-PlnHO-35" vertex="1">
          <mxGeometry x="45" y="100" width="10" height="440" as="geometry" />
        </mxCell>
        <mxCell id="ooydl_P31hYm9O-PlnHO-37" value="Igra" style="shape=umlLifeline;perimeter=lifelinePerimeter;whiteSpace=wrap;html=1;container=1;collapsible=0;recursiveResize=0;outlineConnect=0;" parent="1" vertex="1">
          <mxGeometry x="1100" y="30" width="100" height="1140" as="geometry" />
        </mxCell>
        <mxCell id="ooydl_P31hYm9O-PlnHO-38" value="" style="html=1;points=[];perimeter=orthogonalPerimeter;" parent="ooydl_P31hYm9O-PlnHO-37" vertex="1">
          <mxGeometry x="45" y="100" width="10" height="990" as="geometry" />
        </mxCell>
        <mxCell id="ooydl_P31hYm9O-PlnHO-39" value="Baza igraca" style="shape=umlLifeline;perimeter=lifelinePerimeter;whiteSpace=wrap;html=1;container=1;collapsible=0;recursiveResize=0;outlineConnect=0;" parent="1" vertex="1">
          <mxGeometry x="1270" y="30" width="100" height="1190" as="geometry" />
        </mxCell>
        <mxCell id="ooydl_P31hYm9O-PlnHO-40" value="" style="html=1;points=[];perimeter=orthogonalPerimeter;" parent="ooydl_P31hYm9O-PlnHO-39" vertex="1">
          <mxGeometry x="45" y="100" width="10" height="990" as="geometry" />
        </mxCell>
        <mxCell id="ooydl_P31hYm9O-PlnHO-45" style="edgeStyle=orthogonalEdgeStyle;rounded=0;orthogonalLoop=1;jettySize=auto;html=1;" parent="1" source="ooydl_P31hYm9O-PlnHO-26" target="ooydl_P31hYm9O-PlnHO-37" edge="1">
          <mxGeometry relative="1" as="geometry">
            <mxPoint x="220" y="330.4" as="sourcePoint" />
            <mxPoint x="781.6700000000001" y="329.6" as="targetPoint" />
            <Array as="points">
              <mxPoint x="470" y="320" />
              <mxPoint x="470" y="320" />
            </Array>
          </mxGeometry>
        </mxCell>
        <mxCell id="ooydl_P31hYm9O-PlnHO-46" value="2: ocistiEkran())" style="edgeLabel;html=1;align=center;verticalAlign=middle;resizable=0;points=[];" parent="ooydl_P31hYm9O-PlnHO-45" vertex="1" connectable="0">
          <mxGeometry x="-0.2512" y="3" relative="1" as="geometry">
            <mxPoint x="-143" y="-7" as="offset" />
          </mxGeometry>
        </mxCell>
        <mxCell id="ooydl_P31hYm9O-PlnHO-47" value="Igrac" style="shape=umlLifeline;participant=umlActor;perimeter=lifelinePerimeter;whiteSpace=wrap;html=1;container=1;collapsible=0;recursiveResize=0;verticalAlign=top;spacingTop=36;outlineConnect=0;size=40;" parent="1" vertex="1">
          <mxGeometry x="-30" y="60" width="20" height="920" as="geometry" />
        </mxCell>
        <mxCell id="ooydl_P31hYm9O-PlnHO-50" value="3: odabirizbornik=input()" style="html=1;verticalAlign=bottom;startArrow=oval;startFill=1;endArrow=block;startSize=8;" parent="1" source="ooydl_P31hYm9O-PlnHO-47" target="ooydl_P31hYm9O-PlnHO-27" edge="1">
          <mxGeometry x="0.5023" width="60" relative="1" as="geometry">
            <mxPoint x="60" y="450" as="sourcePoint" />
            <mxPoint x="120" y="450" as="targetPoint" />
            <Array as="points">
              <mxPoint x="370" y="360" />
            </Array>
            <mxPoint as="offset" />
          </mxGeometry>
        </mxCell>
        <mxCell id="ooydl_P31hYm9O-PlnHO-55" value="" style="endArrow=block;endFill=1;endSize=6;html=1;" parent="1" target="ooydl_P31hYm9O-PlnHO-35" edge="1">
          <mxGeometry width="100" relative="1" as="geometry">
            <mxPoint x="400" y="370" as="sourcePoint" />
            <mxPoint x="500" y="370" as="targetPoint" />
          </mxGeometry>
        </mxCell>
        <mxCell id="ooydl_P31hYm9O-PlnHO-56" value="3.1:odabirizbornik=input(promijeniBoju())" style="edgeLabel;html=1;align=center;verticalAlign=middle;resizable=0;points=[];" parent="ooydl_P31hYm9O-PlnHO-55" vertex="1" connectable="0">
          <mxGeometry x="-0.6325" y="-1" relative="1" as="geometry">
            <mxPoint x="34" y="-11" as="offset" />
          </mxGeometry>
        </mxCell>
        <mxCell id="ooydl_P31hYm9O-PlnHO-64" value="" style="endArrow=none;dashed=1;html=1;dashPattern=1 3;strokeWidth=2;exitX=0;exitY=0.25;exitDx=0;exitDy=0;exitPerimeter=0;entryX=1;entryY=0.25;entryDx=0;entryDy=0;entryPerimeter=0;" parent="1" source="ooydl_P31hYm9O-PlnHO-49" target="ooydl_P31hYm9O-PlnHO-49" edge="1">
          <mxGeometry width="50" height="50" relative="1" as="geometry">
            <mxPoint x="590" y="430" as="sourcePoint" />
            <mxPoint x="640" y="380" as="targetPoint" />
          </mxGeometry>
        </mxCell>
        <mxCell id="ooydl_P31hYm9O-PlnHO-67" value="" style="endArrow=none;dashed=1;html=1;dashPattern=1 3;strokeWidth=2;exitX=0;exitY=0.25;exitDx=0;exitDy=0;exitPerimeter=0;entryX=1;entryY=0.25;entryDx=0;entryDy=0;entryPerimeter=0;" parent="1" edge="1">
          <mxGeometry width="50" height="50" relative="1" as="geometry">
            <mxPoint x="250" y="590" as="sourcePoint" />
            <mxPoint x="1350" y="590" as="targetPoint" />
          </mxGeometry>
        </mxCell>
        <mxCell id="ooydl_P31hYm9O-PlnHO-78" value="" style="html=1;points=[];perimeter=orthogonalPerimeter;" parent="1" vertex="1">
          <mxGeometry x="395" y="560" width="10" height="40" as="geometry" />
        </mxCell>
        <mxCell id="ooydl_P31hYm9O-PlnHO-79" value="top10()" style="edgeStyle=orthogonalEdgeStyle;html=1;align=left;spacingLeft=2;endArrow=block;rounded=0;entryX=1;entryY=0;" parent="1" target="ooydl_P31hYm9O-PlnHO-78" edge="1">
          <mxGeometry relative="1" as="geometry">
            <mxPoint x="400" y="540" as="sourcePoint" />
            <Array as="points">
              <mxPoint x="425" y="540" />
            </Array>
          </mxGeometry>
        </mxCell>
        <mxCell id="ooydl_P31hYm9O-PlnHO-87" value="" style="endArrow=block;endFill=1;endSize=6;html=1;exitX=0.6;exitY=1;exitDx=0;exitDy=0;exitPerimeter=0;" parent="1" source="ooydl_P31hYm9O-PlnHO-81" target="ooydl_P31hYm9O-PlnHO-37" edge="1">
          <mxGeometry width="100" relative="1" as="geometry">
            <mxPoint x="400" y="630" as="sourcePoint" />
            <mxPoint x="1120" y="630" as="targetPoint" />
            <Array as="points" />
          </mxGeometry>
        </mxCell>
        <mxCell id="ooydl_P31hYm9O-PlnHO-89" value="ocistiEkran()" style="edgeLabel;html=1;align=center;verticalAlign=middle;resizable=0;points=[];" parent="ooydl_P31hYm9O-PlnHO-87" vertex="1" connectable="0">
          <mxGeometry x="-0.6767" y="1" relative="1" as="geometry">
            <mxPoint x="108" y="-9" as="offset" />
          </mxGeometry>
        </mxCell>
        <mxCell id="ooydl_P31hYm9O-PlnHO-65" value="" style="endArrow=none;dashed=1;html=1;dashPattern=1 3;strokeWidth=2;exitX=0;exitY=0.25;exitDx=0;exitDy=0;exitPerimeter=0;entryX=1;entryY=0.25;entryDx=0;entryDy=0;entryPerimeter=0;" parent="1" edge="1">
          <mxGeometry width="50" height="50" relative="1" as="geometry">
            <mxPoint x="250" y="530" as="sourcePoint" />
            <mxPoint x="1350" y="530" as="targetPoint" />
          </mxGeometry>
        </mxCell>
        <mxCell id="ooydl_P31hYm9O-PlnHO-95" value="ocistiEkran()" style="html=1;verticalAlign=bottom;endArrow=block;" parent="1" target="ooydl_P31hYm9O-PlnHO-37" edge="1">
          <mxGeometry width="80" relative="1" as="geometry">
            <mxPoint x="395" y="700" as="sourcePoint" />
            <mxPoint x="475" y="700" as="targetPoint" />
          </mxGeometry>
        </mxCell>
        <mxCell id="ooydl_P31hYm9O-PlnHO-97" value="5: odabirigraca=input()" style="html=1;verticalAlign=bottom;startArrow=oval;startFill=1;endArrow=block;startSize=8;" parent="1" source="ooydl_P31hYm9O-PlnHO-47" edge="1">
          <mxGeometry x="0.5023" width="60" relative="1" as="geometry">
            <mxPoint x="-15" y="710" as="sourcePoint" />
            <mxPoint x="400" y="710" as="targetPoint" />
            <Array as="points">
              <mxPoint x="190" y="710" />
              <mxPoint x="375.5" y="710" />
            </Array>
            <mxPoint as="offset" />
          </mxGeometry>
        </mxCell>
        <mxCell id="ooydl_P31hYm9O-PlnHO-98" value="" style="endArrow=block;endFill=1;endSize=6;html=1;" parent="1" target="ooydl_P31hYm9O-PlnHO-37" edge="1">
          <mxGeometry width="100" relative="1" as="geometry">
            <mxPoint x="395" y="720" as="sourcePoint" />
            <mxPoint x="1024.5" y="720" as="targetPoint" />
            <Array as="points">
              <mxPoint x="890" y="720" />
              <mxPoint x="1080" y="720" />
            </Array>
          </mxGeometry>
        </mxCell>
        <mxCell id="ooydl_P31hYm9O-PlnHO-99" value="5.1:odabirigraca=input(promijeniBoju())" style="edgeLabel;html=1;align=center;verticalAlign=middle;resizable=0;points=[];" parent="ooydl_P31hYm9O-PlnHO-98" vertex="1" connectable="0">
          <mxGeometry x="-0.6325" y="-1" relative="1" as="geometry">
            <mxPoint x="34" y="-11" as="offset" />
          </mxGeometry>
        </mxCell>
        <mxCell id="ooydl_P31hYm9O-PlnHO-100" value="" style="endArrow=none;dashed=1;html=1;dashPattern=1 3;strokeWidth=2;exitX=0;exitY=0.25;exitDx=0;exitDy=0;exitPerimeter=0;entryX=1;entryY=0.25;entryDx=0;entryDy=0;entryPerimeter=0;" parent="1" source="gu2K1WExo9VFFvE2pZzr-1" edge="1">
          <mxGeometry width="50" height="50" relative="1" as="geometry">
            <mxPoint x="250" y="790" as="sourcePoint" />
            <mxPoint x="1350" y="790" as="targetPoint" />
          </mxGeometry>
        </mxCell>
        <mxCell id="ooydl_P31hYm9O-PlnHO-101" value="" style="endArrow=none;dashed=1;html=1;dashPattern=1 3;strokeWidth=2;exitX=0;exitY=0.25;exitDx=0;exitDy=0;exitPerimeter=0;entryX=1;entryY=0.25;entryDx=0;entryDy=0;entryPerimeter=0;" parent="1" edge="1">
          <mxGeometry width="50" height="50" relative="1" as="geometry">
            <mxPoint x="250" y="840" as="sourcePoint" />
            <mxPoint x="1350" y="840" as="targetPoint" />
          </mxGeometry>
        </mxCell>
        <mxCell id="ooydl_P31hYm9O-PlnHO-102" value="" style="endArrow=none;dashed=1;html=1;dashPattern=1 3;strokeWidth=2;exitX=0;exitY=0.25;exitDx=0;exitDy=0;exitPerimeter=0;entryX=1;entryY=0.25;entryDx=0;entryDy=0;entryPerimeter=0;" parent="1" edge="1">
          <mxGeometry width="50" height="50" relative="1" as="geometry">
            <mxPoint x="250" y="880" as="sourcePoint" />
            <mxPoint x="1350" y="880" as="targetPoint" />
          </mxGeometry>
        </mxCell>
        <mxCell id="ooydl_P31hYm9O-PlnHO-103" value="" style="endArrow=none;dashed=1;html=1;dashPattern=1 3;strokeWidth=2;exitX=0;exitY=0.25;exitDx=0;exitDy=0;exitPerimeter=0;entryX=1;entryY=0.25;entryDx=0;entryDy=0;entryPerimeter=0;" parent="1" edge="1">
          <mxGeometry width="50" height="50" relative="1" as="geometry">
            <mxPoint x="250" y="920" as="sourcePoint" />
            <mxPoint x="1350" y="920" as="targetPoint" />
          </mxGeometry>
        </mxCell>
        <mxCell id="ooydl_P31hYm9O-PlnHO-108" value="korisnik_ime=stvori_korisnika()" style="html=1;verticalAlign=bottom;endArrow=block;" parent="1" source="ooydl_P31hYm9O-PlnHO-106" edge="1">
          <mxGeometry width="80" relative="1" as="geometry">
            <mxPoint x="560" y="760" as="sourcePoint" />
            <mxPoint x="1314.5" y="760" as="targetPoint" />
          </mxGeometry>
        </mxCell>
        <mxCell id="ooydl_P31hYm9O-PlnHO-109" value="korisnik_ime=ucitaj_igraca()" style="html=1;verticalAlign=bottom;endArrow=block;entryX=-0.3;entryY=0.7;entryDx=0;entryDy=0;entryPerimeter=0;" parent="1" target="ooydl_P31hYm9O-PlnHO-40" edge="1">
          <mxGeometry width="80" relative="1" as="geometry">
            <mxPoint x="403" y="822" as="sourcePoint" />
            <mxPoint x="1309.5" y="820" as="targetPoint" />
          </mxGeometry>
        </mxCell>
        <mxCell id="ooydl_P31hYm9O-PlnHO-112" value="" style="html=1;points=[];perimeter=orthogonalPerimeter;" parent="1" vertex="1">
          <mxGeometry x="395" y="840" width="15" height="40" as="geometry" />
        </mxCell>
        <mxCell id="ooydl_P31hYm9O-PlnHO-115" value="main_menu()" style="html=1;verticalAlign=bottom;endArrow=open;dashed=1;endSize=8;entryX=1;entryY=0.75;entryDx=0;entryDy=0;entryPerimeter=0;" parent="1" source="ooydl_P31hYm9O-PlnHO-112" target="ooydl_P31hYm9O-PlnHO-112" edge="1">
          <mxGeometry relative="1" as="geometry">
            <mxPoint x="570" y="830" as="sourcePoint" />
            <mxPoint x="410" y="880" as="targetPoint" />
            <Array as="points">
              <mxPoint x="500" y="860" />
            </Array>
          </mxGeometry>
        </mxCell>
        <mxCell id="ooydl_P31hYm9O-PlnHO-116" value="" style="html=1;points=[];perimeter=orthogonalPerimeter;" parent="1" vertex="1">
          <mxGeometry x="395" y="880" width="15" height="40" as="geometry" />
        </mxCell>
        <mxCell id="ooydl_P31hYm9O-PlnHO-117" value="ocistiEkran()" style="html=1;verticalAlign=bottom;endArrow=block;" parent="1" edge="1">
          <mxGeometry width="80" relative="1" as="geometry">
            <mxPoint x="395" y="899.5" as="sourcePoint" />
            <mxPoint x="1149.5" y="899.5" as="targetPoint" />
          </mxGeometry>
        </mxCell>
        <mxCell id="ooydl_P31hYm9O-PlnHO-118" value="nova_igra()" style="html=1;verticalAlign=bottom;endArrow=block;" parent="1" edge="1">
          <mxGeometry x="0.0736" width="80" relative="1" as="geometry">
            <mxPoint x="395" y="940" as="sourcePoint" />
            <mxPoint x="1149.5" y="940" as="targetPoint" />
            <mxPoint as="offset" />
          </mxGeometry>
        </mxCell>
        <mxCell id="ooydl_P31hYm9O-PlnHO-119" value="5.2:status=pocetak(korisnik_ime())" style="html=1;verticalAlign=bottom;endArrow=block;" parent="1" edge="1">
          <mxGeometry x="0.0736" width="80" relative="1" as="geometry">
            <mxPoint x="395" y="1000" as="sourcePoint" />
            <mxPoint x="1149.5" y="1000" as="targetPoint" />
            <mxPoint as="offset" />
          </mxGeometry>
        </mxCell>
        <mxCell id="ooydl_P31hYm9O-PlnHO-120" value="5.3:spremiPoredak(korisnik_ime,odigrano,pobjede,porazi)" style="html=1;verticalAlign=bottom;endArrow=block;" parent="1" target="ooydl_P31hYm9O-PlnHO-39" edge="1">
          <mxGeometry x="0.0736" width="80" relative="1" as="geometry">
            <mxPoint x="395" y="1040" as="sourcePoint" />
            <mxPoint x="1149.5" y="1040" as="targetPoint" />
            <mxPoint as="offset" />
          </mxGeometry>
        </mxCell>
        <mxCell id="ooydl_P31hYm9O-PlnHO-121" value="6: nova_igra()" style="html=1;verticalAlign=bottom;endArrow=block;entryX=-0.1;entryY=0.959;entryDx=0;entryDy=0;entryPerimeter=0;" parent="1" target="ooydl_P31hYm9O-PlnHO-38" edge="1">
          <mxGeometry x="0.0736" width="80" relative="1" as="geometry">
            <mxPoint x="395" y="1080" as="sourcePoint" />
            <mxPoint x="1319.5" y="1080" as="targetPoint" />
            <mxPoint as="offset" />
          </mxGeometry>
        </mxCell>
        <mxCell id="gu2K1WExo9VFFvE2pZzr-2" value="" style="endArrow=none;dashed=1;html=1;dashPattern=1 3;strokeWidth=2;exitX=0;exitY=0.25;exitDx=0;exitDy=0;exitPerimeter=0;entryX=1;entryY=0.25;entryDx=0;entryDy=0;entryPerimeter=0;" parent="1" target="gu2K1WExo9VFFvE2pZzr-1" edge="1">
          <mxGeometry width="50" height="50" relative="1" as="geometry">
            <mxPoint x="250" y="790" as="sourcePoint" />
            <mxPoint x="1350" y="790" as="targetPoint" />
          </mxGeometry>
        </mxCell>
        <mxCell id="gu2K1WExo9VFFvE2pZzr-1" value="5.1.1&lt;br&gt;Opisati sto se događa u BazaIgraca" style="shape=note;whiteSpace=wrap;html=1;backgroundOutline=1;darkOpacity=0.05;" parent="1" vertex="1">
          <mxGeometry x="1330" y="760" width="150" height="60" as="geometry" />
        </mxCell>
        <mxCell id="8tkOPLtHPXJq-QNxk3bz-1" value="dispatch" style="html=1;verticalAlign=bottom;startArrow=oval;startFill=1;endArrow=block;startSize=8;" parent="1" target="ooydl_P31hYm9O-PlnHO-40" edge="1">
          <mxGeometry width="60" relative="1" as="geometry">
            <mxPoint x="510" y="460" as="sourcePoint" />
            <mxPoint x="870" y="310" as="targetPoint" />
          </mxGeometry>
        </mxCell>
      </root>
    </mxGraphModel>
  </diagram>
  <diagram id="YIsKGqF5batVF92WuqMS" name="Sequence Diagram-global">
    <mxGraphModel dx="1929" dy="614" grid="1" gridSize="10" guides="1" tooltips="1" connect="1" arrows="1" fold="1" page="1" pageScale="1" pageWidth="827" pageHeight="1169" math="0" shadow="0">
      <root>
        <mxCell id="ymAo9bn9p6aspxYoXaig-0" />
        <mxCell id="ymAo9bn9p6aspxYoXaig-1" parent="ymAo9bn9p6aspxYoXaig-0" />
        <mxCell id="-A2q9oYKEkv85AC4nF9k-0" value="Main" style="shape=umlLifeline;perimeter=lifelinePerimeter;whiteSpace=wrap;html=1;container=1;collapsible=0;recursiveResize=0;outlineConnect=0;" vertex="1" parent="ymAo9bn9p6aspxYoXaig-1">
          <mxGeometry x="-140" y="30" width="100" height="970" as="geometry" />
        </mxCell>
        <mxCell id="-A2q9oYKEkv85AC4nF9k-1" value="" style="html=1;points=[];perimeter=orthogonalPerimeter;" vertex="1" parent="-A2q9oYKEkv85AC4nF9k-0">
          <mxGeometry x="45" y="100" width="10" height="760" as="geometry" />
        </mxCell>
        <mxCell id="-A2q9oYKEkv85AC4nF9k-14" value="" style="html=1;points=[];perimeter=orthogonalPerimeter;" vertex="1" parent="-A2q9oYKEkv85AC4nF9k-0">
          <mxGeometry x="45" y="150" width="10" height="60" as="geometry" />
        </mxCell>
        <mxCell id="-A2q9oYKEkv85AC4nF9k-3" value="BazaIgraca" style="shape=umlLifeline;perimeter=lifelinePerimeter;whiteSpace=wrap;html=1;container=1;collapsible=0;recursiveResize=0;outlineConnect=0;" vertex="1" parent="ymAo9bn9p6aspxYoXaig-1">
          <mxGeometry x="500" y="30" width="100" height="970" as="geometry" />
        </mxCell>
        <mxCell id="-A2q9oYKEkv85AC4nF9k-4" value="" style="html=1;points=[];perimeter=orthogonalPerimeter;" vertex="1" parent="-A2q9oYKEkv85AC4nF9k-3">
          <mxGeometry x="45" y="100" width="10" height="760" as="geometry" />
        </mxCell>
        <mxCell id="-A2q9oYKEkv85AC4nF9k-5" value="Robot" style="shape=umlLifeline;perimeter=lifelinePerimeter;whiteSpace=wrap;html=1;container=1;collapsible=0;recursiveResize=0;outlineConnect=0;" vertex="1" parent="ymAo9bn9p6aspxYoXaig-1">
          <mxGeometry x="800" y="30" width="100" height="970" as="geometry" />
        </mxCell>
        <mxCell id="-A2q9oYKEkv85AC4nF9k-6" value="" style="html=1;points=[];perimeter=orthogonalPerimeter;" vertex="1" parent="-A2q9oYKEkv85AC4nF9k-5">
          <mxGeometry x="45" y="100" width="10" height="760" as="geometry" />
        </mxCell>
        <mxCell id="-A2q9oYKEkv85AC4nF9k-7" value="Izbornik" style="shape=umlLifeline;perimeter=lifelinePerimeter;whiteSpace=wrap;html=1;container=1;collapsible=0;recursiveResize=0;outlineConnect=0;" vertex="1" parent="ymAo9bn9p6aspxYoXaig-1">
          <mxGeometry x="20" y="30" width="100" height="970" as="geometry" />
        </mxCell>
        <mxCell id="-A2q9oYKEkv85AC4nF9k-8" value="" style="html=1;points=[];perimeter=orthogonalPerimeter;" vertex="1" parent="-A2q9oYKEkv85AC4nF9k-7">
          <mxGeometry x="45" y="100" width="10" height="760" as="geometry" />
        </mxCell>
        <mxCell id="-A2q9oYKEkv85AC4nF9k-17" value="" style="html=1;points=[];perimeter=orthogonalPerimeter;" vertex="1" parent="-A2q9oYKEkv85AC4nF9k-7">
          <mxGeometry x="45" y="220" width="10" height="50" as="geometry" />
        </mxCell>
        <mxCell id="-A2q9oYKEkv85AC4nF9k-9" value="Igra" style="shape=umlLifeline;perimeter=lifelinePerimeter;whiteSpace=wrap;html=1;container=1;collapsible=0;recursiveResize=0;outlineConnect=0;" vertex="1" parent="ymAo9bn9p6aspxYoXaig-1">
          <mxGeometry x="200" y="30" width="100" height="970" as="geometry" />
        </mxCell>
        <mxCell id="-A2q9oYKEkv85AC4nF9k-10" value="" style="html=1;points=[];perimeter=orthogonalPerimeter;" vertex="1" parent="-A2q9oYKEkv85AC4nF9k-9">
          <mxGeometry x="45" y="80" width="10" height="760" as="geometry" />
        </mxCell>
        <mxCell id="60orlm4MTkVbJzYmkGsz-3" value="" style="html=1;points=[];perimeter=orthogonalPerimeter;" vertex="1" parent="-A2q9oYKEkv85AC4nF9k-9">
          <mxGeometry x="45" y="450" width="10" height="40" as="geometry" />
        </mxCell>
        <mxCell id="60orlm4MTkVbJzYmkGsz-4" value="5: igra=Igra() __init__()" style="edgeStyle=orthogonalEdgeStyle;html=1;align=left;spacingLeft=2;endArrow=block;rounded=0;entryX=1;entryY=0;" edge="1" target="60orlm4MTkVbJzYmkGsz-3" parent="-A2q9oYKEkv85AC4nF9k-9">
          <mxGeometry relative="1" as="geometry">
            <mxPoint x="50" y="430" as="sourcePoint" />
            <Array as="points">
              <mxPoint x="75" y="430" />
            </Array>
          </mxGeometry>
        </mxCell>
        <mxCell id="-A2q9oYKEkv85AC4nF9k-11" value="Karte" style="shape=umlLifeline;perimeter=lifelinePerimeter;whiteSpace=wrap;html=1;container=1;collapsible=0;recursiveResize=0;outlineConnect=0;" vertex="1" parent="ymAo9bn9p6aspxYoXaig-1">
          <mxGeometry x="364" y="30" width="100" height="970" as="geometry" />
        </mxCell>
        <mxCell id="-A2q9oYKEkv85AC4nF9k-12" value="" style="html=1;points=[];perimeter=orthogonalPerimeter;" vertex="1" parent="-A2q9oYKEkv85AC4nF9k-11">
          <mxGeometry x="45" y="100" width="10" height="760" as="geometry" />
        </mxCell>
        <mxCell id="-A2q9oYKEkv85AC4nF9k-16" value="return" style="html=1;verticalAlign=bottom;endArrow=open;dashed=1;endSize=8;exitX=1;exitY=0.95;" edge="1" source="-A2q9oYKEkv85AC4nF9k-14" parent="ymAo9bn9p6aspxYoXaig-1" target="-A2q9oYKEkv85AC4nF9k-7">
          <mxGeometry relative="1" as="geometry">
            <mxPoint x="-25" y="237" as="targetPoint" />
          </mxGeometry>
        </mxCell>
        <mxCell id="-A2q9oYKEkv85AC4nF9k-15" value="1: main_menu" style="html=1;verticalAlign=bottom;endArrow=block;entryX=1;entryY=0;exitX=0;exitY=0.066;exitDx=0;exitDy=0;exitPerimeter=0;" edge="1" target="-A2q9oYKEkv85AC4nF9k-14" parent="ymAo9bn9p6aspxYoXaig-1" source="-A2q9oYKEkv85AC4nF9k-8">
          <mxGeometry relative="1" as="geometry">
            <mxPoint x="-25" y="180" as="sourcePoint" />
          </mxGeometry>
        </mxCell>
        <mxCell id="-A2q9oYKEkv85AC4nF9k-18" value="Igrac" style="shape=umlLifeline;perimeter=lifelinePerimeter;whiteSpace=wrap;html=1;container=1;collapsible=0;recursiveResize=0;outlineConnect=0;" vertex="1" parent="ymAo9bn9p6aspxYoXaig-1">
          <mxGeometry x="660" y="30" width="100" height="970" as="geometry" />
        </mxCell>
        <mxCell id="-A2q9oYKEkv85AC4nF9k-19" value="" style="html=1;points=[];perimeter=orthogonalPerimeter;" vertex="1" parent="-A2q9oYKEkv85AC4nF9k-18">
          <mxGeometry x="45" y="100" width="10" height="760" as="geometry" />
        </mxCell>
        <mxCell id="civPRYq57fkitYoaJPfL-0" value="3:return korisnik_ime" style="html=1;verticalAlign=bottom;startArrow=circle;startFill=1;endArrow=open;startSize=6;endSize=8;exitX=0;exitY=0.329;exitDx=0;exitDy=0;exitPerimeter=0;" edge="1" parent="ymAo9bn9p6aspxYoXaig-1" source="-A2q9oYKEkv85AC4nF9k-4" target="-A2q9oYKEkv85AC4nF9k-8">
          <mxGeometry width="80" relative="1" as="geometry">
            <mxPoint x="370" y="210" as="sourcePoint" />
            <mxPoint x="450" y="210" as="targetPoint" />
          </mxGeometry>
        </mxCell>
        <mxCell id="fqbT5azM3Ihnh0tAHs_F-0" value="2: korisnik_ime=stvori:korisnika()" style="html=1;verticalAlign=bottom;endArrow=block;" edge="1" parent="ymAo9bn9p6aspxYoXaig-1" source="-A2q9oYKEkv85AC4nF9k-17" target="-A2q9oYKEkv85AC4nF9k-4">
          <mxGeometry width="80" relative="1" as="geometry">
            <mxPoint x="370" y="210" as="sourcePoint" />
            <mxPoint x="450" y="210" as="targetPoint" />
          </mxGeometry>
        </mxCell>
        <mxCell id="fqbT5azM3Ihnh0tAHs_F-2" value="status=pocetak(korisnik_ime)" style="html=1;verticalAlign=bottom;endArrow=block;" edge="1" parent="ymAo9bn9p6aspxYoXaig-1" source="-A2q9oYKEkv85AC4nF9k-8" target="-A2q9oYKEkv85AC4nF9k-10">
          <mxGeometry x="0.1176" y="10" width="80" relative="1" as="geometry">
            <mxPoint x="70" y="432" as="sourcePoint" />
            <mxPoint x="254" y="570" as="targetPoint" />
            <Array as="points">
              <mxPoint x="150" y="580" />
              <mxPoint x="190" y="580" />
            </Array>
            <mxPoint as="offset" />
          </mxGeometry>
        </mxCell>
        <mxCell id="fqbT5azM3Ihnh0tAHs_F-3" value="4:karte=generiraj_karte() init(_" style="html=1;verticalAlign=bottom;endArrow=block;" edge="1" parent="ymAo9bn9p6aspxYoXaig-1" source="-A2q9oYKEkv85AC4nF9k-8" target="-A2q9oYKEkv85AC4nF9k-11">
          <mxGeometry width="80" relative="1" as="geometry">
            <mxPoint x="370" y="320" as="sourcePoint" />
            <mxPoint x="450" y="320" as="targetPoint" />
            <Array as="points">
              <mxPoint x="250" y="440" />
            </Array>
          </mxGeometry>
        </mxCell>
        <mxCell id="FPfchZ3VoeVV9xfhfT7U-0" value="" style="endArrow=block;endFill=1;endSize=6;html=1;" edge="1" parent="ymAo9bn9p6aspxYoXaig-1">
          <mxGeometry width="100" relative="1" as="geometry">
            <mxPoint x="75" y="630" as="sourcePoint" />
            <mxPoint x="709.5" y="630" as="targetPoint" />
            <Array as="points">
              <mxPoint x="200" y="630" />
            </Array>
          </mxGeometry>
        </mxCell>
        <mxCell id="FPfchZ3VoeVV9xfhfT7U-1" value="&amp;nbsp;6: igrac=Igrac(korisnik_ime)" style="edgeLabel;html=1;align=center;verticalAlign=middle;resizable=0;points=[];" vertex="1" connectable="0" parent="FPfchZ3VoeVV9xfhfT7U-0">
          <mxGeometry x="-0.4018" y="-5" relative="1" as="geometry">
            <mxPoint x="7" y="-15" as="offset" />
          </mxGeometry>
        </mxCell>
        <mxCell id="tjRofDJLcPHcWC9SFpYq-0" value="2:robot=Robot(&quot;Robot&quot;)" style="html=1;verticalAlign=bottom;startArrow=oval;startFill=1;endArrow=block;startSize=8;exitX=1;exitY=0.477;exitDx=0;exitDy=0;exitPerimeter=0;" edge="1" parent="ymAo9bn9p6aspxYoXaig-1" target="-A2q9oYKEkv85AC4nF9k-5">
          <mxGeometry x="0.0776" width="60" relative="1" as="geometry">
            <mxPoint x="70" y="540" as="sourcePoint" />
            <mxPoint x="614.5" y="540" as="targetPoint" />
            <mxPoint as="offset" />
          </mxGeometry>
        </mxCell>
      </root>
    </mxGraphModel>
  </diagram>
  <diagram name="glavne metode u Igraj" id="6-uRCxwOsUq-6PLHHkZL">
    <mxGraphModel dx="1102" dy="614" grid="1" gridSize="10" guides="1" tooltips="1" connect="1" arrows="1" fold="1" page="1" pageScale="1" pageWidth="827" pageHeight="1169" math="0" shadow="0">
      <root>
        <mxCell id="gE69XTcPKcr9f4MS3hgD-0" />
        <mxCell id="gE69XTcPKcr9f4MS3hgD-1" parent="gE69XTcPKcr9f4MS3hgD-0" />
        <mxCell id="gE69XTcPKcr9f4MS3hgD-7" value="robot:Robot" style="shape=umlLifeline;perimeter=lifelinePerimeter;whiteSpace=wrap;html=1;container=1;collapsible=0;recursiveResize=0;outlineConnect=0;" vertex="1" parent="gE69XTcPKcr9f4MS3hgD-1">
          <mxGeometry x="740" y="30" width="100" height="970" as="geometry" />
        </mxCell>
        <mxCell id="gE69XTcPKcr9f4MS3hgD-8" value="" style="html=1;points=[];perimeter=orthogonalPerimeter;" vertex="1" parent="gE69XTcPKcr9f4MS3hgD-7">
          <mxGeometry x="45" y="100" width="10" height="760" as="geometry" />
        </mxCell>
        <mxCell id="gE69XTcPKcr9f4MS3hgD-12" value="igra:Igra" style="shape=umlLifeline;perimeter=lifelinePerimeter;whiteSpace=wrap;html=1;container=1;collapsible=0;recursiveResize=0;outlineConnect=0;" vertex="1" parent="gE69XTcPKcr9f4MS3hgD-1">
          <mxGeometry x="200" y="30" width="100" height="970" as="geometry" />
        </mxCell>
        <mxCell id="gE69XTcPKcr9f4MS3hgD-13" value="" style="html=1;points=[];perimeter=orthogonalPerimeter;" vertex="1" parent="gE69XTcPKcr9f4MS3hgD-12">
          <mxGeometry x="45" y="80" width="10" height="760" as="geometry" />
        </mxCell>
        <mxCell id="lQXERbAZPFTnenZIiHZM-0" value="" style="html=1;points=[];perimeter=orthogonalPerimeter;" vertex="1" parent="gE69XTcPKcr9f4MS3hgD-12">
          <mxGeometry x="45" y="160" width="10" height="240" as="geometry" />
        </mxCell>
        <mxCell id="lQXERbAZPFTnenZIiHZM-1" value="novaIgra()" style="edgeStyle=orthogonalEdgeStyle;html=1;align=left;spacingLeft=2;endArrow=block;rounded=0;entryX=1;entryY=0;" edge="1" target="lQXERbAZPFTnenZIiHZM-0" parent="gE69XTcPKcr9f4MS3hgD-12">
          <mxGeometry relative="1" as="geometry">
            <mxPoint x="50" y="140" as="sourcePoint" />
            <Array as="points">
              <mxPoint x="75" y="140" />
            </Array>
          </mxGeometry>
        </mxCell>
        <mxCell id="gY_hNqubKsFykbv0zO63-0" value="" style="html=1;points=[];perimeter=orthogonalPerimeter;" vertex="1" parent="gE69XTcPKcr9f4MS3hgD-12">
          <mxGeometry x="45" y="280" width="10" height="40" as="geometry" />
        </mxCell>
        <mxCell id="gY_hNqubKsFykbv0zO63-1" value="prvaKarta(karte)" style="edgeStyle=orthogonalEdgeStyle;html=1;align=left;spacingLeft=2;endArrow=block;rounded=0;entryX=1;entryY=0;" edge="1" target="gY_hNqubKsFykbv0zO63-0" parent="gE69XTcPKcr9f4MS3hgD-12">
          <mxGeometry relative="1" as="geometry">
            <mxPoint x="50" y="260" as="sourcePoint" />
            <Array as="points">
              <mxPoint x="75" y="260" />
            </Array>
          </mxGeometry>
        </mxCell>
        <mxCell id="gY_hNqubKsFykbv0zO63-2" value="" style="html=1;points=[];perimeter=orthogonalPerimeter;" vertex="1" parent="gE69XTcPKcr9f4MS3hgD-12">
          <mxGeometry x="45" y="360" width="10" height="40" as="geometry" />
        </mxCell>
        <mxCell id="gY_hNqubKsFykbv0zO63-3" value="prikaziStol()" style="edgeStyle=orthogonalEdgeStyle;html=1;align=left;spacingLeft=2;endArrow=block;rounded=0;entryX=1;entryY=0;" edge="1" target="gY_hNqubKsFykbv0zO63-2" parent="gE69XTcPKcr9f4MS3hgD-12">
          <mxGeometry relative="1" as="geometry">
            <mxPoint x="50" y="340" as="sourcePoint" />
            <Array as="points">
              <mxPoint x="75" y="340" />
            </Array>
          </mxGeometry>
        </mxCell>
        <mxCell id="gY_hNqubKsFykbv0zO63-4" value="" style="html=1;points=[];perimeter=orthogonalPerimeter;" vertex="1" parent="gE69XTcPKcr9f4MS3hgD-12">
          <mxGeometry x="45" y="440" width="10" height="120" as="geometry" />
        </mxCell>
        <mxCell id="gY_hNqubKsFykbv0zO63-5" value="Igraj()" style="edgeStyle=orthogonalEdgeStyle;html=1;align=left;spacingLeft=2;endArrow=block;rounded=0;entryX=1;entryY=0;" edge="1" target="gY_hNqubKsFykbv0zO63-4" parent="gE69XTcPKcr9f4MS3hgD-12">
          <mxGeometry relative="1" as="geometry">
            <mxPoint x="50" y="420" as="sourcePoint" />
            <Array as="points">
              <mxPoint x="75" y="420" />
            </Array>
          </mxGeometry>
        </mxCell>
        <mxCell id="gE69XTcPKcr9f4MS3hgD-16" value="karte:Karte" style="shape=umlLifeline;perimeter=lifelinePerimeter;whiteSpace=wrap;html=1;container=1;collapsible=0;recursiveResize=0;outlineConnect=0;" vertex="1" parent="gE69XTcPKcr9f4MS3hgD-1">
          <mxGeometry x="364" y="30" width="100" height="970" as="geometry" />
        </mxCell>
        <mxCell id="gE69XTcPKcr9f4MS3hgD-17" value="" style="html=1;points=[];perimeter=orthogonalPerimeter;" vertex="1" parent="gE69XTcPKcr9f4MS3hgD-16">
          <mxGeometry x="45" y="100" width="10" height="760" as="geometry" />
        </mxCell>
        <mxCell id="gE69XTcPKcr9f4MS3hgD-20" value="igrac:Igrac" style="shape=umlLifeline;perimeter=lifelinePerimeter;whiteSpace=wrap;html=1;container=1;collapsible=0;recursiveResize=0;outlineConnect=0;" vertex="1" parent="gE69XTcPKcr9f4MS3hgD-1">
          <mxGeometry x="570" y="30" width="100" height="970" as="geometry" />
        </mxCell>
        <mxCell id="gE69XTcPKcr9f4MS3hgD-21" value="" style="html=1;points=[];perimeter=orthogonalPerimeter;" vertex="1" parent="gE69XTcPKcr9f4MS3hgD-20">
          <mxGeometry x="45" y="100" width="10" height="760" as="geometry" />
        </mxCell>
        <mxCell id="ivEOMNxHSLZigw6HeKie-0" value="" style="html=1;verticalAlign=bottom;startArrow=oval;startFill=1;endArrow=block;startSize=8;" edge="1" parent="gE69XTcPKcr9f4MS3hgD-1" target="gE69XTcPKcr9f4MS3hgD-7">
          <mxGeometry width="60" relative="1" as="geometry">
            <mxPoint x="250" y="220" as="sourcePoint" />
            <mxPoint x="410" y="220" as="targetPoint" />
            <Array as="points">
              <mxPoint x="275" y="220" />
              <mxPoint x="315" y="220" />
            </Array>
          </mxGeometry>
        </mxCell>
        <mxCell id="-cF6McgPnjmHe4nzXF0v-0" value="staviKarteuRuku()" style="edgeLabel;html=1;align=center;verticalAlign=middle;resizable=0;points=[];" vertex="1" connectable="0" parent="ivEOMNxHSLZigw6HeKie-0">
          <mxGeometry x="-0.177" y="-2" relative="1" as="geometry">
            <mxPoint x="-3" y="-12" as="offset" />
          </mxGeometry>
        </mxCell>
        <mxCell id="ivEOMNxHSLZigw6HeKie-1" value="" style="html=1;verticalAlign=bottom;startArrow=oval;startFill=1;endArrow=block;startSize=8;entryX=-0.2;entryY=0.172;entryDx=0;entryDy=0;entryPerimeter=0;" edge="1" parent="gE69XTcPKcr9f4MS3hgD-1" source="gE69XTcPKcr9f4MS3hgD-12" target="gE69XTcPKcr9f4MS3hgD-21">
          <mxGeometry width="60" relative="1" as="geometry">
            <mxPoint x="260" y="230" as="sourcePoint" />
            <mxPoint x="799.5" y="230" as="targetPoint" />
            <Array as="points">
              <mxPoint x="285" y="260" />
              <mxPoint x="325" y="260" />
            </Array>
          </mxGeometry>
        </mxCell>
        <mxCell id="-cF6McgPnjmHe4nzXF0v-1" value="&lt;span style=&quot;font-size: 11px ; background-color: rgb(255 , 255 , 255)&quot;&gt;&amp;nbsp;staviKarteuRuku()&lt;/span&gt;" style="text;html=1;align=center;verticalAlign=middle;resizable=0;points=[];autosize=1;" vertex="1" parent="gE69XTcPKcr9f4MS3hgD-1">
          <mxGeometry x="414" y="240" width="110" height="20" as="geometry" />
        </mxCell>
      </root>
    </mxGraphModel>
  </diagram>
  <diagram id="qNAoC6zfPWzlXgh78vj9" name="BazaIgraca">
    <mxGraphModel dx="1929" dy="614" grid="1" gridSize="10" guides="1" tooltips="1" connect="1" arrows="1" fold="1" page="1" pageScale="1" pageWidth="827" pageHeight="1169" math="0" shadow="0">
      <root>
        <mxCell id="Tv7ERChVxIUPKSJ8igMo-0" />
        <mxCell id="Tv7ERChVxIUPKSJ8igMo-1" parent="Tv7ERChVxIUPKSJ8igMo-0" />
        <mxCell id="qeFC_yOfX5S2AvdiI_1y-1" value="&lt;p style=&quot;margin: 0px ; margin-top: 4px ; margin-left: 5px ; text-align: left&quot;&gt;&lt;br&gt;&lt;/p&gt;" style="html=1;shape=mxgraph.sysml.package;overflow=fill;labelX=95;align=left;spacingLeft=5;verticalAlign=top;spacingTop=-3;" parent="Tv7ERChVxIUPKSJ8igMo-1" vertex="1">
          <mxGeometry x="550" y="1130" width="587.5" height="310" as="geometry" />
        </mxCell>
        <mxCell id="qeFC_yOfX5S2AvdiI_1y-5" value="&lt;p style=&quot;margin: 0px ; margin-top: 4px ; margin-left: 5px ; text-align: left&quot;&gt;&lt;b&gt;loop&lt;/b&gt;&lt;/p&gt;&lt;p style=&quot;margin: 0px ; margin-top: 4px ; margin-left: 5px ; text-align: left&quot;&gt;&lt;b&gt;for korisnik in podaci&lt;/b&gt;&lt;/p&gt;" style="html=1;shape=mxgraph.sysml.package;overflow=fill;labelX=95;align=left;spacingLeft=5;verticalAlign=top;spacingTop=-3;" parent="Tv7ERChVxIUPKSJ8igMo-1" vertex="1">
          <mxGeometry x="580" y="1210" width="540" height="170" as="geometry" />
        </mxCell>
        <mxCell id="6bXRYg1dMUAFCrrHAGoI-1" value="&lt;p style=&quot;margin: 0px ; margin-top: 4px ; margin-left: 5px ; text-align: left&quot;&gt;&lt;br&gt;&lt;/p&gt;" style="html=1;shape=mxgraph.sysml.package;overflow=fill;labelX=95;align=left;spacingLeft=5;verticalAlign=top;spacingTop=-3;" parent="Tv7ERChVxIUPKSJ8igMo-1" vertex="1">
          <mxGeometry x="470" y="800" width="587.5" height="310" as="geometry" />
        </mxCell>
        <mxCell id="6bXRYg1dMUAFCrrHAGoI-5" value="&lt;p style=&quot;margin: 0px ; margin-top: 4px ; margin-left: 5px ; text-align: left&quot;&gt;&lt;b&gt;loop&lt;/b&gt;&lt;/p&gt;&lt;p style=&quot;margin: 0px ; margin-top: 4px ; margin-left: 5px ; text-align: left&quot;&gt;&lt;b&gt;while [not postoji]&lt;/b&gt;&lt;/p&gt;" style="html=1;shape=mxgraph.sysml.package;overflow=fill;labelX=95;align=left;spacingLeft=5;verticalAlign=top;spacingTop=-3;" parent="Tv7ERChVxIUPKSJ8igMo-1" vertex="1">
          <mxGeometry x="500" y="840" width="530" height="190" as="geometry" />
        </mxCell>
        <mxCell id="BzQbtxETHP8Sscr24hHr-0" value="&lt;p style=&quot;margin: 0px ; margin-top: 4px ; margin-left: 5px ; text-align: left&quot;&gt;&lt;b&gt;alt&lt;/b&gt;&lt;/p&gt;&lt;p style=&quot;margin: 0px ; margin-top: 4px ; margin-left: 5px ; text-align: left&quot;&gt;&lt;br&gt;&lt;/p&gt;" style="html=1;shape=mxgraph.sysml.package;overflow=fill;labelX=95;align=left;spacingLeft=5;verticalAlign=top;spacingTop=-3;" parent="Tv7ERChVxIUPKSJ8igMo-1" vertex="1">
          <mxGeometry x="540" y="920" width="360" height="100" as="geometry" />
        </mxCell>
        <mxCell id="tiVaJim4WYAWk97caFUN-6" value="&lt;p style=&quot;margin: 0px ; margin-top: 4px ; margin-left: 5px ; text-align: left&quot;&gt;&lt;br&gt;&lt;/p&gt;" style="html=1;shape=mxgraph.sysml.package;overflow=fill;labelX=95;align=left;spacingLeft=5;verticalAlign=top;spacingTop=-3;" parent="Tv7ERChVxIUPKSJ8igMo-1" vertex="1">
          <mxGeometry x="480" y="240" width="565" height="250" as="geometry" />
        </mxCell>
        <mxCell id="XZ55hDITqyZbCzgtUcb7-0" value="&lt;p style=&quot;margin: 0px ; margin-top: 4px ; margin-left: 5px ; text-align: left&quot;&gt;&lt;b&gt;loop&lt;/b&gt;&lt;/p&gt;&lt;p style=&quot;margin: 0px ; margin-top: 4px ; margin-left: 5px ; text-align: left&quot;&gt;&lt;b&gt;for korisnik in&amp;nbsp;&lt;/b&gt;&lt;/p&gt;&lt;p style=&quot;margin: 0px ; margin-top: 4px ; margin-left: 5px ; text-align: left&quot;&gt;&lt;b&gt;podaci&lt;/b&gt;&lt;/p&gt;" style="html=1;shape=mxgraph.sysml.package;overflow=fill;labelX=95;align=left;spacingLeft=5;verticalAlign=top;spacingTop=-3;" parent="Tv7ERChVxIUPKSJ8igMo-1" vertex="1">
          <mxGeometry x="520" y="500" width="410" height="170" as="geometry" />
        </mxCell>
        <mxCell id="MnsQAgLv4bx4hMKXmdBW-2" value="&lt;p style=&quot;margin: 0px ; margin-top: 4px ; margin-left: 5px ; text-align: left&quot;&gt;&lt;b&gt;alt&lt;/b&gt;&lt;/p&gt;&lt;p style=&quot;margin: 0px ; margin-top: 4px ; margin-left: 5px ; text-align: left&quot;&gt;&lt;br&gt;&lt;/p&gt;" style="html=1;shape=mxgraph.sysml.package;overflow=fill;labelX=95;align=left;spacingLeft=5;verticalAlign=top;spacingTop=-3;" parent="Tv7ERChVxIUPKSJ8igMo-1" vertex="1">
          <mxGeometry x="570" y="535" width="310" height="100" as="geometry" />
        </mxCell>
        <mxCell id="1gxaqM9WBq6jdJ3BAe4I-28" value="&lt;p style=&quot;margin: 0px ; margin-top: 4px ; margin-left: 5px ; text-align: left&quot;&gt;&lt;b&gt;loop&lt;/b&gt;&lt;/p&gt;&lt;p style=&quot;margin: 0px ; margin-top: 4px ; margin-left: 5px ; text-align: left&quot;&gt;&lt;b&gt;while [invalid]&lt;/b&gt;&lt;/p&gt;" style="html=1;shape=mxgraph.sysml.package;overflow=fill;labelX=95;align=left;spacingLeft=5;verticalAlign=top;spacingTop=-3;" parent="Tv7ERChVxIUPKSJ8igMo-1" vertex="1">
          <mxGeometry x="520" y="260" width="410" height="150" as="geometry" />
        </mxCell>
        <mxCell id="1gxaqM9WBq6jdJ3BAe4I-14" value="Izbornik" style="shape=umlLifeline;perimeter=lifelinePerimeter;whiteSpace=wrap;html=1;container=1;collapsible=0;recursiveResize=0;outlineConnect=0;" parent="Tv7ERChVxIUPKSJ8igMo-1" vertex="1">
          <mxGeometry x="100" y="60" width="100" height="1430" as="geometry" />
        </mxCell>
        <mxCell id="1gxaqM9WBq6jdJ3BAe4I-15" value="" style="html=1;points=[];perimeter=orthogonalPerimeter;" parent="1gxaqM9WBq6jdJ3BAe4I-14" vertex="1">
          <mxGeometry x="45" y="50" width="10" height="1280" as="geometry" />
        </mxCell>
        <mxCell id="1gxaqM9WBq6jdJ3BAe4I-16" value="BazaIgraca" style="shape=umlLifeline;perimeter=lifelinePerimeter;whiteSpace=wrap;html=1;container=1;collapsible=0;recursiveResize=0;outlineConnect=0;" parent="Tv7ERChVxIUPKSJ8igMo-1" vertex="1">
          <mxGeometry x="580" y="20" width="100" height="1500" as="geometry" />
        </mxCell>
        <mxCell id="1gxaqM9WBq6jdJ3BAe4I-20" value="1: stvori_korisnika()" style="edgeStyle=orthogonalEdgeStyle;html=1;align=left;spacingLeft=2;endArrow=block;rounded=0;entryX=1;entryY=0;" parent="1gxaqM9WBq6jdJ3BAe4I-16" edge="1">
          <mxGeometry relative="1" as="geometry">
            <mxPoint x="50" y="120" as="sourcePoint" />
            <Array as="points">
              <mxPoint x="75" y="120" />
            </Array>
            <mxPoint x="55" y="140" as="targetPoint" />
          </mxGeometry>
        </mxCell>
        <mxCell id="dS3AoA9sEhp_ozWD4XiR-1" value="" style="html=1;points=[];perimeter=orthogonalPerimeter;" parent="1gxaqM9WBq6jdJ3BAe4I-16" vertex="1">
          <mxGeometry x="45" y="260" width="10" height="40" as="geometry" />
        </mxCell>
        <mxCell id="dS3AoA9sEhp_ozWD4XiR-9" value="" style="html=1;points=[];perimeter=orthogonalPerimeter;" parent="1gxaqM9WBq6jdJ3BAe4I-16" vertex="1">
          <mxGeometry x="45" y="300" width="10" height="40" as="geometry" />
        </mxCell>
        <mxCell id="dS3AoA9sEhp_ozWD4XiR-10" value="2.2: invalid=validacija(korisnik_ime)" style="edgeStyle=orthogonalEdgeStyle;html=1;align=left;spacingLeft=2;endArrow=block;rounded=0;entryX=1;entryY=0;" parent="1gxaqM9WBq6jdJ3BAe4I-16" target="dS3AoA9sEhp_ozWD4XiR-9" edge="1">
          <mxGeometry relative="1" as="geometry">
            <mxPoint x="50" y="285" as="sourcePoint" />
            <Array as="points">
              <mxPoint x="75" y="285" />
            </Array>
          </mxGeometry>
        </mxCell>
        <mxCell id="tiVaJim4WYAWk97caFUN-16" value="2.5: update_igraci(podaci)" style="edgeStyle=orthogonalEdgeStyle;html=1;align=left;spacingLeft=2;endArrow=block;rounded=0;entryX=1;entryY=0;" parent="1gxaqM9WBq6jdJ3BAe4I-16" edge="1">
          <mxGeometry relative="1" as="geometry">
            <mxPoint x="50" y="430" as="sourcePoint" />
            <Array as="points">
              <mxPoint x="75" y="430" />
            </Array>
            <mxPoint x="55" y="450" as="targetPoint" />
          </mxGeometry>
        </mxCell>
        <mxCell id="6bXRYg1dMUAFCrrHAGoI-3" value="" style="html=1;points=[];perimeter=orthogonalPerimeter;" parent="1gxaqM9WBq6jdJ3BAe4I-16" vertex="1">
          <mxGeometry x="45" y="810" width="10" height="40" as="geometry" />
        </mxCell>
        <mxCell id="6bXRYg1dMUAFCrrHAGoI-4" value="3.1: podaci=ucitaj_json()" style="edgeStyle=orthogonalEdgeStyle;html=1;align=left;spacingLeft=2;endArrow=block;rounded=0;entryX=1;entryY=0;" parent="1gxaqM9WBq6jdJ3BAe4I-16" target="6bXRYg1dMUAFCrrHAGoI-3" edge="1">
          <mxGeometry relative="1" as="geometry">
            <mxPoint x="50" y="790" as="sourcePoint" />
            <Array as="points">
              <mxPoint x="75" y="790" />
            </Array>
          </mxGeometry>
        </mxCell>
        <mxCell id="1gxaqM9WBq6jdJ3BAe4I-17" value="" style="html=1;points=[];perimeter=orthogonalPerimeter;" parent="1gxaqM9WBq6jdJ3BAe4I-16" vertex="1">
          <mxGeometry x="45" y="70" width="10" height="1430" as="geometry" />
        </mxCell>
        <mxCell id="KO_hemrcwftwdp3TBVOc-3" value="" style="html=1;points=[];perimeter=orthogonalPerimeter;" parent="1gxaqM9WBq6jdJ3BAe4I-16" vertex="1">
          <mxGeometry x="45" y="890" width="10" height="20" as="geometry" />
        </mxCell>
        <mxCell id="KO_hemrcwftwdp3TBVOc-4" value="3.2.2: postoji=validacija(korisnik_ime())" style="edgeStyle=orthogonalEdgeStyle;html=1;align=left;spacingLeft=2;endArrow=block;rounded=0;entryX=1;entryY=0;" parent="1gxaqM9WBq6jdJ3BAe4I-16" target="KO_hemrcwftwdp3TBVOc-3" edge="1">
          <mxGeometry relative="1" as="geometry">
            <mxPoint x="50" y="870" as="sourcePoint" />
            <Array as="points">
              <mxPoint x="75" y="870" />
            </Array>
          </mxGeometry>
        </mxCell>
        <mxCell id="qeFC_yOfX5S2AvdiI_1y-4" value="4.1: podaciucitaj_json()" style="edgeStyle=orthogonalEdgeStyle;html=1;align=left;spacingLeft=2;endArrow=block;rounded=0;entryX=1;entryY=0;" parent="1gxaqM9WBq6jdJ3BAe4I-16" edge="1">
          <mxGeometry relative="1" as="geometry">
            <mxPoint x="45" y="1160" as="sourcePoint" />
            <Array as="points">
              <mxPoint x="70" y="1160" />
            </Array>
            <mxPoint x="50" y="1180" as="targetPoint" />
          </mxGeometry>
        </mxCell>
        <mxCell id="1gxaqM9WBq6jdJ3BAe4I-18" value="korisnik_ime = stvori_korisnika()" style="html=1;verticalAlign=bottom;endArrow=block;" parent="Tv7ERChVxIUPKSJ8igMo-1" source="1gxaqM9WBq6jdJ3BAe4I-14" target="1gxaqM9WBq6jdJ3BAe4I-16" edge="1">
          <mxGeometry width="80" relative="1" as="geometry">
            <mxPoint x="370" y="250" as="sourcePoint" />
            <mxPoint x="450" y="250" as="targetPoint" />
            <Array as="points">
              <mxPoint x="390" y="130" />
            </Array>
          </mxGeometry>
        </mxCell>
        <mxCell id="1gxaqM9WBq6jdJ3BAe4I-23" value="1.1: podaci=ucitaj_json()" style="edgeStyle=orthogonalEdgeStyle;html=1;align=left;spacingLeft=2;endArrow=block;rounded=0;entryX=1;entryY=0;" parent="Tv7ERChVxIUPKSJ8igMo-1" edge="1">
          <mxGeometry relative="1" as="geometry">
            <mxPoint x="630" y="180" as="sourcePoint" />
            <Array as="points">
              <mxPoint x="655" y="180" />
            </Array>
            <mxPoint x="635" y="200" as="targetPoint" />
          </mxGeometry>
        </mxCell>
        <mxCell id="1gxaqM9WBq6jdJ3BAe4I-26" value="1.2: ucitaj_json()" style="edgeStyle=orthogonalEdgeStyle;html=1;align=left;spacingLeft=2;endArrow=block;rounded=0;entryX=1;entryY=0;" parent="Tv7ERChVxIUPKSJ8igMo-1" edge="1">
          <mxGeometry x="0.0769" y="5" relative="1" as="geometry">
            <mxPoint x="630" y="210" as="sourcePoint" />
            <Array as="points">
              <mxPoint x="655" y="210" />
            </Array>
            <mxPoint x="635" y="230" as="targetPoint" />
            <mxPoint as="offset" />
          </mxGeometry>
        </mxCell>
        <mxCell id="1gxaqM9WBq6jdJ3BAe4I-27" value="return podaci" style="html=1;verticalAlign=bottom;endArrow=open;dashed=1;endSize=8;" parent="Tv7ERChVxIUPKSJ8igMo-1" source="1gxaqM9WBq6jdJ3BAe4I-17" edge="1">
          <mxGeometry relative="1" as="geometry">
            <mxPoint x="440" y="240" as="sourcePoint" />
            <mxPoint x="760" y="190" as="targetPoint" />
            <Array as="points">
              <mxPoint x="710" y="240" />
              <mxPoint x="760" y="240" />
            </Array>
          </mxGeometry>
        </mxCell>
        <mxCell id="1gxaqM9WBq6jdJ3BAe4I-29" value="2:" style="text;html=1;align=center;verticalAlign=middle;resizable=0;points=[];autosize=1;" parent="Tv7ERChVxIUPKSJ8igMo-1" vertex="1">
          <mxGeometry x="455" y="240" width="30" height="20" as="geometry" />
        </mxCell>
        <mxCell id="dS3AoA9sEhp_ozWD4XiR-0" value="Igrac" style="shape=umlLifeline;participant=umlActor;perimeter=lifelinePerimeter;whiteSpace=wrap;html=1;container=1;collapsible=0;recursiveResize=0;verticalAlign=top;spacingTop=36;outlineConnect=0;size=40;" parent="Tv7ERChVxIUPKSJ8igMo-1" vertex="1">
          <mxGeometry x="-30" y="60" width="20" height="1310" as="geometry" />
        </mxCell>
        <mxCell id="dS3AoA9sEhp_ozWD4XiR-4" value="2.1:korisnik_ime = input()" style="html=1;verticalAlign=bottom;endArrow=block;" parent="Tv7ERChVxIUPKSJ8igMo-1" target="dS3AoA9sEhp_ozWD4XiR-1" edge="1">
          <mxGeometry x="1" y="75" width="80" relative="1" as="geometry">
            <mxPoint x="-20" y="300" as="sourcePoint" />
            <mxPoint x="460" y="300" as="targetPoint" />
            <Array as="points">
              <mxPoint x="220.5" y="300" />
            </Array>
            <mxPoint x="75" y="75" as="offset" />
          </mxGeometry>
        </mxCell>
        <mxCell id="dS3AoA9sEhp_ozWD4XiR-6" value="2.1:" style="text;html=1;align=center;verticalAlign=middle;resizable=0;points=[];autosize=1;" parent="Tv7ERChVxIUPKSJ8igMo-1" vertex="1">
          <mxGeometry x="480" y="260" width="40" height="20" as="geometry" />
        </mxCell>
        <mxCell id="XZ55hDITqyZbCzgtUcb7-2" value="2.2:&amp;nbsp;" style="text;html=1;align=center;verticalAlign=middle;resizable=0;points=[];autosize=1;" parent="Tv7ERChVxIUPKSJ8igMo-1" vertex="1">
          <mxGeometry x="485" y="500" width="40" height="20" as="geometry" />
        </mxCell>
        <mxCell id="MnsQAgLv4bx4hMKXmdBW-4" value="korisnik.lower() == korisnik_ime.lower()" style="text;html=1;align=center;verticalAlign=middle;resizable=0;points=[];autosize=1;" parent="Tv7ERChVxIUPKSJ8igMo-1" vertex="1">
          <mxGeometry x="570" y="560" width="220" height="20" as="geometry" />
        </mxCell>
        <mxCell id="tiVaJim4WYAWk97caFUN-0" value="return True" style="shape=note;whiteSpace=wrap;html=1;backgroundOutline=1;darkOpacity=0.05;size=9;" parent="Tv7ERChVxIUPKSJ8igMo-1" vertex="1">
          <mxGeometry x="670" y="585" width="120" height="40" as="geometry" />
        </mxCell>
        <mxCell id="tiVaJim4WYAWk97caFUN-1" value="return False" style="shape=note;whiteSpace=wrap;html=1;backgroundOutline=1;darkOpacity=0.05;size=9;" parent="Tv7ERChVxIUPKSJ8igMo-1" vertex="1">
          <mxGeometry x="670" y="640" width="110" height="30" as="geometry" />
        </mxCell>
        <mxCell id="tiVaJim4WYAWk97caFUN-2" value="return" style="html=1;verticalAlign=bottom;endArrow=open;dashed=1;endSize=8;" parent="Tv7ERChVxIUPKSJ8igMo-1" edge="1">
          <mxGeometry relative="1" as="geometry">
            <mxPoint x="930" y="510" as="sourcePoint" />
            <mxPoint x="930" y="313" as="targetPoint" />
            <Array as="points">
              <mxPoint x="980" y="510" />
              <mxPoint x="980" y="313" />
            </Array>
          </mxGeometry>
        </mxCell>
        <mxCell id="tiVaJim4WYAWk97caFUN-3" value="alt&lt;br&gt;&lt;br&gt;if invalid&amp;nbsp;" style="html=1;shape=mxgraph.sysml.package;overflow=fill;labelX=95;align=left;spacingLeft=5;verticalAlign=top;spacingTop=-3;" parent="Tv7ERChVxIUPKSJ8igMo-1" vertex="1">
          <mxGeometry x="670" y="320" width="230" height="70" as="geometry" />
        </mxCell>
        <mxCell id="tiVaJim4WYAWk97caFUN-4" value="print()" style="shape=note;whiteSpace=wrap;html=1;backgroundOutline=1;darkOpacity=0.05;size=9;" parent="Tv7ERChVxIUPKSJ8igMo-1" vertex="1">
          <mxGeometry x="725" y="350" width="100" height="30" as="geometry" />
        </mxCell>
        <mxCell id="tiVaJim4WYAWk97caFUN-8" value="novi podaci={dict} i mjenjaju se podaci" style="shape=note;whiteSpace=wrap;html=1;backgroundOutline=1;darkOpacity=0.05;size=9;" parent="Tv7ERChVxIUPKSJ8igMo-1" vertex="1">
          <mxGeometry x="670" y="410" width="200" height="30" as="geometry" />
        </mxCell>
        <mxCell id="tiVaJim4WYAWk97caFUN-9" value="2.3:" style="text;html=1;align=center;verticalAlign=middle;resizable=0;points=[];autosize=1;" parent="Tv7ERChVxIUPKSJ8igMo-1" vertex="1">
          <mxGeometry x="640" y="320" width="40" height="20" as="geometry" />
        </mxCell>
        <mxCell id="tiVaJim4WYAWk97caFUN-10" value="2.4:" style="text;html=1;align=center;verticalAlign=middle;resizable=0;points=[];autosize=1;" parent="Tv7ERChVxIUPKSJ8igMo-1" vertex="1">
          <mxGeometry x="640" y="420" width="40" height="20" as="geometry" />
        </mxCell>
        <mxCell id="tiVaJim4WYAWk97caFUN-17" value="2.6: return korisnik_ime" style="html=1;verticalAlign=bottom;startArrow=circle;startFill=1;endArrow=open;startSize=6;endSize=8;exitX=-0.002;exitY=0.96;exitDx=0;exitDy=0;exitPerimeter=0;" parent="Tv7ERChVxIUPKSJ8igMo-1" source="tiVaJim4WYAWk97caFUN-6" target="1gxaqM9WBq6jdJ3BAe4I-14" edge="1">
          <mxGeometry width="80" relative="1" as="geometry">
            <mxPoint x="570" y="410" as="sourcePoint" />
            <mxPoint x="650" y="410" as="targetPoint" />
          </mxGeometry>
        </mxCell>
        <mxCell id="6bXRYg1dMUAFCrrHAGoI-0" value="3: korisnik_ime=ucitaj_igraca()" style="html=1;verticalAlign=bottom;endArrow=block;" parent="Tv7ERChVxIUPKSJ8igMo-1" source="1gxaqM9WBq6jdJ3BAe4I-15" edge="1">
          <mxGeometry width="80" relative="1" as="geometry">
            <mxPoint x="403" y="822" as="sourcePoint" />
            <mxPoint x="630" y="823" as="targetPoint" />
          </mxGeometry>
        </mxCell>
        <mxCell id="KO_hemrcwftwdp3TBVOc-0" value="3.2.1:korisnik_ime = input()" style="html=1;verticalAlign=bottom;endArrow=block;" parent="Tv7ERChVxIUPKSJ8igMo-1" edge="1">
          <mxGeometry x="1" y="86" width="80" relative="1" as="geometry">
            <mxPoint x="-20" y="890" as="sourcePoint" />
            <mxPoint x="625" y="890" as="targetPoint" />
            <Array as="points">
              <mxPoint x="220.5" y="890" />
            </Array>
            <mxPoint x="85" y="76" as="offset" />
          </mxGeometry>
        </mxCell>
        <mxCell id="KO_hemrcwftwdp3TBVOc-5" value="3.2.1" style="edgeLabel;html=1;align=center;verticalAlign=middle;resizable=0;points=[];" parent="KO_hemrcwftwdp3TBVOc-0" vertex="1" connectable="0">
          <mxGeometry x="-0.0822" y="-1" relative="1" as="geometry">
            <mxPoint as="offset" />
          </mxGeometry>
        </mxCell>
        <mxCell id="KO_hemrcwftwdp3TBVOc-1" value="3.2." style="text;html=1;align=center;verticalAlign=middle;resizable=0;points=[];autosize=1;" parent="Tv7ERChVxIUPKSJ8igMo-1" vertex="1">
          <mxGeometry x="470" y="840" width="40" height="20" as="geometry" />
        </mxCell>
        <mxCell id="BzQbtxETHP8Sscr24hHr-1" value="if not postoji" style="text;html=1;align=center;verticalAlign=middle;resizable=0;points=[];autosize=1;" parent="Tv7ERChVxIUPKSJ8igMo-1" vertex="1">
          <mxGeometry x="540" y="960" width="80" height="20" as="geometry" />
        </mxCell>
        <mxCell id="BzQbtxETHP8Sscr24hHr-2" value="print()" style="shape=note;whiteSpace=wrap;html=1;backgroundOutline=1;darkOpacity=0.05;size=9;" parent="Tv7ERChVxIUPKSJ8igMo-1" vertex="1">
          <mxGeometry x="670" y="960" width="100" height="30" as="geometry" />
        </mxCell>
        <mxCell id="BzQbtxETHP8Sscr24hHr-3" value="return korisnik_ime" style="shape=note;whiteSpace=wrap;html=1;backgroundOutline=1;darkOpacity=0.05;size=9;" parent="Tv7ERChVxIUPKSJ8igMo-1" vertex="1">
          <mxGeometry x="675" y="1060" width="100" height="30" as="geometry" />
        </mxCell>
        <mxCell id="BzQbtxETHP8Sscr24hHr-4" value="return" style="html=1;verticalAlign=bottom;startArrow=oval;startFill=1;endArrow=block;startSize=8;exitX=0;exitY=0.5;exitDx=0;exitDy=0;exitPerimeter=0;" parent="Tv7ERChVxIUPKSJ8igMo-1" source="BzQbtxETHP8Sscr24hHr-3" target="1gxaqM9WBq6jdJ3BAe4I-14" edge="1">
          <mxGeometry x="0.0466" width="60" relative="1" as="geometry">
            <mxPoint x="440" y="970" as="sourcePoint" />
            <mxPoint x="500" y="970" as="targetPoint" />
            <mxPoint as="offset" />
          </mxGeometry>
        </mxCell>
        <mxCell id="BzQbtxETHP8Sscr24hHr-6" value="3.3" style="text;html=1;align=center;verticalAlign=middle;resizable=0;points=[];autosize=1;" parent="Tv7ERChVxIUPKSJ8igMo-1" vertex="1">
          <mxGeometry x="510" y="920" width="30" height="20" as="geometry" />
        </mxCell>
        <mxCell id="BzQbtxETHP8Sscr24hHr-7" value="3.4" style="text;html=1;align=center;verticalAlign=middle;resizable=0;points=[];autosize=1;" parent="Tv7ERChVxIUPKSJ8igMo-1" vertex="1">
          <mxGeometry x="640" y="1050" width="30" height="20" as="geometry" />
        </mxCell>
        <mxCell id="qeFC_yOfX5S2AvdiI_1y-0" value="4:spremiPoredak(korisnik_ime,odigrano,pobjede,porazi)" style="html=1;verticalAlign=bottom;endArrow=block;entryX=0;entryY=0.777;entryDx=0;entryDy=0;entryPerimeter=0;" parent="Tv7ERChVxIUPKSJ8igMo-1" target="1gxaqM9WBq6jdJ3BAe4I-17" edge="1">
          <mxGeometry x="0.0736" width="80" relative="1" as="geometry">
            <mxPoint x="150" y="1200" as="sourcePoint" />
            <mxPoint x="1074.5" y="1200" as="targetPoint" />
            <mxPoint as="offset" />
          </mxGeometry>
        </mxCell>
        <mxCell id="qeFC_yOfX5S2AvdiI_1y-6" value="4.2:" style="text;html=1;align=center;verticalAlign=middle;resizable=0;points=[];autosize=1;" parent="Tv7ERChVxIUPKSJ8igMo-1" vertex="1">
          <mxGeometry x="550" y="1210" width="40" height="20" as="geometry" />
        </mxCell>
        <mxCell id="qeFC_yOfX5S2AvdiI_1y-7" value="&lt;p style=&quot;margin: 0px ; margin-top: 4px ; margin-left: 5px ; text-align: left&quot;&gt;&lt;b&gt;alt&lt;/b&gt;&lt;/p&gt;&lt;p style=&quot;margin: 0px ; margin-top: 4px ; margin-left: 5px ; text-align: left&quot;&gt;&lt;br&gt;&lt;/p&gt;" style="html=1;shape=mxgraph.sysml.package;overflow=fill;labelX=95;align=left;spacingLeft=5;verticalAlign=top;spacingTop=-3;" parent="Tv7ERChVxIUPKSJ8igMo-1" vertex="1">
          <mxGeometry x="605" y="1260" width="360" height="100" as="geometry" />
        </mxCell>
        <mxCell id="qeFC_yOfX5S2AvdiI_1y-8" value="&lt;span style=&quot;color: rgba(0 , 0 , 0 , 0) ; font-family: monospace ; font-size: 0px&quot;&gt;%3CmxGraphModel%3E%3Croot%3E%3CmxCell%20id%3D%220%22%2F%3E%3CmxCell%20id%3D%221%22%20parent%3D%220%22%2F%3E%3CmxCell%20id%3D%222%22%20value%3D%22korisnik.lower()%20%3D%3D%20korisnik_ime.lower()%22%20style%3D%22text%3Bhtml%3D1%3Balign%3Dcenter%3BverticalAlign%3Dmiddle%3Bresizable%3D0%3Bpoints%3D%5B%5D%3Bautosize%3D1%3B%22%20vertex%3D%221%22%20parent%3D%221%22%3E%3CmxGeometry%20x%3D%22570%22%20y%3D%22560%22%20width%3D%22220%22%20height%3D%2220%22%20as%3D%22geometry%22%2F%3E%3C%2FmxCell%3E%3C%2Froot%3E%3C%2FmxGraphModel%3E&lt;/span&gt;" style="text;html=1;align=center;verticalAlign=middle;resizable=0;points=[];autosize=1;" parent="Tv7ERChVxIUPKSJ8igMo-1" vertex="1">
          <mxGeometry x="350" y="1330" width="20" height="20" as="geometry" />
        </mxCell>
        <mxCell id="qeFC_yOfX5S2AvdiI_1y-9" value="if korisnik.lower() == korisnik_ime.lower()" style="text;html=1;align=center;verticalAlign=middle;resizable=0;points=[];autosize=1;" parent="Tv7ERChVxIUPKSJ8igMo-1" vertex="1">
          <mxGeometry x="610" y="1290" width="230" height="20" as="geometry" />
        </mxCell>
        <mxCell id="qeFC_yOfX5S2AvdiI_1y-10" value="zamjena i break" style="shape=note;whiteSpace=wrap;html=1;backgroundOutline=1;darkOpacity=0.05;size=9;" parent="Tv7ERChVxIUPKSJ8igMo-1" vertex="1">
          <mxGeometry x="690" y="1310" width="100" height="30" as="geometry" />
        </mxCell>
        <mxCell id="qeFC_yOfX5S2AvdiI_1y-11" value="4.2.1:" style="text;html=1;align=center;verticalAlign=middle;resizable=0;points=[];autosize=1;" parent="Tv7ERChVxIUPKSJ8igMo-1" vertex="1">
          <mxGeometry x="570" y="1260" width="50" height="20" as="geometry" />
        </mxCell>
        <mxCell id="qeFC_yOfX5S2AvdiI_1y-13" value="spremamo igrace i pozivamo metodu&lt;br&gt;update_igraci()" style="shape=note;whiteSpace=wrap;html=1;backgroundOutline=1;darkOpacity=0.05;size=9;" parent="Tv7ERChVxIUPKSJ8igMo-1" vertex="1">
          <mxGeometry x="675" y="1390" width="235" height="40" as="geometry" />
        </mxCell>
        <mxCell id="qeFC_yOfX5S2AvdiI_1y-14" value="5" style="text;html=1;align=center;verticalAlign=middle;resizable=0;points=[];autosize=1;" parent="Tv7ERChVxIUPKSJ8igMo-1" vertex="1">
          <mxGeometry x="650" y="1390" width="20" height="20" as="geometry" />
        </mxCell>
      </root>
    </mxGraphModel>
  </diagram>
  <diagram id="WQ-Yjn8huPfybEaES1iD" name="Karte">
    <mxGraphModel dx="275" dy="614" grid="1" gridSize="10" guides="1" tooltips="1" connect="1" arrows="1" fold="1" page="1" pageScale="1" pageWidth="827" pageHeight="1169" math="0" shadow="0">
      <root>
        <mxCell id="u3WvSCqQXHIvDd4T5PSf-0" />
        <mxCell id="u3WvSCqQXHIvDd4T5PSf-1" parent="u3WvSCqQXHIvDd4T5PSf-0" />
        <mxCell id="E8txtuMMnRt0bNP4_hQp-0" value="" style="shape=umlFrame;whiteSpace=wrap;html=1;" parent="u3WvSCqQXHIvDd4T5PSf-1" vertex="1">
          <mxGeometry x="1220" y="120" width="460" height="900" as="geometry" />
        </mxCell>
        <mxCell id="Hw_KgPpB4QYiONWsCU38-27" style="edgeStyle=orthogonalEdgeStyle;rounded=0;orthogonalLoop=1;jettySize=auto;html=1;" parent="u3WvSCqQXHIvDd4T5PSf-1" source="TezaivC-gk3zgkvKRitN-0" edge="1">
          <mxGeometry relative="1" as="geometry">
            <mxPoint x="1340" y="1340" as="targetPoint" />
          </mxGeometry>
        </mxCell>
        <mxCell id="TezaivC-gk3zgkvKRitN-0" value="Karte" style="shape=umlLifeline;perimeter=lifelinePerimeter;whiteSpace=wrap;html=1;container=1;collapsible=0;recursiveResize=0;outlineConnect=0;" parent="u3WvSCqQXHIvDd4T5PSf-1" vertex="1">
          <mxGeometry x="1290" y="30" width="100" height="1330" as="geometry" />
        </mxCell>
        <mxCell id="TezaivC-gk3zgkvKRitN-1" value="" style="html=1;points=[];perimeter=orthogonalPerimeter;" parent="TezaivC-gk3zgkvKRitN-0" vertex="1">
          <mxGeometry x="45" y="80" width="10" height="1250" as="geometry" />
        </mxCell>
        <mxCell id="Hw_KgPpB4QYiONWsCU38-37" value="" style="html=1;points=[];perimeter=orthogonalPerimeter;" parent="TezaivC-gk3zgkvKRitN-0" vertex="1">
          <mxGeometry x="45" y="940" width="10" height="40" as="geometry" />
        </mxCell>
        <mxCell id="Hw_KgPpB4QYiONWsCU38-38" value="niz_karta=shuffle(niz_karata)" style="edgeStyle=orthogonalEdgeStyle;html=1;align=left;spacingLeft=2;endArrow=block;rounded=0;entryX=1;entryY=0;" parent="TezaivC-gk3zgkvKRitN-0" target="Hw_KgPpB4QYiONWsCU38-37" edge="1">
          <mxGeometry relative="1" as="geometry">
            <mxPoint x="50" y="920" as="sourcePoint" />
            <Array as="points">
              <mxPoint x="75" y="920" />
            </Array>
          </mxGeometry>
        </mxCell>
        <mxCell id="wHfJqjgJgXn0gSJo_F5u-0" value="Igra" style="shape=umlLifeline;perimeter=lifelinePerimeter;whiteSpace=wrap;html=1;container=1;collapsible=0;recursiveResize=0;outlineConnect=0;" parent="u3WvSCqQXHIvDd4T5PSf-1" vertex="1">
          <mxGeometry x="950" y="30" width="100" height="1200" as="geometry" />
        </mxCell>
        <mxCell id="wHfJqjgJgXn0gSJo_F5u-1" value="" style="html=1;points=[];perimeter=orthogonalPerimeter;" parent="wHfJqjgJgXn0gSJo_F5u-0" vertex="1">
          <mxGeometry x="45" y="85" width="10" height="1025" as="geometry" />
        </mxCell>
        <mxCell id="Ti0l_VhebohVaFZ35UnA-0" value="1:karte=generiraj_karte()&amp;nbsp; init__()__" style="html=1;verticalAlign=bottom;startArrow=oval;startFill=1;endArrow=block;startSize=8;" parent="u3WvSCqQXHIvDd4T5PSf-1" edge="1">
          <mxGeometry x="-0.2353" width="60" relative="1" as="geometry">
            <mxPoint x="1000" y="150" as="sourcePoint" />
            <mxPoint x="1340" y="150" as="targetPoint" />
            <mxPoint as="offset" />
          </mxGeometry>
        </mxCell>
        <mxCell id="E8txtuMMnRt0bNP4_hQp-1" value="loop" style="shape=umlFrame;whiteSpace=wrap;html=1;" parent="u3WvSCqQXHIvDd4T5PSf-1" vertex="1">
          <mxGeometry x="1280" y="160" width="310" height="80" as="geometry" />
        </mxCell>
        <mxCell id="E8txtuMMnRt0bNP4_hQp-2" value="kreirane_karte = [karta for karta in range(1, 10)] * 2" style="text;html=1;align=center;verticalAlign=middle;resizable=0;points=[];autosize=1;" parent="u3WvSCqQXHIvDd4T5PSf-1" vertex="1">
          <mxGeometry x="1270" y="200" width="290" height="20" as="geometry" />
        </mxCell>
        <mxCell id="E8txtuMMnRt0bNP4_hQp-3" value="Boje" style="shape=umlLifeline;perimeter=lifelinePerimeter;whiteSpace=wrap;html=1;container=1;collapsible=0;recursiveResize=0;outlineConnect=0;" parent="u3WvSCqQXHIvDd4T5PSf-1" vertex="1">
          <mxGeometry x="1780" y="30" width="100" height="890" as="geometry" />
        </mxCell>
        <mxCell id="E8txtuMMnRt0bNP4_hQp-4" value="" style="html=1;points=[];perimeter=orthogonalPerimeter;" parent="E8txtuMMnRt0bNP4_hQp-3" vertex="1">
          <mxGeometry x="45" y="80" width="10" height="600" as="geometry" />
        </mxCell>
        <mxCell id="Hw_KgPpB4QYiONWsCU38-0" value="dodati boje u niz" style="shape=note;whiteSpace=wrap;html=1;backgroundOutline=1;darkOpacity=0.05;" parent="u3WvSCqQXHIvDd4T5PSf-1" vertex="1">
          <mxGeometry x="1360" y="250" width="150" height="40" as="geometry" />
        </mxCell>
        <mxCell id="Hw_KgPpB4QYiONWsCU38-2" value="dispatch" style="html=1;verticalAlign=bottom;startArrow=circle;startFill=1;endArrow=open;startSize=6;endSize=8;entryX=0;entryY=0;entryDx=150;entryDy=30;entryPerimeter=0;" parent="u3WvSCqQXHIvDd4T5PSf-1" source="E8txtuMMnRt0bNP4_hQp-3" target="Hw_KgPpB4QYiONWsCU38-0" edge="1">
          <mxGeometry width="80" relative="1" as="geometry">
            <mxPoint x="1680" y="180" as="sourcePoint" />
            <mxPoint x="1760" y="180" as="targetPoint" />
          </mxGeometry>
        </mxCell>
        <mxCell id="Hw_KgPpB4QYiONWsCU38-3" value="stvoriti niz karta" style="shape=note;whiteSpace=wrap;html=1;backgroundOutline=1;darkOpacity=0.05;" parent="u3WvSCqQXHIvDd4T5PSf-1" vertex="1">
          <mxGeometry x="1360" y="300" width="150" height="40" as="geometry" />
        </mxCell>
        <mxCell id="Hw_KgPpB4QYiONWsCU38-4" value="loop" style="shape=umlFrame;whiteSpace=wrap;html=1;" parent="u3WvSCqQXHIvDd4T5PSf-1" vertex="1">
          <mxGeometry x="1270" y="380" width="390" height="190" as="geometry" />
        </mxCell>
        <mxCell id="Hw_KgPpB4QYiONWsCU38-5" value="for i in kreirane karte" style="text;html=1;align=center;verticalAlign=middle;resizable=0;points=[];autosize=1;" parent="u3WvSCqQXHIvDd4T5PSf-1" vertex="1">
          <mxGeometry x="1270" y="410" width="120" height="20" as="geometry" />
        </mxCell>
        <mxCell id="Hw_KgPpB4QYiONWsCU38-6" value="loop" style="shape=umlFrame;whiteSpace=wrap;html=1;" parent="u3WvSCqQXHIvDd4T5PSf-1" vertex="1">
          <mxGeometry x="1310" y="440" width="300" height="120" as="geometry" />
        </mxCell>
        <mxCell id="Hw_KgPpB4QYiONWsCU38-7" value="for j in bojekarta" style="text;html=1;align=center;verticalAlign=middle;resizable=0;points=[];autosize=1;" parent="u3WvSCqQXHIvDd4T5PSf-1" vertex="1">
          <mxGeometry x="1350" y="475" width="100" height="20" as="geometry" />
        </mxCell>
        <mxCell id="Hw_KgPpB4QYiONWsCU38-8" value="ObicneKarte" style="shape=umlLifeline;perimeter=lifelinePerimeter;whiteSpace=wrap;html=1;container=1;collapsible=0;recursiveResize=0;outlineConnect=0;" parent="u3WvSCqQXHIvDd4T5PSf-1" vertex="1">
          <mxGeometry x="1968" y="30" width="100" height="890" as="geometry" />
        </mxCell>
        <mxCell id="Hw_KgPpB4QYiONWsCU38-9" value="" style="html=1;points=[];perimeter=orthogonalPerimeter;" parent="Hw_KgPpB4QYiONWsCU38-8" vertex="1">
          <mxGeometry x="45" y="80" width="10" height="430" as="geometry" />
        </mxCell>
        <mxCell id="Hw_KgPpB4QYiONWsCU38-10" value="" style="html=1;points=[];perimeter=orthogonalPerimeter;" parent="u3WvSCqQXHIvDd4T5PSf-1" vertex="1">
          <mxGeometry x="1335" y="490" width="10" height="40" as="geometry" />
        </mxCell>
        <mxCell id="Hw_KgPpB4QYiONWsCU38-11" value="nova=ObicneKarte() __init__" style="html=1;verticalAlign=bottom;startArrow=oval;startFill=1;endArrow=block;startSize=8;exitX=0;exitY=0.7;exitDx=0;exitDy=0;exitPerimeter=0;entryX=-0.3;entryY=0.949;entryDx=0;entryDy=0;entryPerimeter=0;" parent="u3WvSCqQXHIvDd4T5PSf-1" source="Hw_KgPpB4QYiONWsCU38-10" target="Hw_KgPpB4QYiONWsCU38-9" edge="1">
          <mxGeometry x="-0.7185" width="60" relative="1" as="geometry">
            <mxPoint x="1530" y="370" as="sourcePoint" />
            <mxPoint x="1590" y="370" as="targetPoint" />
            <Array as="points" />
            <mxPoint as="offset" />
          </mxGeometry>
        </mxCell>
        <mxCell id="Hw_KgPpB4QYiONWsCU38-12" value="dodajemo novu u niz_karta" style="shape=note;whiteSpace=wrap;html=1;backgroundOutline=1;darkOpacity=0.05;" parent="u3WvSCqQXHIvDd4T5PSf-1" vertex="1">
          <mxGeometry x="1380" y="520" width="140" height="30" as="geometry" />
        </mxCell>
        <mxCell id="Hw_KgPpB4QYiONWsCU38-13" value="loop" style="shape=umlFrame;whiteSpace=wrap;html=1;" parent="u3WvSCqQXHIvDd4T5PSf-1" vertex="1">
          <mxGeometry x="1250" y="585" width="410" height="355" as="geometry" />
        </mxCell>
        <mxCell id="Hw_KgPpB4QYiONWsCU38-14" value="for i in range 2" style="text;html=1;align=center;verticalAlign=middle;resizable=0;points=[];autosize=1;" parent="u3WvSCqQXHIvDd4T5PSf-1" vertex="1">
          <mxGeometry x="1245" y="620" width="90" height="20" as="geometry" />
        </mxCell>
        <mxCell id="Hw_KgPpB4QYiONWsCU38-15" value="" style="html=1;points=[];perimeter=orthogonalPerimeter;" parent="u3WvSCqQXHIvDd4T5PSf-1" vertex="1">
          <mxGeometry x="1335" y="650" width="10" height="40" as="geometry" />
        </mxCell>
        <mxCell id="Hw_KgPpB4QYiONWsCU38-16" value="promjenaboje=PromjenaBoje() __init__" style="html=1;verticalAlign=bottom;startArrow=oval;startFill=1;endArrow=block;startSize=8;exitX=0;exitY=0.7;exitDx=0;exitDy=0;exitPerimeter=0;" parent="u3WvSCqQXHIvDd4T5PSf-1" target="Hw_KgPpB4QYiONWsCU38-28" edge="1">
          <mxGeometry x="-0.6" y="10" width="60" relative="1" as="geometry">
            <mxPoint x="1345" y="669.5" as="sourcePoint" />
            <mxPoint x="2020" y="669.5699999999999" as="targetPoint" />
            <Array as="points" />
            <mxPoint as="offset" />
          </mxGeometry>
        </mxCell>
        <mxCell id="Hw_KgPpB4QYiONWsCU38-18" value="plus4=PlusCetiri() __init__" style="html=1;verticalAlign=bottom;startArrow=oval;startFill=1;endArrow=block;startSize=8;exitX=0;exitY=0.7;exitDx=0;exitDy=0;exitPerimeter=0;" parent="u3WvSCqQXHIvDd4T5PSf-1" target="Hw_KgPpB4QYiONWsCU38-30" edge="1">
          <mxGeometry x="-0.6" y="10" width="60" relative="1" as="geometry">
            <mxPoint x="1345" y="700" as="sourcePoint" />
            <mxPoint x="2020" y="700.0699999999999" as="targetPoint" />
            <Array as="points" />
            <mxPoint as="offset" />
          </mxGeometry>
        </mxCell>
        <mxCell id="Hw_KgPpB4QYiONWsCU38-19" value="u niz karta dodajemo plus4" style="shape=note;whiteSpace=wrap;html=1;backgroundOutline=1;darkOpacity=0.05;" parent="u3WvSCqQXHIvDd4T5PSf-1" vertex="1">
          <mxGeometry x="1420" y="710" width="140" height="30" as="geometry" />
        </mxCell>
        <mxCell id="Hw_KgPpB4QYiONWsCU38-20" value="loop" style="shape=umlFrame;whiteSpace=wrap;html=1;" parent="u3WvSCqQXHIvDd4T5PSf-1" vertex="1">
          <mxGeometry x="1270" y="760" width="300" height="150" as="geometry" />
        </mxCell>
        <mxCell id="Hw_KgPpB4QYiONWsCU38-21" value="for j in range (2)" style="text;html=1;align=center;verticalAlign=middle;resizable=0;points=[];autosize=1;" parent="u3WvSCqQXHIvDd4T5PSf-1" vertex="1">
          <mxGeometry x="1345" y="770" width="100" height="20" as="geometry" />
        </mxCell>
        <mxCell id="Hw_KgPpB4QYiONWsCU38-22" value="" style="html=1;points=[];perimeter=orthogonalPerimeter;" parent="u3WvSCqQXHIvDd4T5PSf-1" vertex="1">
          <mxGeometry x="1335" y="790" width="10" height="30" as="geometry" />
        </mxCell>
        <mxCell id="Hw_KgPpB4QYiONWsCU38-23" value="" style="html=1;points=[];perimeter=orthogonalPerimeter;" parent="u3WvSCqQXHIvDd4T5PSf-1" vertex="1">
          <mxGeometry x="1335" y="820" width="10" height="30" as="geometry" />
        </mxCell>
        <mxCell id="Hw_KgPpB4QYiONWsCU38-24" value="plus2=PlusDva(j) __init__" style="html=1;verticalAlign=bottom;startArrow=oval;startFill=1;endArrow=block;startSize=8;" parent="u3WvSCqQXHIvDd4T5PSf-1" target="Hw_KgPpB4QYiONWsCU38-32" edge="1">
          <mxGeometry x="-0.7585" width="60" relative="1" as="geometry">
            <mxPoint x="1340" y="820" as="sourcePoint" />
            <mxPoint x="2010" y="820.0699999999999" as="targetPoint" />
            <Array as="points" />
            <mxPoint as="offset" />
          </mxGeometry>
        </mxCell>
        <mxCell id="Hw_KgPpB4QYiONWsCU38-25" value="skip=Skip(j) __init__" style="html=1;verticalAlign=bottom;startArrow=oval;startFill=1;endArrow=block;startSize=8;exitX=0.5;exitY=0.667;exitDx=0;exitDy=0;exitPerimeter=0;" parent="u3WvSCqQXHIvDd4T5PSf-1" source="Hw_KgPpB4QYiONWsCU38-23" target="Hw_KgPpB4QYiONWsCU38-35" edge="1">
          <mxGeometry x="-0.8656" width="60" relative="1" as="geometry">
            <mxPoint x="1345" y="840" as="sourcePoint" />
            <mxPoint x="2020" y="840.0699999999999" as="targetPoint" />
            <Array as="points" />
            <mxPoint as="offset" />
          </mxGeometry>
        </mxCell>
        <mxCell id="Hw_KgPpB4QYiONWsCU38-26" value="u niz karta dodajemo plus2 i skip" style="shape=note;whiteSpace=wrap;html=1;backgroundOutline=1;darkOpacity=0.05;" parent="u3WvSCqQXHIvDd4T5PSf-1" vertex="1">
          <mxGeometry x="1360" y="870" width="140" height="30" as="geometry" />
        </mxCell>
        <mxCell id="Hw_KgPpB4QYiONWsCU38-28" value="PromjenaBoje" style="shape=umlLifeline;perimeter=lifelinePerimeter;whiteSpace=wrap;html=1;container=1;collapsible=0;recursiveResize=0;outlineConnect=0;" parent="u3WvSCqQXHIvDd4T5PSf-1" vertex="1">
          <mxGeometry x="2120" y="30" width="100" height="890" as="geometry" />
        </mxCell>
        <mxCell id="Hw_KgPpB4QYiONWsCU38-29" value="" style="html=1;points=[];perimeter=orthogonalPerimeter;" parent="Hw_KgPpB4QYiONWsCU38-28" vertex="1">
          <mxGeometry x="45" y="80" width="10" height="650" as="geometry" />
        </mxCell>
        <mxCell id="Hw_KgPpB4QYiONWsCU38-30" value="PlusCetiri" style="shape=umlLifeline;perimeter=lifelinePerimeter;whiteSpace=wrap;html=1;container=1;collapsible=0;recursiveResize=0;outlineConnect=0;" parent="u3WvSCqQXHIvDd4T5PSf-1" vertex="1">
          <mxGeometry x="2280" y="30" width="100" height="890" as="geometry" />
        </mxCell>
        <mxCell id="Hw_KgPpB4QYiONWsCU38-31" value="" style="html=1;points=[];perimeter=orthogonalPerimeter;" parent="Hw_KgPpB4QYiONWsCU38-30" vertex="1">
          <mxGeometry x="45" y="80" width="10" height="650" as="geometry" />
        </mxCell>
        <mxCell id="Hw_KgPpB4QYiONWsCU38-32" value="PlusDva" style="shape=umlLifeline;perimeter=lifelinePerimeter;whiteSpace=wrap;html=1;container=1;collapsible=0;recursiveResize=0;outlineConnect=0;" parent="u3WvSCqQXHIvDd4T5PSf-1" vertex="1">
          <mxGeometry x="2450" y="30" width="100" height="890" as="geometry" />
        </mxCell>
        <mxCell id="Hw_KgPpB4QYiONWsCU38-33" value="" style="html=1;points=[];perimeter=orthogonalPerimeter;" parent="Hw_KgPpB4QYiONWsCU38-32" vertex="1">
          <mxGeometry x="45" y="80" width="10" height="740" as="geometry" />
        </mxCell>
        <mxCell id="Hw_KgPpB4QYiONWsCU38-35" value="Skip" style="shape=umlLifeline;perimeter=lifelinePerimeter;whiteSpace=wrap;html=1;container=1;collapsible=0;recursiveResize=0;outlineConnect=0;" parent="u3WvSCqQXHIvDd4T5PSf-1" vertex="1">
          <mxGeometry x="2630" y="30" width="100" height="960" as="geometry" />
        </mxCell>
        <mxCell id="Hw_KgPpB4QYiONWsCU38-36" value="" style="html=1;points=[];perimeter=orthogonalPerimeter;" parent="Hw_KgPpB4QYiONWsCU38-35" vertex="1">
          <mxGeometry x="45" y="80" width="10" height="740" as="geometry" />
        </mxCell>
        <mxCell id="Hw_KgPpB4QYiONWsCU38-39" value="" style="shape=umlFrame;whiteSpace=wrap;html=1;" parent="u3WvSCqQXHIvDd4T5PSf-1" vertex="1">
          <mxGeometry x="1220" y="1050" width="460" height="220" as="geometry" />
        </mxCell>
        <mxCell id="Hw_KgPpB4QYiONWsCU38-40" value="broj_karata=len(niz)" style="shape=note;whiteSpace=wrap;html=1;backgroundOutline=1;darkOpacity=0.05;" parent="u3WvSCqQXHIvDd4T5PSf-1" vertex="1">
          <mxGeometry x="1370" y="1060" width="190" height="30" as="geometry" />
        </mxCell>
        <mxCell id="Hw_KgPpB4QYiONWsCU38-41" value="loop" style="shape=umlFrame;whiteSpace=wrap;html=1;" parent="u3WvSCqQXHIvDd4T5PSf-1" vertex="1">
          <mxGeometry x="1280" y="1100" width="285" height="120" as="geometry" />
        </mxCell>
        <mxCell id="Hw_KgPpB4QYiONWsCU38-42" value="for i in range(brojkarata-1, 0 , -1):" style="text;html=1;align=center;verticalAlign=middle;resizable=0;points=[];autosize=1;" parent="u3WvSCqQXHIvDd4T5PSf-1" vertex="1">
          <mxGeometry x="1345" y="1110" width="190" height="20" as="geometry" />
        </mxCell>
        <mxCell id="Hw_KgPpB4QYiONWsCU38-44" value="slucajni_index=random()&lt;br&gt;zamjena" style="shape=note;whiteSpace=wrap;html=1;backgroundOutline=1;darkOpacity=0.05;" parent="u3WvSCqQXHIvDd4T5PSf-1" vertex="1">
          <mxGeometry x="1355" y="1145" width="190" height="55" as="geometry" />
        </mxCell>
        <mxCell id="Hw_KgPpB4QYiONWsCU38-45" value="return niz_karata" style="shape=note;whiteSpace=wrap;html=1;backgroundOutline=1;darkOpacity=0.05;" parent="u3WvSCqQXHIvDd4T5PSf-1" vertex="1">
          <mxGeometry x="1355" y="1230" width="190" height="30" as="geometry" />
        </mxCell>
        <mxCell id="Hw_KgPpB4QYiONWsCU38-46" value="return" style="html=1;verticalAlign=bottom;endArrow=open;dashed=1;endSize=8;exitX=0;exitY=0;exitDx=190;exitDy=30;exitPerimeter=0;" parent="u3WvSCqQXHIvDd4T5PSf-1" source="Hw_KgPpB4QYiONWsCU38-45" edge="1">
          <mxGeometry relative="1" as="geometry">
            <mxPoint x="1630" y="1000" as="sourcePoint" />
            <mxPoint x="1681" y="962" as="targetPoint" />
            <Array as="points">
              <mxPoint x="1770" y="1260" />
              <mxPoint x="1770" y="960" />
            </Array>
          </mxGeometry>
        </mxCell>
        <mxCell id="Hw_KgPpB4QYiONWsCU38-47" value="return niz_karata" style="shape=note;whiteSpace=wrap;html=1;backgroundOutline=1;darkOpacity=0.05;" parent="u3WvSCqQXHIvDd4T5PSf-1" vertex="1">
          <mxGeometry x="1375" y="980" width="190" height="30" as="geometry" />
        </mxCell>
        <mxCell id="Hw_KgPpB4QYiONWsCU38-48" value="return niz_karata" style="html=1;verticalAlign=bottom;startArrow=oval;startFill=1;endArrow=block;startSize=8;exitX=0;exitY=0.5;exitDx=0;exitDy=0;exitPerimeter=0;" parent="u3WvSCqQXHIvDd4T5PSf-1" source="Hw_KgPpB4QYiONWsCU38-47" target="wHfJqjgJgXn0gSJo_F5u-0" edge="1">
          <mxGeometry width="60" relative="1" as="geometry">
            <mxPoint x="1200" y="950" as="sourcePoint" />
            <mxPoint x="1260" y="950" as="targetPoint" />
          </mxGeometry>
        </mxCell>
      </root>
    </mxGraphModel>
  </diagram>
  <diagram id="LtXbouXY4iweARbJc9eV" name="novaIgra()">
    <mxGraphModel dx="1102" dy="614" grid="1" gridSize="10" guides="1" tooltips="1" connect="1" arrows="1" fold="1" page="1" pageScale="1" pageWidth="827" pageHeight="1169" math="0" shadow="0">
      <root>
        <mxCell id="x3RJ4SeCu0kvzpxRH7dg-0" />
        <mxCell id="x3RJ4SeCu0kvzpxRH7dg-1" parent="x3RJ4SeCu0kvzpxRH7dg-0" />
        <mxCell id="x3RJ4SeCu0kvzpxRH7dg-7" value="igra:Igra" style="shape=umlLifeline;perimeter=lifelinePerimeter;whiteSpace=wrap;html=1;container=1;collapsible=0;recursiveResize=0;outlineConnect=0;" parent="x3RJ4SeCu0kvzpxRH7dg-1" vertex="1">
          <mxGeometry x="750" y="40" width="100" height="890" as="geometry" />
        </mxCell>
        <mxCell id="x3RJ4SeCu0kvzpxRH7dg-8" value="" style="html=1;points=[];perimeter=orthogonalPerimeter;" parent="x3RJ4SeCu0kvzpxRH7dg-7" vertex="1">
          <mxGeometry x="45" y="85" width="10" height="555" as="geometry" />
        </mxCell>
        <mxCell id="AgX5gaR8Gjl_zDgE78YK-0" value="" style="html=1;points=[];perimeter=orthogonalPerimeter;" parent="x3RJ4SeCu0kvzpxRH7dg-7" vertex="1">
          <mxGeometry x="45" y="170" width="10" height="40" as="geometry" />
        </mxCell>
        <mxCell id="AgX5gaR8Gjl_zDgE78YK-1" value="1: novaIgra(igrac)" style="edgeStyle=orthogonalEdgeStyle;html=1;align=left;spacingLeft=2;endArrow=block;rounded=0;entryX=1;entryY=0;" parent="x3RJ4SeCu0kvzpxRH7dg-7" target="AgX5gaR8Gjl_zDgE78YK-0" edge="1">
          <mxGeometry relative="1" as="geometry">
            <mxPoint x="52" y="110" as="sourcePoint" />
            <Array as="points">
              <mxPoint x="77" y="110" />
            </Array>
          </mxGeometry>
        </mxCell>
        <mxCell id="RpJM5-ohG9PlLTLvSuD3-0" value="1.2: ruka=[]" style="html=1;verticalAlign=bottom;startArrow=oval;startFill=1;endArrow=block;startSize=8;" parent="x3RJ4SeCu0kvzpxRH7dg-7" target="x3RJ4SeCu0kvzpxRH7dg-13" edge="1">
          <mxGeometry width="60" relative="1" as="geometry">
            <mxPoint x="55" y="200" as="sourcePoint" />
            <mxPoint x="115" y="200" as="targetPoint" />
          </mxGeometry>
        </mxCell>
        <mxCell id="zdlBzbLUI3J8rDZSARj1-5" value="" style="html=1;points=[];perimeter=orthogonalPerimeter;" parent="x3RJ4SeCu0kvzpxRH7dg-7" vertex="1">
          <mxGeometry x="47" y="460" width="10" height="40" as="geometry" />
        </mxCell>
        <mxCell id="zdlBzbLUI3J8rDZSARj1-6" value="1.6: prvaKarta(karte)" style="edgeStyle=orthogonalEdgeStyle;html=1;align=left;spacingLeft=2;endArrow=block;rounded=0;entryX=1;entryY=0;" parent="x3RJ4SeCu0kvzpxRH7dg-7" target="zdlBzbLUI3J8rDZSARj1-5" edge="1">
          <mxGeometry relative="1" as="geometry">
            <mxPoint x="52" y="440" as="sourcePoint" />
            <Array as="points">
              <mxPoint x="77" y="440" />
            </Array>
          </mxGeometry>
        </mxCell>
        <mxCell id="zdlBzbLUI3J8rDZSARj1-8" value="" style="html=1;points=[];perimeter=orthogonalPerimeter;" parent="x3RJ4SeCu0kvzpxRH7dg-7" vertex="1">
          <mxGeometry x="47" y="550" width="10" height="40" as="geometry" />
        </mxCell>
        <mxCell id="zdlBzbLUI3J8rDZSARj1-9" value="1.7: prikaziStol(igrac)" style="edgeStyle=orthogonalEdgeStyle;html=1;align=left;spacingLeft=2;endArrow=block;rounded=0;entryX=1;entryY=0;" parent="x3RJ4SeCu0kvzpxRH7dg-7" target="zdlBzbLUI3J8rDZSARj1-8" edge="1">
          <mxGeometry relative="1" as="geometry">
            <mxPoint x="52" y="530" as="sourcePoint" />
            <Array as="points">
              <mxPoint x="77" y="530" />
            </Array>
          </mxGeometry>
        </mxCell>
        <mxCell id="x3RJ4SeCu0kvzpxRH7dg-12" value="igrac:Igrac" style="shape=umlLifeline;perimeter=lifelinePerimeter;whiteSpace=wrap;html=1;container=1;collapsible=0;recursiveResize=0;outlineConnect=0;" parent="x3RJ4SeCu0kvzpxRH7dg-1" vertex="1">
          <mxGeometry x="1141" y="30" width="100" height="890" as="geometry" />
        </mxCell>
        <mxCell id="x3RJ4SeCu0kvzpxRH7dg-13" value="" style="html=1;points=[];perimeter=orthogonalPerimeter;" parent="x3RJ4SeCu0kvzpxRH7dg-12" vertex="1">
          <mxGeometry x="45" y="70" width="10" height="430" as="geometry" />
        </mxCell>
        <mxCell id="x3RJ4SeCu0kvzpxRH7dg-14" value="kate:Karte" style="shape=umlLifeline;perimeter=lifelinePerimeter;whiteSpace=wrap;html=1;container=1;collapsible=0;recursiveResize=0;outlineConnect=0;" parent="x3RJ4SeCu0kvzpxRH7dg-1" vertex="1">
          <mxGeometry x="1760" y="30" width="100" height="890" as="geometry" />
        </mxCell>
        <mxCell id="x3RJ4SeCu0kvzpxRH7dg-15" value="" style="html=1;points=[];perimeter=orthogonalPerimeter;" parent="x3RJ4SeCu0kvzpxRH7dg-14" vertex="1">
          <mxGeometry x="45" y="80" width="10" height="430" as="geometry" />
        </mxCell>
        <mxCell id="x3RJ4SeCu0kvzpxRH7dg-26" value="robot:Robot" style="shape=umlLifeline;perimeter=lifelinePerimeter;whiteSpace=wrap;html=1;container=1;collapsible=0;recursiveResize=0;outlineConnect=0;" parent="x3RJ4SeCu0kvzpxRH7dg-1" vertex="1">
          <mxGeometry x="1490" y="30" width="100" height="890" as="geometry" />
        </mxCell>
        <mxCell id="x3RJ4SeCu0kvzpxRH7dg-27" value="" style="html=1;points=[];perimeter=orthogonalPerimeter;" parent="x3RJ4SeCu0kvzpxRH7dg-26" vertex="1">
          <mxGeometry x="45" y="70" width="10" height="430" as="geometry" />
        </mxCell>
        <mxCell id="zdlBzbLUI3J8rDZSARj1-2" value="1.3: ruka=[]" style="html=1;verticalAlign=bottom;startArrow=oval;startFill=1;endArrow=block;startSize=8;" parent="x3RJ4SeCu0kvzpxRH7dg-1" target="x3RJ4SeCu0kvzpxRH7dg-26" edge="1">
          <mxGeometry x="-0.4591" width="60" relative="1" as="geometry">
            <mxPoint x="800" y="280" as="sourcePoint" />
            <mxPoint x="1181" y="280" as="targetPoint" />
            <mxPoint as="offset" />
          </mxGeometry>
        </mxCell>
        <mxCell id="zdlBzbLUI3J8rDZSARj1-3" value="1.4: staviKarteuRuku()" style="html=1;verticalAlign=bottom;startArrow=oval;startFill=1;endArrow=block;startSize=8;" parent="x3RJ4SeCu0kvzpxRH7dg-1" source="x3RJ4SeCu0kvzpxRH7dg-12" target="x3RJ4SeCu0kvzpxRH7dg-15" edge="1">
          <mxGeometry x="-0.4809" width="60" relative="1" as="geometry">
            <mxPoint x="815" y="320" as="sourcePoint" />
            <mxPoint x="1196" y="320" as="targetPoint" />
            <Array as="points">
              <mxPoint x="1280" y="320" />
            </Array>
            <mxPoint x="1" as="offset" />
          </mxGeometry>
        </mxCell>
        <mxCell id="zdlBzbLUI3J8rDZSARj1-4" value="1.5: staviKarteuRuku()" style="html=1;verticalAlign=bottom;startArrow=oval;startFill=1;endArrow=block;startSize=8;" parent="x3RJ4SeCu0kvzpxRH7dg-1" target="x3RJ4SeCu0kvzpxRH7dg-15" edge="1">
          <mxGeometry width="60" relative="1" as="geometry">
            <mxPoint x="1540" y="340" as="sourcePoint" />
            <mxPoint x="1815" y="330" as="targetPoint" />
            <Array as="points">
              <mxPoint x="1540" y="340" />
            </Array>
          </mxGeometry>
        </mxCell>
      </root>
    </mxGraphModel>
  </diagram>
  <diagram id="UZDmEJe054s3SnKjjmH7" name="prvaKarta,prikaziStol">
    <mxGraphModel dx="1102" dy="614" grid="1" gridSize="10" guides="1" tooltips="1" connect="1" arrows="1" fold="1" page="1" pageScale="1" pageWidth="827" pageHeight="1169" math="0" shadow="0">
      <root>
        <mxCell id="N3djmgLdnPGeMeVQzKQJ-0" />
        <mxCell id="N3djmgLdnPGeMeVQzKQJ-1" parent="N3djmgLdnPGeMeVQzKQJ-0" />
        <mxCell id="1EjjTn6SPG5tyzbwvCo9-5" value="loop" style="shape=umlFrame;whiteSpace=wrap;html=1;" parent="N3djmgLdnPGeMeVQzKQJ-1" vertex="1">
          <mxGeometry x="520" y="839" width="1150" height="381" as="geometry" />
        </mxCell>
        <mxCell id="1EjjTn6SPG5tyzbwvCo9-10" value="&lt;p style=&quot;margin: 0px ; margin-top: 4px ; margin-left: 5px ; text-align: left&quot;&gt;&lt;b&gt;alt&lt;/b&gt;&lt;/p&gt;" style="html=1;shape=mxgraph.sysml.package;overflow=fill;labelX=95;align=left;spacingLeft=5;verticalAlign=top;spacingTop=-3;" parent="N3djmgLdnPGeMeVQzKQJ-1" vertex="1">
          <mxGeometry x="590" y="940" width="1030" height="220" as="geometry" />
        </mxCell>
        <mxCell id="_Wa1jeVp5Ru2ppA6XDH7-19" value="alt" style="shape=umlFrame;whiteSpace=wrap;html=1;" parent="N3djmgLdnPGeMeVQzKQJ-1" vertex="1">
          <mxGeometry x="720" y="500" width="390" height="240" as="geometry" />
        </mxCell>
        <mxCell id="_Wa1jeVp5Ru2ppA6XDH7-11" value="alt" style="shape=umlFrame;whiteSpace=wrap;html=1;" parent="N3djmgLdnPGeMeVQzKQJ-1" vertex="1">
          <mxGeometry x="870" y="300" width="260" height="120" as="geometry" />
        </mxCell>
        <mxCell id="_Wa1jeVp5Ru2ppA6XDH7-1" value="loop" style="shape=umlFrame;whiteSpace=wrap;html=1;" parent="N3djmgLdnPGeMeVQzKQJ-1" vertex="1">
          <mxGeometry x="680" y="170" width="730" height="260" as="geometry" />
        </mxCell>
        <mxCell id="N3djmgLdnPGeMeVQzKQJ-2" value="igra:Igra" style="shape=umlLifeline;perimeter=lifelinePerimeter;whiteSpace=wrap;html=1;container=1;collapsible=0;recursiveResize=0;outlineConnect=0;" parent="N3djmgLdnPGeMeVQzKQJ-1" vertex="1">
          <mxGeometry x="750" y="40" width="100" height="1370" as="geometry" />
        </mxCell>
        <mxCell id="N3djmgLdnPGeMeVQzKQJ-3" value="" style="html=1;points=[];perimeter=orthogonalPerimeter;" parent="N3djmgLdnPGeMeVQzKQJ-2" vertex="1">
          <mxGeometry x="45" y="85" width="10" height="1105" as="geometry" />
        </mxCell>
        <mxCell id="N3djmgLdnPGeMeVQzKQJ-4" value="" style="html=1;points=[];perimeter=orthogonalPerimeter;" parent="N3djmgLdnPGeMeVQzKQJ-2" vertex="1">
          <mxGeometry x="45" y="170" width="10" height="40" as="geometry" />
        </mxCell>
        <mxCell id="N3djmgLdnPGeMeVQzKQJ-5" value="1: prvaKarta(karte)" style="edgeStyle=orthogonalEdgeStyle;html=1;align=left;spacingLeft=2;endArrow=block;rounded=0;entryX=1;entryY=0;" parent="N3djmgLdnPGeMeVQzKQJ-2" target="N3djmgLdnPGeMeVQzKQJ-4" edge="1">
          <mxGeometry relative="1" as="geometry">
            <mxPoint x="52" y="110" as="sourcePoint" />
            <Array as="points">
              <mxPoint x="77" y="110" />
            </Array>
          </mxGeometry>
        </mxCell>
        <mxCell id="_Wa1jeVp5Ru2ppA6XDH7-8" value="" style="html=1;points=[];perimeter=orthogonalPerimeter;" parent="N3djmgLdnPGeMeVQzKQJ-2" vertex="1">
          <mxGeometry x="45" y="220" width="10" height="50" as="geometry" />
        </mxCell>
        <mxCell id="_Wa1jeVp5Ru2ppA6XDH7-17" value="" style="html=1;points=[];perimeter=orthogonalPerimeter;" parent="N3djmgLdnPGeMeVQzKQJ-2" vertex="1">
          <mxGeometry x="47" y="490" width="10" height="40" as="geometry" />
        </mxCell>
        <mxCell id="_Wa1jeVp5Ru2ppA6XDH7-18" value="4: prikaziStol(igrac)" style="edgeStyle=orthogonalEdgeStyle;html=1;align=left;spacingLeft=2;endArrow=block;rounded=0;entryX=1;entryY=0;" parent="N3djmgLdnPGeMeVQzKQJ-2" target="_Wa1jeVp5Ru2ppA6XDH7-17" edge="1">
          <mxGeometry relative="1" as="geometry">
            <mxPoint x="52" y="470" as="sourcePoint" />
            <Array as="points">
              <mxPoint x="77" y="470" />
            </Array>
          </mxGeometry>
        </mxCell>
        <mxCell id="_Wa1jeVp5Ru2ppA6XDH7-23" value="" style="html=1;points=[];perimeter=orthogonalPerimeter;" parent="N3djmgLdnPGeMeVQzKQJ-2" vertex="1">
          <mxGeometry x="45" y="640" width="10" height="40" as="geometry" />
        </mxCell>
        <mxCell id="1EjjTn6SPG5tyzbwvCo9-17" value="" style="html=1;points=[];perimeter=orthogonalPerimeter;" parent="N3djmgLdnPGeMeVQzKQJ-2" vertex="1">
          <mxGeometry x="45" y="990" width="10" height="20" as="geometry" />
        </mxCell>
        <mxCell id="1EjjTn6SPG5tyzbwvCo9-18" value="8.2: pobjednik=robot.korisnik:_ime()" style="html=1;verticalAlign=bottom;startArrow=oval;startFill=1;endArrow=block;startSize=8;entryX=0.9;entryY=0.798;entryDx=0;entryDy=0;entryPerimeter=0;" parent="N3djmgLdnPGeMeVQzKQJ-2" target="N3djmgLdnPGeMeVQzKQJ-16" edge="1">
          <mxGeometry x="-0.4297" y="-8" width="60" relative="1" as="geometry">
            <mxPoint x="50" y="1002" as="sourcePoint" />
            <mxPoint x="450" y="990" as="targetPoint" />
            <mxPoint as="offset" />
          </mxGeometry>
        </mxCell>
        <mxCell id="N3djmgLdnPGeMeVQzKQJ-11" value="igrac:Igrac" style="shape=umlLifeline;perimeter=lifelinePerimeter;whiteSpace=wrap;html=1;container=1;collapsible=0;recursiveResize=0;outlineConnect=0;" parent="N3djmgLdnPGeMeVQzKQJ-1" vertex="1">
          <mxGeometry x="1150" y="20" width="100" height="1360" as="geometry" />
        </mxCell>
        <mxCell id="N3djmgLdnPGeMeVQzKQJ-12" value="" style="html=1;points=[];perimeter=orthogonalPerimeter;" parent="N3djmgLdnPGeMeVQzKQJ-11" vertex="1">
          <mxGeometry x="45" y="70" width="10" height="1090" as="geometry" />
        </mxCell>
        <mxCell id="N3djmgLdnPGeMeVQzKQJ-13" value="kate:Karte" style="shape=umlLifeline;perimeter=lifelinePerimeter;whiteSpace=wrap;html=1;container=1;collapsible=0;recursiveResize=0;outlineConnect=0;" parent="N3djmgLdnPGeMeVQzKQJ-1" vertex="1">
          <mxGeometry x="1760" y="30" width="100" height="1350" as="geometry" />
        </mxCell>
        <mxCell id="N3djmgLdnPGeMeVQzKQJ-14" value="" style="html=1;points=[];perimeter=orthogonalPerimeter;" parent="N3djmgLdnPGeMeVQzKQJ-13" vertex="1">
          <mxGeometry x="45" y="80" width="10" height="910" as="geometry" />
        </mxCell>
        <mxCell id="N3djmgLdnPGeMeVQzKQJ-15" value="Robot" style="shape=umlLifeline;perimeter=lifelinePerimeter;whiteSpace=wrap;html=1;container=1;collapsible=0;recursiveResize=0;outlineConnect=0;" parent="N3djmgLdnPGeMeVQzKQJ-1" vertex="1">
          <mxGeometry x="1490" y="30" width="100" height="1350" as="geometry" />
        </mxCell>
        <mxCell id="N3djmgLdnPGeMeVQzKQJ-16" value="" style="html=1;points=[];perimeter=orthogonalPerimeter;" parent="N3djmgLdnPGeMeVQzKQJ-15" vertex="1">
          <mxGeometry x="45" y="70" width="10" height="1180" as="geometry" />
        </mxCell>
        <mxCell id="_Wa1jeVp5Ru2ppA6XDH7-2" value="[while True]" style="text;html=1;align=center;verticalAlign=middle;resizable=0;points=[];autosize=1;" parent="N3djmgLdnPGeMeVQzKQJ-1" vertex="1">
          <mxGeometry x="680" y="220" width="80" height="20" as="geometry" />
        </mxCell>
        <mxCell id="_Wa1jeVp5Ru2ppA6XDH7-3" value="1.1random_index=randinit(0,len(karte-1))" style="text;html=1;align=center;verticalAlign=middle;resizable=0;points=[];autosize=1;" parent="N3djmgLdnPGeMeVQzKQJ-1" vertex="1">
          <mxGeometry x="805" y="210" width="230" height="20" as="geometry" />
        </mxCell>
        <mxCell id="_Wa1jeVp5Ru2ppA6XDH7-4" value="Random" style="shape=umlLifeline;perimeter=lifelinePerimeter;whiteSpace=wrap;html=1;container=1;collapsible=0;recursiveResize=0;outlineConnect=0;" parent="N3djmgLdnPGeMeVQzKQJ-1" vertex="1">
          <mxGeometry x="1300" y="30" width="100" height="650" as="geometry" />
        </mxCell>
        <mxCell id="_Wa1jeVp5Ru2ppA6XDH7-5" value="" style="html=1;points=[];perimeter=orthogonalPerimeter;" parent="_Wa1jeVp5Ru2ppA6XDH7-4" vertex="1">
          <mxGeometry x="45" y="70" width="10" height="430" as="geometry" />
        </mxCell>
        <mxCell id="_Wa1jeVp5Ru2ppA6XDH7-6" value="" style="html=1;points=[];perimeter=orthogonalPerimeter;" parent="_Wa1jeVp5Ru2ppA6XDH7-4" vertex="1">
          <mxGeometry x="45" y="160" width="10" height="40" as="geometry" />
        </mxCell>
        <mxCell id="_Wa1jeVp5Ru2ppA6XDH7-7" value="return" style="html=1;verticalAlign=bottom;endArrow=open;dashed=1;endSize=8;exitX=0.1;exitY=0.675;exitDx=0;exitDy=0;exitPerimeter=0;" parent="N3djmgLdnPGeMeVQzKQJ-1" source="_Wa1jeVp5Ru2ppA6XDH7-6" target="_Wa1jeVp5Ru2ppA6XDH7-3" edge="1">
          <mxGeometry x="-0.3295" y="-8" relative="1" as="geometry">
            <mxPoint x="1110" y="229.5" as="sourcePoint" />
            <mxPoint x="1030" y="229.5" as="targetPoint" />
            <mxPoint as="offset" />
          </mxGeometry>
        </mxCell>
        <mxCell id="_Wa1jeVp5Ru2ppA6XDH7-9" value="1.2makniKartu=makniKartu(karte,random_index)" style="html=1;verticalAlign=bottom;endArrow=block;exitX=0.2;exitY=0.68;exitDx=0;exitDy=0;exitPerimeter=0;" parent="N3djmgLdnPGeMeVQzKQJ-1" source="_Wa1jeVp5Ru2ppA6XDH7-8" edge="1">
          <mxGeometry x="-0.3738" width="80" relative="1" as="geometry">
            <mxPoint x="1130" y="70" as="sourcePoint" />
            <mxPoint x="1190" y="294" as="targetPoint" />
            <Array as="points">
              <mxPoint x="1110" y="294" />
            </Array>
            <mxPoint as="offset" />
          </mxGeometry>
        </mxCell>
        <mxCell id="_Wa1jeVp5Ru2ppA6XDH7-10" value="break" style="shape=note;whiteSpace=wrap;html=1;backgroundOutline=1;darkOpacity=0.05;" parent="N3djmgLdnPGeMeVQzKQJ-1" vertex="1">
          <mxGeometry x="930" y="350" width="170" height="50" as="geometry" />
        </mxCell>
        <mxCell id="_Wa1jeVp5Ru2ppA6XDH7-12" value="1.3" style="text;html=1;align=center;verticalAlign=middle;resizable=0;points=[];autosize=1;" parent="N3djmgLdnPGeMeVQzKQJ-1" vertex="1">
          <mxGeometry x="840" y="310" width="30" height="20" as="geometry" />
        </mxCell>
        <mxCell id="_Wa1jeVp5Ru2ppA6XDH7-13" value="!=Specijalna" style="text;html=1;align=center;verticalAlign=middle;resizable=0;points=[];autosize=1;" parent="N3djmgLdnPGeMeVQzKQJ-1" vertex="1">
          <mxGeometry x="865" y="330" width="80" height="20" as="geometry" />
        </mxCell>
        <mxCell id="_Wa1jeVp5Ru2ppA6XDH7-15" value="2: karta_u_igri=makniKartu&lt;br&gt;3: karte.remove(makniKartu)" style="shape=note;whiteSpace=wrap;html=1;backgroundOutline=1;darkOpacity=0.05;" parent="N3djmgLdnPGeMeVQzKQJ-1" vertex="1">
          <mxGeometry x="910" y="440" width="170" height="50" as="geometry" />
        </mxCell>
        <mxCell id="_Wa1jeVp5Ru2ppA6XDH7-16" value="" style="endArrow=block;endFill=1;endSize=6;html=1;" parent="N3djmgLdnPGeMeVQzKQJ-1" target="N3djmgLdnPGeMeVQzKQJ-13" edge="1">
          <mxGeometry width="100" relative="1" as="geometry">
            <mxPoint x="800" y="490" as="sourcePoint" />
            <mxPoint x="900" y="490" as="targetPoint" />
          </mxGeometry>
        </mxCell>
        <mxCell id="_Wa1jeVp5Ru2ppA6XDH7-20" value="4.1: ocistiEkran()" style="shape=note;whiteSpace=wrap;html=1;backgroundOutline=1;darkOpacity=0.05;" parent="N3djmgLdnPGeMeVQzKQJ-1" vertex="1">
          <mxGeometry x="850" y="560" width="170" height="50" as="geometry" />
        </mxCell>
        <mxCell id="_Wa1jeVp5Ru2ppA6XDH7-21" value="" style="html=1;points=[];perimeter=orthogonalPerimeter;" parent="N3djmgLdnPGeMeVQzKQJ-1" vertex="1">
          <mxGeometry x="795" y="630" width="10" height="40" as="geometry" />
        </mxCell>
        <mxCell id="_Wa1jeVp5Ru2ppA6XDH7-22" value="4.2: trenutna_karta()" style="edgeStyle=orthogonalEdgeStyle;html=1;align=left;spacingLeft=2;endArrow=block;rounded=0;entryX=1;entryY=0;" parent="N3djmgLdnPGeMeVQzKQJ-1" target="_Wa1jeVp5Ru2ppA6XDH7-21" edge="1">
          <mxGeometry relative="1" as="geometry">
            <mxPoint x="802" y="620" as="sourcePoint" />
            <Array as="points">
              <mxPoint x="827" y="620" />
            </Array>
          </mxGeometry>
        </mxCell>
        <mxCell id="_Wa1jeVp5Ru2ppA6XDH7-24" value="" style="endArrow=block;endFill=1;endSize=6;html=1;" parent="N3djmgLdnPGeMeVQzKQJ-1" source="_Wa1jeVp5Ru2ppA6XDH7-23" target="N3djmgLdnPGeMeVQzKQJ-11" edge="1">
          <mxGeometry width="100" relative="1" as="geometry">
            <mxPoint x="1230" y="570" as="sourcePoint" />
            <mxPoint x="1330" y="570" as="targetPoint" />
          </mxGeometry>
        </mxCell>
        <mxCell id="_Wa1jeVp5Ru2ppA6XDH7-25" value="4.3: pokaziRuku()" style="edgeLabel;html=1;align=center;verticalAlign=middle;resizable=0;points=[];" parent="_Wa1jeVp5Ru2ppA6XDH7-24" vertex="1" connectable="0">
          <mxGeometry x="-0.4068" y="-3" relative="1" as="geometry">
            <mxPoint x="74" y="-13" as="offset" />
          </mxGeometry>
        </mxCell>
        <mxCell id="1EjjTn6SPG5tyzbwvCo9-1" value="5: vracamo se u pocetak" style="shape=note;whiteSpace=wrap;html=1;backgroundOutline=1;darkOpacity=0.05;" parent="N3djmgLdnPGeMeVQzKQJ-1" vertex="1">
          <mxGeometry x="840" y="750" width="200" height="50" as="geometry" />
        </mxCell>
        <mxCell id="1EjjTn6SPG5tyzbwvCo9-2" value="" style="endArrow=block;endFill=1;endSize=6;html=1;entryX=0.1;entryY=0.667;entryDx=0;entryDy=0;entryPerimeter=0;" parent="N3djmgLdnPGeMeVQzKQJ-1" target="N3djmgLdnPGeMeVQzKQJ-12" edge="1">
          <mxGeometry width="100" relative="1" as="geometry">
            <mxPoint x="800" y="817" as="sourcePoint" />
            <mxPoint x="1189.5" y="820" as="targetPoint" />
            <Array as="points">
              <mxPoint x="870" y="817" />
              <mxPoint x="970" y="817" />
            </Array>
          </mxGeometry>
        </mxCell>
        <mxCell id="1EjjTn6SPG5tyzbwvCo9-3" value="6.odigrano++" style="edgeLabel;html=1;align=center;verticalAlign=middle;resizable=0;points=[];" parent="1EjjTn6SPG5tyzbwvCo9-2" vertex="1" connectable="0">
          <mxGeometry x="-0.4068" y="-3" relative="1" as="geometry">
            <mxPoint x="74" y="-13" as="offset" />
          </mxGeometry>
        </mxCell>
        <mxCell id="1EjjTn6SPG5tyzbwvCo9-6" value="[while True]" style="text;html=1;align=center;verticalAlign=middle;resizable=0;points=[];autosize=1;" parent="N3djmgLdnPGeMeVQzKQJ-1" vertex="1">
          <mxGeometry x="600" y="880" width="80" height="20" as="geometry" />
        </mxCell>
        <mxCell id="1EjjTn6SPG5tyzbwvCo9-7" value="" style="html=1;points=[];perimeter=orthogonalPerimeter;" parent="N3djmgLdnPGeMeVQzKQJ-1" vertex="1">
          <mxGeometry x="795" y="870" width="10" height="40" as="geometry" />
        </mxCell>
        <mxCell id="1EjjTn6SPG5tyzbwvCo9-8" value="7.kontra=Igraj(igrac,kontra)" style="html=1;verticalAlign=bottom;startArrow=oval;startFill=1;endArrow=block;startSize=8;exitX=0.2;exitY=0.7;exitDx=0;exitDy=0;exitPerimeter=0;" parent="N3djmgLdnPGeMeVQzKQJ-1" source="1EjjTn6SPG5tyzbwvCo9-7" edge="1">
          <mxGeometry width="60" relative="1" as="geometry">
            <mxPoint x="970" y="870" as="sourcePoint" />
            <mxPoint x="1200" y="897" as="targetPoint" />
          </mxGeometry>
        </mxCell>
        <mxCell id="1EjjTn6SPG5tyzbwvCo9-11" value="break" style="shape=note;whiteSpace=wrap;html=1;backgroundOutline=1;darkOpacity=0.05;" parent="N3djmgLdnPGeMeVQzKQJ-1" vertex="1">
          <mxGeometry x="920" y="950" width="87.5" height="25" as="geometry" />
        </mxCell>
        <mxCell id="1EjjTn6SPG5tyzbwvCo9-14" value="if kontra==None" style="text;html=1;align=center;verticalAlign=middle;resizable=0;points=[];autosize=1;" parent="N3djmgLdnPGeMeVQzKQJ-1" vertex="1">
          <mxGeometry x="605" y="960" width="100" height="20" as="geometry" />
        </mxCell>
        <mxCell id="1EjjTn6SPG5tyzbwvCo9-16" value="" style="endArrow=none;dashed=1;html=1;entryX=1;entryY=0.394;entryDx=0;entryDy=0;entryPerimeter=0;exitX=-0.003;exitY=0.385;exitDx=0;exitDy=0;exitPerimeter=0;" parent="N3djmgLdnPGeMeVQzKQJ-1" source="1EjjTn6SPG5tyzbwvCo9-10" target="1EjjTn6SPG5tyzbwvCo9-10" edge="1">
          <mxGeometry width="50" height="50" relative="1" as="geometry">
            <mxPoint x="730" y="1009" as="sourcePoint" />
            <mxPoint x="840" y="990" as="targetPoint" />
          </mxGeometry>
        </mxCell>
        <mxCell id="1EjjTn6SPG5tyzbwvCo9-21" value="if len(robot.ruka) &amp;lt; 1:" style="text;html=1;align=center;verticalAlign=middle;resizable=0;points=[];autosize=1;" parent="N3djmgLdnPGeMeVQzKQJ-1" vertex="1">
          <mxGeometry x="590" y="1020" width="130" height="20" as="geometry" />
        </mxCell>
        <mxCell id="1EjjTn6SPG5tyzbwvCo9-22" value="8" style="text;html=1;align=center;verticalAlign=middle;resizable=0;points=[];autosize=1;" parent="N3djmgLdnPGeMeVQzKQJ-1" vertex="1">
          <mxGeometry x="570" y="930" width="20" height="20" as="geometry" />
        </mxCell>
        <mxCell id="1EjjTn6SPG5tyzbwvCo9-24" value="8.1:&amp;nbsp;" style="text;html=1;align=center;verticalAlign=middle;resizable=0;points=[];autosize=1;" parent="N3djmgLdnPGeMeVQzKQJ-1" vertex="1">
          <mxGeometry x="880" y="952.5" width="40" height="20" as="geometry" />
        </mxCell>
        <mxCell id="1EjjTn6SPG5tyzbwvCo9-27" value="" style="endArrow=block;endFill=1;endSize=6;html=1;" parent="N3djmgLdnPGeMeVQzKQJ-1" edge="1">
          <mxGeometry width="100" relative="1" as="geometry">
            <mxPoint x="802" y="1070" as="sourcePoint" />
            <mxPoint x="1198" y="1070" as="targetPoint" />
            <Array as="points">
              <mxPoint x="872" y="1070" />
              <mxPoint x="972" y="1070" />
            </Array>
          </mxGeometry>
        </mxCell>
        <mxCell id="1EjjTn6SPG5tyzbwvCo9-28" value="&lt;span style=&quot;color: rgba(0 , 0 , 0 , 0) ; font-family: monospace ; font-size: 0px ; background-color: rgb(248 , 249 , 250)&quot;&gt;%3CmxGraphModel%3E%3Croot%3E%3CmxCell%20id%3D%220%22%2F%3E%3CmxCell%20id%3D%221%22%20parent%3D%220%22%2F%3E%3CmxCell%20id%3D%222%22%20value%3D%22%22%20style%3D%22endArrow%3Dblock%3BendFill%3D1%3BendSize%3D6%3Bhtml%3D1%3BentryX%3D0.1%3BentryY%3D0.667%3BentryDx%3D0%3BentryDy%3D0%3BentryPerimeter%3D0%3B%22%20edge%3D%221%22%20parent%3D%221%22%3E%3CmxGeometry%20width%3D%22100%22%20relative%3D%221%22%20as%3D%22geometry%22%3E%3CmxPoint%20x%3D%22800%22%20y%3D%22817%22%20as%3D%22sourcePoint%22%2F%3E%3CmxPoint%20x%3D%221196%22%20y%3D%22817.0300000000002%22%20as%3D%22targetPoint%22%2F%3E%3CArray%20as%3D%22points%22%3E%3CmxPoint%20x%3D%22870%22%20y%3D%22817%22%2F%3E%3CmxPoint%20x%3D%22970%22%20y%3D%22817%22%2F%3E%3C%2FArray%3E%3C%2FmxGeometry%3E%3C%2FmxCell%3E%3CmxCell%20id%3D%223%22%20value%3D%226.odigrano%2B%2B%22%20style%3D%22edgeLabel%3Bhtml%3D1%3Balign%3Dcenter%3BverticalAlign%3Dmiddle%3Bresizable%3D0%3Bpoints%3D%5B%5D%3B%22%20vertex%3D%221%22%20connectable%3D%220%22%20parent%3D%222%22%3E%3CmxGeometry%20x%3D%22-0.4068%22%20y%3D%22-3%22%20relative%3D%221%22%20as%3D%22geometry%22%3E%3CmxPoint%20x%3D%2274%22%20y%3D%22-13%22%20as%3D%22offset%22%2F%3E%3C%2FmxGeometry%3E%3C%2FmxCell%3E%3C%2Froot%3E%3C%2FmxGraphModel%3Eizgubljeno&lt;/span&gt;" style="edgeLabel;html=1;align=center;verticalAlign=middle;resizable=0;points=[];" parent="1EjjTn6SPG5tyzbwvCo9-27" vertex="1" connectable="0">
          <mxGeometry x="-0.4068" y="-3" relative="1" as="geometry">
            <mxPoint x="74" y="-13" as="offset" />
          </mxGeometry>
        </mxCell>
        <mxCell id="1EjjTn6SPG5tyzbwvCo9-29" value="8.3: izgubljeno++" style="edgeLabel;html=1;align=center;verticalAlign=middle;resizable=0;points=[];" parent="1EjjTn6SPG5tyzbwvCo9-27" vertex="1" connectable="0">
          <mxGeometry x="0.0707" y="3" relative="1" as="geometry">
            <mxPoint as="offset" />
          </mxGeometry>
        </mxCell>
        <mxCell id="1EjjTn6SPG5tyzbwvCo9-30" value="" style="endArrow=none;dashed=1;html=1;entryX=1;entryY=0.394;entryDx=0;entryDy=0;entryPerimeter=0;exitX=-0.003;exitY=0.385;exitDx=0;exitDy=0;exitPerimeter=0;" parent="N3djmgLdnPGeMeVQzKQJ-1" edge="1">
          <mxGeometry width="50" height="50" relative="1" as="geometry">
            <mxPoint x="588.46" y="1080" as="sourcePoint" />
            <mxPoint x="1621.55" y="1081.8" as="targetPoint" />
          </mxGeometry>
        </mxCell>
        <mxCell id="1EjjTn6SPG5tyzbwvCo9-31" value="elif len(igrac.ruka) &amp;lt; 1:" style="text;html=1;align=center;verticalAlign=middle;resizable=0;points=[];autosize=1;" parent="N3djmgLdnPGeMeVQzKQJ-1" vertex="1">
          <mxGeometry x="590" y="1090" width="130" height="20" as="geometry" />
        </mxCell>
        <mxCell id="1EjjTn6SPG5tyzbwvCo9-32" value="" style="endArrow=block;endFill=1;endSize=6;html=1;" parent="N3djmgLdnPGeMeVQzKQJ-1" edge="1">
          <mxGeometry width="100" relative="1" as="geometry">
            <mxPoint x="800" y="1100" as="sourcePoint" />
            <mxPoint x="1196" y="1100" as="targetPoint" />
            <Array as="points">
              <mxPoint x="870" y="1100" />
              <mxPoint x="970" y="1100" />
            </Array>
          </mxGeometry>
        </mxCell>
        <mxCell id="1EjjTn6SPG5tyzbwvCo9-33" value="&lt;span style=&quot;color: rgba(0 , 0 , 0 , 0) ; font-family: monospace ; font-size: 0px ; background-color: rgb(248 , 249 , 250)&quot;&gt;%3CmxGraphModel%3E%3Croot%3E%3CmxCell%20id%3D%220%22%2F%3E%3CmxCell%20id%3D%221%22%20parent%3D%220%22%2F%3E%3CmxCell%20id%3D%222%22%20value%3D%22%22%20style%3D%22endArrow%3Dblock%3BendFill%3D1%3BendSize%3D6%3Bhtml%3D1%3BentryX%3D0.1%3BentryY%3D0.667%3BentryDx%3D0%3BentryDy%3D0%3BentryPerimeter%3D0%3B%22%20edge%3D%221%22%20parent%3D%221%22%3E%3CmxGeometry%20width%3D%22100%22%20relative%3D%221%22%20as%3D%22geometry%22%3E%3CmxPoint%20x%3D%22800%22%20y%3D%22817%22%20as%3D%22sourcePoint%22%2F%3E%3CmxPoint%20x%3D%221196%22%20y%3D%22817.0300000000002%22%20as%3D%22targetPoint%22%2F%3E%3CArray%20as%3D%22points%22%3E%3CmxPoint%20x%3D%22870%22%20y%3D%22817%22%2F%3E%3CmxPoint%20x%3D%22970%22%20y%3D%22817%22%2F%3E%3C%2FArray%3E%3C%2FmxGeometry%3E%3C%2FmxCell%3E%3CmxCell%20id%3D%223%22%20value%3D%226.odigrano%2B%2B%22%20style%3D%22edgeLabel%3Bhtml%3D1%3Balign%3Dcenter%3BverticalAlign%3Dmiddle%3Bresizable%3D0%3Bpoints%3D%5B%5D%3B%22%20vertex%3D%221%22%20connectable%3D%220%22%20parent%3D%222%22%3E%3CmxGeometry%20x%3D%22-0.4068%22%20y%3D%22-3%22%20relative%3D%221%22%20as%3D%22geometry%22%3E%3CmxPoint%20x%3D%2274%22%20y%3D%22-13%22%20as%3D%22offset%22%2F%3E%3C%2FmxGeometry%3E%3C%2FmxCell%3E%3C%2Froot%3E%3C%2FmxGraphModel%3Eizgubljeno&lt;/span&gt;" style="edgeLabel;html=1;align=center;verticalAlign=middle;resizable=0;points=[];" parent="1EjjTn6SPG5tyzbwvCo9-32" vertex="1" connectable="0">
          <mxGeometry x="-0.4068" y="-3" relative="1" as="geometry">
            <mxPoint x="74" y="-13" as="offset" />
          </mxGeometry>
        </mxCell>
        <mxCell id="1EjjTn6SPG5tyzbwvCo9-34" value="8.4: pobjednik=igrac.korisnik:_ime()" style="edgeLabel;html=1;align=center;verticalAlign=middle;resizable=0;points=[];" parent="1EjjTn6SPG5tyzbwvCo9-32" vertex="1" connectable="0">
          <mxGeometry x="0.0707" y="3" relative="1" as="geometry">
            <mxPoint as="offset" />
          </mxGeometry>
        </mxCell>
        <mxCell id="1EjjTn6SPG5tyzbwvCo9-35" value="" style="endArrow=block;endFill=1;endSize=6;html=1;" parent="N3djmgLdnPGeMeVQzKQJ-1" edge="1">
          <mxGeometry width="100" relative="1" as="geometry">
            <mxPoint x="800" y="1120" as="sourcePoint" />
            <mxPoint x="1196" y="1120" as="targetPoint" />
            <Array as="points">
              <mxPoint x="870" y="1120" />
              <mxPoint x="970" y="1120" />
            </Array>
          </mxGeometry>
        </mxCell>
        <mxCell id="1EjjTn6SPG5tyzbwvCo9-36" value="&lt;span style=&quot;color: rgba(0 , 0 , 0 , 0) ; font-family: monospace ; font-size: 0px ; background-color: rgb(248 , 249 , 250)&quot;&gt;%3CmxGraphModel%3E%3Croot%3E%3CmxCell%20id%3D%220%22%2F%3E%3CmxCell%20id%3D%221%22%20parent%3D%220%22%2F%3E%3CmxCell%20id%3D%222%22%20value%3D%22%22%20style%3D%22endArrow%3Dblock%3BendFill%3D1%3BendSize%3D6%3Bhtml%3D1%3BentryX%3D0.1%3BentryY%3D0.667%3BentryDx%3D0%3BentryDy%3D0%3BentryPerimeter%3D0%3B%22%20edge%3D%221%22%20parent%3D%221%22%3E%3CmxGeometry%20width%3D%22100%22%20relative%3D%221%22%20as%3D%22geometry%22%3E%3CmxPoint%20x%3D%22800%22%20y%3D%22817%22%20as%3D%22sourcePoint%22%2F%3E%3CmxPoint%20x%3D%221196%22%20y%3D%22817.0300000000002%22%20as%3D%22targetPoint%22%2F%3E%3CArray%20as%3D%22points%22%3E%3CmxPoint%20x%3D%22870%22%20y%3D%22817%22%2F%3E%3CmxPoint%20x%3D%22970%22%20y%3D%22817%22%2F%3E%3C%2FArray%3E%3C%2FmxGeometry%3E%3C%2FmxCell%3E%3CmxCell%20id%3D%223%22%20value%3D%226.odigrano%2B%2B%22%20style%3D%22edgeLabel%3Bhtml%3D1%3Balign%3Dcenter%3BverticalAlign%3Dmiddle%3Bresizable%3D0%3Bpoints%3D%5B%5D%3B%22%20vertex%3D%221%22%20connectable%3D%220%22%20parent%3D%222%22%3E%3CmxGeometry%20x%3D%22-0.4068%22%20y%3D%22-3%22%20relative%3D%221%22%20as%3D%22geometry%22%3E%3CmxPoint%20x%3D%2274%22%20y%3D%22-13%22%20as%3D%22offset%22%2F%3E%3C%2FmxGeometry%3E%3C%2FmxCell%3E%3C%2Froot%3E%3C%2FmxGraphModel%3Eizgubljeno&lt;/span&gt;" style="edgeLabel;html=1;align=center;verticalAlign=middle;resizable=0;points=[];" parent="1EjjTn6SPG5tyzbwvCo9-35" vertex="1" connectable="0">
          <mxGeometry x="-0.4068" y="-3" relative="1" as="geometry">
            <mxPoint x="74" y="-13" as="offset" />
          </mxGeometry>
        </mxCell>
        <mxCell id="1EjjTn6SPG5tyzbwvCo9-37" value="8.5: pobjede++" style="edgeLabel;html=1;align=center;verticalAlign=middle;resizable=0;points=[];" parent="1EjjTn6SPG5tyzbwvCo9-35" vertex="1" connectable="0">
          <mxGeometry x="0.0707" y="3" relative="1" as="geometry">
            <mxPoint as="offset" />
          </mxGeometry>
        </mxCell>
        <mxCell id="c3UvhU9o29T4w4c8PPPk-0" value="break" style="shape=note;whiteSpace=wrap;html=1;backgroundOutline=1;darkOpacity=0.05;" parent="N3djmgLdnPGeMeVQzKQJ-1" vertex="1">
          <mxGeometry x="970" y="1130" width="87.5" height="25" as="geometry" />
        </mxCell>
        <mxCell id="c3UvhU9o29T4w4c8PPPk-1" value="9 def pocetak kao vrijednosti vracabroj odigranih partija,pobjede i poraze" style="shape=note;whiteSpace=wrap;html=1;backgroundOutline=1;darkOpacity=0.05;" parent="N3djmgLdnPGeMeVQzKQJ-1" vertex="1">
          <mxGeometry x="890" y="1230" width="185" height="100" as="geometry" />
        </mxCell>
      </root>
    </mxGraphModel>
  </diagram>
  <diagram id="NEQ4OqQgFpI_bI2tfKod" name="Igraj">
    <mxGraphModel dx="1102" dy="614" grid="1" gridSize="10" guides="1" tooltips="1" connect="1" arrows="1" fold="1" page="1" pageScale="1" pageWidth="827" pageHeight="1169" math="0" shadow="0">
      <root>
        <mxCell id="yFCERkOrYSOBxyvOmOgx-0" />
        <mxCell id="yFCERkOrYSOBxyvOmOgx-1" parent="yFCERkOrYSOBxyvOmOgx-0" />
        <mxCell id="o350EeKxxwNTHT4QK-4L-38" value="&lt;p style=&quot;margin: 0px ; margin-top: 4px ; margin-left: 5px ; text-align: left&quot;&gt;loop&lt;/p&gt;" style="html=1;shape=mxgraph.sysml.package;overflow=fill;labelX=95;align=left;spacingLeft=5;verticalAlign=top;spacingTop=-3;" parent="yFCERkOrYSOBxyvOmOgx-1" vertex="1">
          <mxGeometry x="660" y="1440" width="1225" height="790" as="geometry" />
        </mxCell>
        <mxCell id="JyDn2UTzz_3FD9HkTbJm-22" value="alt&lt;br&gt;&lt;br&gt;&lt;span style=&quot;color: rgb(0 , 0 , 0) ; font-family: &amp;#34;helvetica&amp;#34; ; font-size: 12px ; font-style: normal ; font-weight: 400 ; letter-spacing: normal ; text-align: center ; text-indent: 0px ; text-transform: none ; word-spacing: 0px ; background-color: rgb(248 , 249 , 250) ; display: inline ; float: none&quot;&gt;if&amp;nbsp;zadnja_karta.vrsta == &quot;Specijalna&quot;:&lt;/span&gt;" style="html=1;shape=mxgraph.sysml.package;overflow=fill;labelX=95;align=left;spacingLeft=5;verticalAlign=top;spacingTop=-3;" parent="yFCERkOrYSOBxyvOmOgx-1" vertex="1">
          <mxGeometry x="730" y="1900" width="910" height="250" as="geometry" />
        </mxCell>
        <mxCell id="JyDn2UTzz_3FD9HkTbJm-6" value="alt&lt;br&gt;&lt;br&gt;&lt;span style=&quot;color: rgb(0 , 0 , 0) ; font-family: &amp;#34;helvetica&amp;#34; ; font-size: 12px ; font-style: normal ; font-weight: 400 ; letter-spacing: normal ; text-align: center ; text-indent: 0px ; text-transform: none ; word-spacing: 0px ; background-color: rgb(248 , 249 , 250) ; display: inline ; float: none&quot;&gt;if&amp;nbsp;robot_igra == 0:&lt;/span&gt;" style="html=1;shape=mxgraph.sysml.package;overflow=fill;labelX=95;align=left;spacingLeft=5;verticalAlign=top;spacingTop=-3;" parent="yFCERkOrYSOBxyvOmOgx-1" vertex="1">
          <mxGeometry x="720" y="1560" width="920" height="300" as="geometry" />
        </mxCell>
        <mxCell id="o350EeKxxwNTHT4QK-4L-35" value="alt&lt;br&gt;&lt;br&gt;&lt;span style=&quot;color: rgb(0 , 0 , 0) ; font-family: &amp;#34;helvetica&amp;#34; ; font-size: 12px ; font-style: normal ; font-weight: 400 ; letter-spacing: normal ; text-align: center ; text-indent: 0px ; text-transform: none ; word-spacing: 0px ; background-color: rgb(248 , 249 , 250) ; display: inline ; float: none&quot;&gt;if len(igrac.ruka) &amp;lt; 1&lt;/span&gt;" style="html=1;shape=mxgraph.sysml.package;overflow=fill;labelX=95;align=left;spacingLeft=5;verticalAlign=top;spacingTop=-3;" parent="yFCERkOrYSOBxyvOmOgx-1" vertex="1">
          <mxGeometry x="670" y="1210" width="650" height="160" as="geometry" />
        </mxCell>
        <mxCell id="ZtLf-gSPTJDiubsPKjg6-0" value="&lt;p style=&quot;margin: 0px ; margin-top: 4px ; margin-left: 5px ; text-align: left&quot;&gt;loop&lt;/p&gt;" style="html=1;shape=mxgraph.sysml.package;overflow=fill;labelX=95;align=left;spacingLeft=5;verticalAlign=top;spacingTop=-3;" parent="yFCERkOrYSOBxyvOmOgx-1" vertex="1">
          <mxGeometry x="637.5" y="175" width="1255" height="945" as="geometry" />
        </mxCell>
        <mxCell id="o350EeKxxwNTHT4QK-4L-15" value="alt" style="shape=umlFrame;whiteSpace=wrap;html=1;" parent="yFCERkOrYSOBxyvOmOgx-1" vertex="1">
          <mxGeometry x="675" y="690" width="1180" height="380" as="geometry" />
        </mxCell>
        <mxCell id="o350EeKxxwNTHT4QK-4L-23" value="alt&lt;br&gt;&lt;br&gt;&lt;span style=&quot;color: rgb(0 , 0 , 0) ; font-family: &amp;#34;helvetica&amp;#34; ; font-size: 12px ; font-style: normal ; font-weight: 400 ; letter-spacing: normal ; text-align: center ; text-indent: 0px ; text-transform: none ; word-spacing: 0px ; background-color: rgb(248 , 249 , 250) ; display: inline ; float: none&quot;&gt;if kontra=0&amp;nbsp;&lt;/span&gt;" style="html=1;shape=mxgraph.sysml.package;overflow=fill;labelX=95;align=left;spacingLeft=5;verticalAlign=top;spacingTop=-3;" parent="yFCERkOrYSOBxyvOmOgx-1" vertex="1">
          <mxGeometry x="827" y="780" width="350" height="90" as="geometry" />
        </mxCell>
        <mxCell id="ccGs-BxWXqz6Kefb29Rs-1" value="alt" style="shape=umlFrame;whiteSpace=wrap;html=1;" parent="yFCERkOrYSOBxyvOmOgx-1" vertex="1">
          <mxGeometry x="690" y="280" width="1180" height="380" as="geometry" />
        </mxCell>
        <mxCell id="ccGs-BxWXqz6Kefb29Rs-12" value="&lt;p style=&quot;margin: 0px ; margin-top: 4px ; margin-left: 5px ; text-align: left&quot;&gt;&lt;b&gt;alt&lt;/b&gt;&lt;/p&gt;" style="html=1;shape=mxgraph.sysml.package;overflow=fill;labelX=95;align=left;spacingLeft=5;verticalAlign=top;spacingTop=-3;" parent="yFCERkOrYSOBxyvOmOgx-1" vertex="1">
          <mxGeometry x="827" y="370" width="350" height="90" as="geometry" />
        </mxCell>
        <mxCell id="U1RE93i2s7QmfoyBK4RX-0" value="igra:Igra" style="shape=umlLifeline;perimeter=lifelinePerimeter;whiteSpace=wrap;html=1;container=1;collapsible=0;recursiveResize=0;outlineConnect=0;" parent="yFCERkOrYSOBxyvOmOgx-1" vertex="1">
          <mxGeometry x="750" y="60" width="100" height="2220" as="geometry" />
        </mxCell>
        <mxCell id="U1RE93i2s7QmfoyBK4RX-2" value="" style="html=1;points=[];perimeter=orthogonalPerimeter;" parent="U1RE93i2s7QmfoyBK4RX-0" vertex="1">
          <mxGeometry x="45" y="170" width="10" height="40" as="geometry" />
        </mxCell>
        <mxCell id="U1RE93i2s7QmfoyBK4RX-3" value="1: Igraj(igrac,kontra)" style="edgeStyle=orthogonalEdgeStyle;html=1;align=left;spacingLeft=2;endArrow=block;rounded=0;entryX=1;entryY=0;" parent="U1RE93i2s7QmfoyBK4RX-0" target="U1RE93i2s7QmfoyBK4RX-2" edge="1">
          <mxGeometry relative="1" as="geometry">
            <mxPoint x="52" y="110" as="sourcePoint" />
            <Array as="points">
              <mxPoint x="77" y="110" />
            </Array>
          </mxGeometry>
        </mxCell>
        <mxCell id="ccGs-BxWXqz6Kefb29Rs-8" value="" style="html=1;points=[];perimeter=orthogonalPerimeter;" parent="U1RE93i2s7QmfoyBK4RX-0" vertex="1">
          <mxGeometry x="47" y="330" width="10" height="20" as="geometry" />
        </mxCell>
        <mxCell id="ccGs-BxWXqz6Kefb29Rs-9" value="3.2:prikaziPotezIgraca()" style="edgeStyle=orthogonalEdgeStyle;html=1;align=left;spacingLeft=2;endArrow=block;rounded=0;entryX=0;entryY=-0.15;entryDx=0;entryDy=0;entryPerimeter=0;" parent="U1RE93i2s7QmfoyBK4RX-0" target="ccGs-BxWXqz6Kefb29Rs-8" edge="1">
          <mxGeometry relative="1" as="geometry">
            <mxPoint x="52" y="310" as="sourcePoint" />
            <Array as="points">
              <mxPoint x="77" y="310" />
              <mxPoint x="77" y="327" />
            </Array>
          </mxGeometry>
        </mxCell>
        <mxCell id="o350EeKxxwNTHT4QK-4L-28" value="" style="html=1;points=[];perimeter=orthogonalPerimeter;" parent="U1RE93i2s7QmfoyBK4RX-0" vertex="1">
          <mxGeometry x="45" y="1030" width="10" height="40" as="geometry" />
        </mxCell>
        <mxCell id="o350EeKxxwNTHT4QK-4L-30" value="" style="html=1;points=[];perimeter=orthogonalPerimeter;" parent="U1RE93i2s7QmfoyBK4RX-0" vertex="1">
          <mxGeometry x="45" y="1100" width="10" height="40" as="geometry" />
        </mxCell>
        <mxCell id="U1RE93i2s7QmfoyBK4RX-1" value="" style="html=1;points=[];perimeter=orthogonalPerimeter;" parent="U1RE93i2s7QmfoyBK4RX-0" vertex="1">
          <mxGeometry x="45" y="85" width="10" height="2135" as="geometry" />
        </mxCell>
        <mxCell id="JyDn2UTzz_3FD9HkTbJm-9" value="" style="html=1;points=[];perimeter=orthogonalPerimeter;" parent="U1RE93i2s7QmfoyBK4RX-0" vertex="1">
          <mxGeometry x="45" y="1550" width="10" height="30" as="geometry" />
        </mxCell>
        <mxCell id="JyDn2UTzz_3FD9HkTbJm-23" value="" style="html=1;points=[];perimeter=orthogonalPerimeter;" parent="U1RE93i2s7QmfoyBK4RX-0" vertex="1">
          <mxGeometry x="47" y="1920" width="10" height="40" as="geometry" />
        </mxCell>
        <mxCell id="JyDn2UTzz_3FD9HkTbJm-24" value="kontra = igra.specijalniPotezi(robot, zadnja_karta,kontra)ll" style="edgeStyle=orthogonalEdgeStyle;html=1;align=left;spacingLeft=2;endArrow=block;rounded=0;entryX=1;entryY=0;" parent="U1RE93i2s7QmfoyBK4RX-0" target="JyDn2UTzz_3FD9HkTbJm-23" edge="1">
          <mxGeometry relative="1" as="geometry">
            <mxPoint x="52" y="1900" as="sourcePoint" />
            <Array as="points">
              <mxPoint x="77" y="1900" />
            </Array>
          </mxGeometry>
        </mxCell>
        <mxCell id="U1RE93i2s7QmfoyBK4RX-9" value="igrac:Igrac" style="shape=umlLifeline;perimeter=lifelinePerimeter;whiteSpace=wrap;html=1;container=1;collapsible=0;recursiveResize=0;outlineConnect=0;" parent="yFCERkOrYSOBxyvOmOgx-1" vertex="1">
          <mxGeometry x="1141" y="30" width="100" height="2250" as="geometry" />
        </mxCell>
        <mxCell id="U1RE93i2s7QmfoyBK4RX-10" value="" style="html=1;points=[];perimeter=orthogonalPerimeter;" parent="U1RE93i2s7QmfoyBK4RX-9" vertex="1">
          <mxGeometry x="45" y="70" width="10" height="2180" as="geometry" />
        </mxCell>
        <mxCell id="U1RE93i2s7QmfoyBK4RX-11" value="kate:Karte" style="shape=umlLifeline;perimeter=lifelinePerimeter;whiteSpace=wrap;html=1;container=1;collapsible=0;recursiveResize=0;outlineConnect=0;" parent="yFCERkOrYSOBxyvOmOgx-1" vertex="1">
          <mxGeometry x="1700" y="30" width="100" height="2400" as="geometry" />
        </mxCell>
        <mxCell id="U1RE93i2s7QmfoyBK4RX-12" value="" style="html=1;points=[];perimeter=orthogonalPerimeter;" parent="U1RE93i2s7QmfoyBK4RX-11" vertex="1">
          <mxGeometry x="45" y="80" width="10" height="2320" as="geometry" />
        </mxCell>
        <mxCell id="o350EeKxxwNTHT4QK-4L-20" value="" style="html=1;verticalAlign=bottom;endArrow=block;entryX=0;entryY=0.905;entryDx=0;entryDy=0;entryPerimeter=0;" parent="U1RE93i2s7QmfoyBK4RX-11" edge="1">
          <mxGeometry width="80" relative="1" as="geometry">
            <mxPoint x="-953" y="740.0000000000001" as="sourcePoint" />
            <mxPoint x="47" y="740.0000000000001" as="targetPoint" />
          </mxGeometry>
        </mxCell>
        <mxCell id="o350EeKxxwNTHT4QK-4L-21" value="kontra = igra.specijalniPotezi(igrac, zadnja_karta, kontra)" style="edgeLabel;html=1;align=center;verticalAlign=middle;resizable=0;points=[];" parent="o350EeKxxwNTHT4QK-4L-20" vertex="1" connectable="0">
          <mxGeometry x="0.0576" y="-2" relative="1" as="geometry">
            <mxPoint x="-306" y="-12" as="offset" />
          </mxGeometry>
        </mxCell>
        <mxCell id="U1RE93i2s7QmfoyBK4RX-13" value="robot: Robot" style="shape=umlLifeline;perimeter=lifelinePerimeter;whiteSpace=wrap;html=1;container=1;collapsible=0;recursiveResize=0;outlineConnect=0;" parent="yFCERkOrYSOBxyvOmOgx-1" vertex="1">
          <mxGeometry x="1490" y="30" width="110" height="2310" as="geometry" />
        </mxCell>
        <mxCell id="U1RE93i2s7QmfoyBK4RX-14" value="" style="html=1;points=[];perimeter=orthogonalPerimeter;" parent="U1RE93i2s7QmfoyBK4RX-13" vertex="1">
          <mxGeometry x="45" y="70" width="10" height="2240" as="geometry" />
        </mxCell>
        <mxCell id="ZtLf-gSPTJDiubsPKjg6-2" value="[while True]" style="text;html=1;align=center;verticalAlign=middle;resizable=0;points=[];autosize=1;" parent="yFCERkOrYSOBxyvOmOgx-1" vertex="1">
          <mxGeometry x="685" y="210" width="80" height="20" as="geometry" />
        </mxCell>
        <mxCell id="ccGs-BxWXqz6Kefb29Rs-0" value="2: korisnik_igra=igra.igracNaRedu(igrac)" style="html=1;verticalAlign=bottom;endArrow=block;" parent="yFCERkOrYSOBxyvOmOgx-1" source="U1RE93i2s7QmfoyBK4RX-2" target="U1RE93i2s7QmfoyBK4RX-10" edge="1">
          <mxGeometry x="0.0649" y="5" width="80" relative="1" as="geometry">
            <mxPoint x="870" y="270" as="sourcePoint" />
            <mxPoint x="950" y="270" as="targetPoint" />
            <mxPoint as="offset" />
          </mxGeometry>
        </mxCell>
        <mxCell id="ccGs-BxWXqz6Kefb29Rs-2" value="" style="endArrow=none;dashed=1;html=1;dashPattern=1 3;strokeWidth=2;" parent="yFCERkOrYSOBxyvOmOgx-1" source="ccGs-BxWXqz6Kefb29Rs-1" target="ccGs-BxWXqz6Kefb29Rs-1" edge="1">
          <mxGeometry width="50" height="50" relative="1" as="geometry">
            <mxPoint x="676" y="440" as="sourcePoint" />
            <mxPoint x="850" y="240" as="targetPoint" />
            <Array as="points">
              <mxPoint x="860" y="470" />
              <mxPoint x="1180" y="470" />
              <mxPoint x="1860" y="470" />
            </Array>
          </mxGeometry>
        </mxCell>
        <mxCell id="ccGs-BxWXqz6Kefb29Rs-4" value="if korisnik_igra==0" style="text;html=1;align=center;verticalAlign=middle;resizable=0;points=[];autosize=1;" parent="yFCERkOrYSOBxyvOmOgx-1" vertex="1">
          <mxGeometry x="685" y="320" width="110" height="20" as="geometry" />
        </mxCell>
        <mxCell id="ccGs-BxWXqz6Kefb29Rs-5" value="" style="html=1;points=[];perimeter=orthogonalPerimeter;" parent="yFCERkOrYSOBxyvOmOgx-1" vertex="1">
          <mxGeometry x="795" y="300" width="10" height="40" as="geometry" />
        </mxCell>
        <mxCell id="ccGs-BxWXqz6Kefb29Rs-7" value="3.1:karta_u_igri_vlasnik=korisnik_ime" style="html=1;verticalAlign=bottom;startArrow=circle;startFill=1;endArrow=open;startSize=6;endSize=8;" parent="yFCERkOrYSOBxyvOmOgx-1" target="U1RE93i2s7QmfoyBK4RX-10" edge="1">
          <mxGeometry width="80" relative="1" as="geometry">
            <mxPoint x="790" y="325" as="sourcePoint" />
            <mxPoint x="1020" y="270" as="targetPoint" />
            <Array as="points">
              <mxPoint x="810" y="325" />
            </Array>
          </mxGeometry>
        </mxCell>
        <mxCell id="ccGs-BxWXqz6Kefb29Rs-13" value="if &lt;br&gt;igra.karta_u_igri.keypress != &quot;S&quot;" style="text;html=1;align=center;verticalAlign=middle;resizable=0;points=[];autosize=1;" parent="yFCERkOrYSOBxyvOmOgx-1" vertex="1">
          <mxGeometry x="820" y="395" width="190" height="30" as="geometry" />
        </mxCell>
        <mxCell id="o350EeKxxwNTHT4QK-4L-0" value="break" style="shape=note;whiteSpace=wrap;html=1;backgroundOutline=1;darkOpacity=0.05;" parent="yFCERkOrYSOBxyvOmOgx-1" vertex="1">
          <mxGeometry x="1020" y="400" width="130" height="50" as="geometry" />
        </mxCell>
        <mxCell id="o350EeKxxwNTHT4QK-4L-2" value="" style="endArrow=block;endFill=1;endSize=6;html=1;" parent="yFCERkOrYSOBxyvOmOgx-1" source="ccGs-BxWXqz6Kefb29Rs-13" edge="1">
          <mxGeometry width="100" relative="1" as="geometry">
            <mxPoint x="920" y="440" as="sourcePoint" />
            <mxPoint x="1020" y="440" as="targetPoint" />
          </mxGeometry>
        </mxCell>
        <mxCell id="o350EeKxxwNTHT4QK-4L-4" value="" style="endArrow=none;dashed=1;html=1;dashPattern=1 3;strokeWidth=2;" parent="yFCERkOrYSOBxyvOmOgx-1" edge="1">
          <mxGeometry width="50" height="50" relative="1" as="geometry">
            <mxPoint x="685" y="560" as="sourcePoint" />
            <mxPoint x="1865" y="560" as="targetPoint" />
            <Array as="points">
              <mxPoint x="855" y="560" />
              <mxPoint x="1175" y="560" />
              <mxPoint x="1855" y="560" />
            </Array>
          </mxGeometry>
        </mxCell>
        <mxCell id="o350EeKxxwNTHT4QK-4L-6" value="3.4: elif &lt;br&gt;korisnik_igra==1" style="text;html=1;align=center;verticalAlign=middle;resizable=0;points=[];autosize=1;" parent="yFCERkOrYSOBxyvOmOgx-1" vertex="1">
          <mxGeometry x="690" y="495" width="100" height="30" as="geometry" />
        </mxCell>
        <mxCell id="o350EeKxxwNTHT4QK-4L-8" value="break" style="shape=note;whiteSpace=wrap;html=1;backgroundOutline=1;darkOpacity=0.05;" parent="yFCERkOrYSOBxyvOmOgx-1" vertex="1">
          <mxGeometry x="880" y="485" width="130" height="50" as="geometry" />
        </mxCell>
        <mxCell id="o350EeKxxwNTHT4QK-4L-9" value="return None" style="shape=note;whiteSpace=wrap;html=1;backgroundOutline=1;darkOpacity=0.05;" parent="yFCERkOrYSOBxyvOmOgx-1" vertex="1">
          <mxGeometry x="870" y="585" width="130" height="50" as="geometry" />
        </mxCell>
        <mxCell id="o350EeKxxwNTHT4QK-4L-10" value="3" style="text;html=1;align=center;verticalAlign=middle;resizable=0;points=[];autosize=1;" parent="yFCERkOrYSOBxyvOmOgx-1" vertex="1">
          <mxGeometry x="675" y="280" width="20" height="20" as="geometry" />
        </mxCell>
        <mxCell id="o350EeKxxwNTHT4QK-4L-11" value="3.3" style="text;html=1;align=center;verticalAlign=middle;resizable=0;points=[];autosize=1;" parent="yFCERkOrYSOBxyvOmOgx-1" vertex="1">
          <mxGeometry x="805" y="375" width="30" height="20" as="geometry" />
        </mxCell>
        <mxCell id="o350EeKxxwNTHT4QK-4L-13" value="3.5: elif &lt;br&gt;korisnik_igra==2" style="text;html=1;align=center;verticalAlign=middle;resizable=0;points=[];autosize=1;" parent="yFCERkOrYSOBxyvOmOgx-1" vertex="1">
          <mxGeometry x="685" y="595" width="100" height="30" as="geometry" />
        </mxCell>
        <mxCell id="o350EeKxxwNTHT4QK-4L-16" value="" style="endArrow=none;dashed=1;html=1;dashPattern=1 3;strokeWidth=2;" parent="yFCERkOrYSOBxyvOmOgx-1" edge="1">
          <mxGeometry width="50" height="50" relative="1" as="geometry">
            <mxPoint x="685" y="880" as="sourcePoint" />
            <mxPoint x="1865" y="880" as="targetPoint" />
            <Array as="points">
              <mxPoint x="855" y="880" />
              <mxPoint x="1175" y="880" />
              <mxPoint x="1855" y="880" />
            </Array>
          </mxGeometry>
        </mxCell>
        <mxCell id="o350EeKxxwNTHT4QK-4L-17" value="4.1 if &lt;br&gt;zadnja_karta.vrsta==&quot;Specijalna&quot;" style="text;html=1;align=center;verticalAlign=middle;resizable=0;points=[];autosize=1;" parent="yFCERkOrYSOBxyvOmOgx-1" vertex="1">
          <mxGeometry x="675" y="730" width="190" height="30" as="geometry" />
        </mxCell>
        <mxCell id="o350EeKxxwNTHT4QK-4L-19" value="4" style="text;html=1;align=center;verticalAlign=middle;resizable=0;points=[];autosize=1;" parent="yFCERkOrYSOBxyvOmOgx-1" vertex="1">
          <mxGeometry x="655" y="690" width="20" height="20" as="geometry" />
        </mxCell>
        <mxCell id="o350EeKxxwNTHT4QK-4L-24" value="break" style="shape=note;whiteSpace=wrap;html=1;backgroundOutline=1;darkOpacity=0.05;" parent="yFCERkOrYSOBxyvOmOgx-1" vertex="1">
          <mxGeometry x="980" y="800" width="120" height="50" as="geometry" />
        </mxCell>
        <mxCell id="o350EeKxxwNTHT4QK-4L-26" value="4.2" style="text;html=1;align=center;verticalAlign=middle;resizable=0;points=[];autosize=1;" parent="yFCERkOrYSOBxyvOmOgx-1" vertex="1">
          <mxGeometry x="800" y="780" width="30" height="20" as="geometry" />
        </mxCell>
        <mxCell id="o350EeKxxwNTHT4QK-4L-27" value="4.3: prikaziStol(igrac)" style="text;html=1;align=center;verticalAlign=middle;resizable=0;points=[];autosize=1;" parent="yFCERkOrYSOBxyvOmOgx-1" vertex="1">
          <mxGeometry x="895" y="1090" width="130" height="20" as="geometry" />
        </mxCell>
        <mxCell id="o350EeKxxwNTHT4QK-4L-29" value="" style="endArrow=block;endFill=1;endSize=6;html=1;" parent="yFCERkOrYSOBxyvOmOgx-1" source="o350EeKxxwNTHT4QK-4L-28" target="U1RE93i2s7QmfoyBK4RX-10" edge="1">
          <mxGeometry width="100" relative="1" as="geometry">
            <mxPoint x="710" y="940" as="sourcePoint" />
            <mxPoint x="810" y="940" as="targetPoint" />
          </mxGeometry>
        </mxCell>
        <mxCell id="o350EeKxxwNTHT4QK-4L-33" value="" style="endArrow=block;endFill=1;endSize=6;html=1;exitX=0.5;exitY=0.75;exitDx=0;exitDy=0;exitPerimeter=0;" parent="yFCERkOrYSOBxyvOmOgx-1" source="o350EeKxxwNTHT4QK-4L-30" target="U1RE93i2s7QmfoyBK4RX-9" edge="1">
          <mxGeometry width="100" relative="1" as="geometry">
            <mxPoint x="950" y="1100" as="sourcePoint" />
            <mxPoint x="1050" y="1100" as="targetPoint" />
          </mxGeometry>
        </mxCell>
        <mxCell id="o350EeKxxwNTHT4QK-4L-34" value="5:&amp;nbsp; prikaziStol(igrac)" style="text;html=1;align=center;verticalAlign=middle;resizable=0;points=[];autosize=1;" parent="yFCERkOrYSOBxyvOmOgx-1" vertex="1">
          <mxGeometry x="910" y="1170" width="120" height="20" as="geometry" />
        </mxCell>
        <mxCell id="o350EeKxxwNTHT4QK-4L-36" value="return 0" style="shape=note;whiteSpace=wrap;html=1;backgroundOutline=1;darkOpacity=0.05;size=15;" parent="yFCERkOrYSOBxyvOmOgx-1" vertex="1">
          <mxGeometry x="896" y="1260" width="130" height="50" as="geometry" />
        </mxCell>
        <mxCell id="o350EeKxxwNTHT4QK-4L-37" value="zadnja_karta=igra.karta_u_igri" style="html=1;verticalAlign=bottom;startArrow=oval;startFill=1;endArrow=block;startSize=8;" parent="yFCERkOrYSOBxyvOmOgx-1" source="U1RE93i2s7QmfoyBK4RX-1" target="U1RE93i2s7QmfoyBK4RX-11" edge="1">
          <mxGeometry width="60" relative="1" as="geometry">
            <mxPoint x="860" y="1300" as="sourcePoint" />
            <mxPoint x="1830" y="1380" as="targetPoint" />
            <Array as="points">
              <mxPoint x="1390" y="1410" />
            </Array>
          </mxGeometry>
        </mxCell>
        <mxCell id="JyDn2UTzz_3FD9HkTbJm-0" value="[While True]" style="text;html=1;align=center;verticalAlign=middle;resizable=0;points=[];autosize=1;" parent="yFCERkOrYSOBxyvOmOgx-1" vertex="1">
          <mxGeometry x="660" y="1510" width="80" height="20" as="geometry" />
        </mxCell>
        <mxCell id="JyDn2UTzz_3FD9HkTbJm-2" value="7.1;:robot_igra = robot.potezRobota(igra, karte)" style="html=1;verticalAlign=bottom;startArrow=oval;startFill=1;endArrow=block;startSize=8;" parent="yFCERkOrYSOBxyvOmOgx-1" source="U1RE93i2s7QmfoyBK4RX-1" target="U1RE93i2s7QmfoyBK4RX-14" edge="1">
          <mxGeometry x="-0.4658" y="-20" width="60" relative="1" as="geometry">
            <mxPoint x="960" y="1730" as="sourcePoint" />
            <mxPoint x="1020" y="1730" as="targetPoint" />
            <Array as="points">
              <mxPoint x="860" y="1520" />
            </Array>
            <mxPoint as="offset" />
          </mxGeometry>
        </mxCell>
        <mxCell id="JyDn2UTzz_3FD9HkTbJm-3" value="6" style="text;html=1;align=center;verticalAlign=middle;resizable=0;points=[];autosize=1;" parent="yFCERkOrYSOBxyvOmOgx-1" vertex="1">
          <mxGeometry x="650" y="1210" width="20" height="20" as="geometry" />
        </mxCell>
        <mxCell id="JyDn2UTzz_3FD9HkTbJm-4" value="7" style="text;html=1;align=center;verticalAlign=middle;resizable=0;points=[];autosize=1;" parent="yFCERkOrYSOBxyvOmOgx-1" vertex="1">
          <mxGeometry x="610" y="1450" width="20" height="20" as="geometry" />
        </mxCell>
        <mxCell id="JyDn2UTzz_3FD9HkTbJm-7" value="7.2" style="text;html=1;align=center;verticalAlign=middle;resizable=0;points=[];autosize=1;" parent="yFCERkOrYSOBxyvOmOgx-1" vertex="1">
          <mxGeometry x="690" y="1560" width="30" height="20" as="geometry" />
        </mxCell>
        <mxCell id="JyDn2UTzz_3FD9HkTbJm-10" value="igra.karta_u_igri.vlasnik = robot.korisnik_ime" style="html=1;verticalAlign=bottom;startArrow=oval;startFill=1;endArrow=block;startSize=8;entryX=-0.1;entryY=0.681;entryDx=0;entryDy=0;entryPerimeter=0;" parent="yFCERkOrYSOBxyvOmOgx-1" target="U1RE93i2s7QmfoyBK4RX-14" edge="1">
          <mxGeometry width="60" relative="1" as="geometry">
            <mxPoint x="800" y="1630" as="sourcePoint" />
            <mxPoint x="860" y="1630" as="targetPoint" />
          </mxGeometry>
        </mxCell>
        <mxCell id="JyDn2UTzz_3FD9HkTbJm-12" value="&lt;p style=&quot;margin: 0px ; margin-top: 4px ; margin-left: 5px ; text-align: left&quot;&gt;&lt;b&gt;alt&lt;/b&gt;&lt;/p&gt;" style="html=1;shape=mxgraph.sysml.package;overflow=fill;labelX=95;align=left;spacingLeft=5;verticalAlign=top;spacingTop=-3;" parent="yFCERkOrYSOBxyvOmOgx-1" vertex="1">
          <mxGeometry x="870" y="1640" width="350" height="90" as="geometry" />
        </mxCell>
        <mxCell id="JyDn2UTzz_3FD9HkTbJm-13" value="if &lt;br&gt;igra.karta_u_igri.keypress != &quot;S&quot;" style="text;html=1;align=center;verticalAlign=middle;resizable=0;points=[];autosize=1;" parent="yFCERkOrYSOBxyvOmOgx-1" vertex="1">
          <mxGeometry x="875" y="1665" width="190" height="30" as="geometry" />
        </mxCell>
        <mxCell id="JyDn2UTzz_3FD9HkTbJm-14" value="break" style="shape=note;whiteSpace=wrap;html=1;backgroundOutline=1;darkOpacity=0.05;" parent="yFCERkOrYSOBxyvOmOgx-1" vertex="1">
          <mxGeometry x="1065" y="1670" width="130" height="50" as="geometry" />
        </mxCell>
        <mxCell id="JyDn2UTzz_3FD9HkTbJm-17" value="" style="endArrow=block;endFill=1;endSize=6;html=1;entryX=0;entryY=1;entryDx=0;entryDy=0;entryPerimeter=0;" parent="yFCERkOrYSOBxyvOmOgx-1" source="JyDn2UTzz_3FD9HkTbJm-13" target="JyDn2UTzz_3FD9HkTbJm-14" edge="1">
          <mxGeometry width="100" relative="1" as="geometry">
            <mxPoint x="980" y="1695" as="sourcePoint" />
            <mxPoint x="1080" y="1695" as="targetPoint" />
          </mxGeometry>
        </mxCell>
        <mxCell id="JyDn2UTzz_3FD9HkTbJm-18" value="elif robot_igra == 1" style="text;html=1;align=center;verticalAlign=middle;resizable=0;points=[];autosize=1;" parent="yFCERkOrYSOBxyvOmOgx-1" vertex="1">
          <mxGeometry x="730" y="1770" width="120" height="20" as="geometry" />
        </mxCell>
        <mxCell id="JyDn2UTzz_3FD9HkTbJm-20" value="" style="endArrow=none;dashed=1;html=1;dashPattern=1 3;strokeWidth=2;exitX=-0.001;exitY=0.643;exitDx=0;exitDy=0;exitPerimeter=0;entryX=1;entryY=0.64;entryDx=0;entryDy=0;entryPerimeter=0;" parent="yFCERkOrYSOBxyvOmOgx-1" source="JyDn2UTzz_3FD9HkTbJm-6" target="JyDn2UTzz_3FD9HkTbJm-6" edge="1">
          <mxGeometry width="50" height="50" relative="1" as="geometry">
            <mxPoint x="820" y="1710" as="sourcePoint" />
            <mxPoint x="870" y="1660" as="targetPoint" />
            <Array as="points">
              <mxPoint x="850" y="1750" />
            </Array>
          </mxGeometry>
        </mxCell>
        <mxCell id="JyDn2UTzz_3FD9HkTbJm-21" value="break" style="shape=note;whiteSpace=wrap;html=1;backgroundOutline=1;darkOpacity=0.05;" parent="yFCERkOrYSOBxyvOmOgx-1" vertex="1">
          <mxGeometry x="935" y="1780" width="130" height="50" as="geometry" />
        </mxCell>
        <mxCell id="JyDn2UTzz_3FD9HkTbJm-25" value="&lt;p style=&quot;margin: 0px ; margin-top: 4px ; margin-left: 5px ; text-align: left&quot;&gt;&lt;b&gt;alt&lt;/b&gt;&lt;/p&gt;" style="html=1;shape=mxgraph.sysml.package;overflow=fill;labelX=95;align=left;spacingLeft=5;verticalAlign=top;spacingTop=-3;" parent="yFCERkOrYSOBxyvOmOgx-1" vertex="1">
          <mxGeometry x="810" y="2005" width="350" height="90" as="geometry" />
        </mxCell>
        <mxCell id="JyDn2UTzz_3FD9HkTbJm-26" value="if kontra==0" style="text;html=1;align=center;verticalAlign=middle;resizable=0;points=[];autosize=1;" parent="yFCERkOrYSOBxyvOmOgx-1" vertex="1">
          <mxGeometry x="805" y="2040" width="80" height="20" as="geometry" />
        </mxCell>
        <mxCell id="JyDn2UTzz_3FD9HkTbJm-27" value="break" style="shape=note;whiteSpace=wrap;html=1;backgroundOutline=1;darkOpacity=0.05;" parent="yFCERkOrYSOBxyvOmOgx-1" vertex="1">
          <mxGeometry x="943.5" y="2040" width="117" height="35" as="geometry" />
        </mxCell>
        <mxCell id="8xt8BvqDCx2BTQWL5tg6-0" value="9: prikaziStol(igrac)" style="text;html=1;align=center;verticalAlign=middle;resizable=0;points=[];autosize=1;" parent="yFCERkOrYSOBxyvOmOgx-1" vertex="1">
          <mxGeometry x="880" y="2170" width="120" height="20" as="geometry" />
        </mxCell>
        <mxCell id="8xt8BvqDCx2BTQWL5tg6-1" value="" style="endArrow=block;endFill=1;endSize=6;html=1;exitX=1.1;exitY=0.959;exitDx=0;exitDy=0;exitPerimeter=0;entryX=-0.1;entryY=0.96;entryDx=0;entryDy=0;entryPerimeter=0;" parent="yFCERkOrYSOBxyvOmOgx-1" source="U1RE93i2s7QmfoyBK4RX-1" target="U1RE93i2s7QmfoyBK4RX-10" edge="1">
          <mxGeometry width="100" relative="1" as="geometry">
            <mxPoint x="1180" y="2320" as="sourcePoint" />
            <mxPoint x="1280" y="2320" as="targetPoint" />
          </mxGeometry>
        </mxCell>
        <mxCell id="8xt8BvqDCx2BTQWL5tg6-2" value="8" style="text;html=1;align=center;verticalAlign=middle;resizable=0;points=[];autosize=1;" parent="yFCERkOrYSOBxyvOmOgx-1" vertex="1">
          <mxGeometry x="710" y="1902.5" width="20" height="20" as="geometry" />
        </mxCell>
        <mxCell id="8xt8BvqDCx2BTQWL5tg6-3" value="" style="endArrow=block;endFill=1;endSize=6;html=1;entryX=0.1;entryY=0.988;entryDx=0;entryDy=0;entryPerimeter=0;" parent="yFCERkOrYSOBxyvOmOgx-1" source="U1RE93i2s7QmfoyBK4RX-1" target="U1RE93i2s7QmfoyBK4RX-10" edge="1">
          <mxGeometry width="100" relative="1" as="geometry">
            <mxPoint x="798" y="2249.9950000000003" as="sourcePoint" />
            <mxPoint x="1177" y="2250.33" as="targetPoint" />
          </mxGeometry>
        </mxCell>
        <mxCell id="8xt8BvqDCx2BTQWL5tg6-4" value="9: prikaziStol(igrac)" style="text;html=1;align=center;verticalAlign=middle;resizable=0;points=[];autosize=1;" parent="yFCERkOrYSOBxyvOmOgx-1" vertex="1">
          <mxGeometry x="925" y="2260" width="120" height="20" as="geometry" />
        </mxCell>
      </root>
    </mxGraphModel>
  </diagram>
  <diagram id="vsTsguoNpIDMY6D2L2ti" name="prikazipotezIgraca">
    <mxGraphModel dx="1929" dy="1783" grid="1" gridSize="10" guides="1" tooltips="1" connect="1" arrows="1" fold="1" page="1" pageScale="1" pageWidth="827" pageHeight="1169" math="0" shadow="0">
      <root>
        <mxCell id="T1ptHYoZRAaqiO8sSAdI-0" />
        <mxCell id="T1ptHYoZRAaqiO8sSAdI-1" parent="T1ptHYoZRAaqiO8sSAdI-0" />
        <mxCell id="PO5p06K-QGhl4sjE519e-7" value="" style="shape=umlFrame;whiteSpace=wrap;html=1;" parent="T1ptHYoZRAaqiO8sSAdI-1" vertex="1">
          <mxGeometry x="140" y="-100" width="470" height="220" as="geometry" />
        </mxCell>
        <mxCell id="PO5p06K-QGhl4sjE519e-0" value="Igra:igra" style="shape=umlLifeline;perimeter=lifelinePerimeter;whiteSpace=wrap;html=1;container=1;collapsible=0;recursiveResize=0;outlineConnect=0;" parent="T1ptHYoZRAaqiO8sSAdI-1" vertex="1">
          <mxGeometry x="170" y="-180" width="100" height="560" as="geometry" />
        </mxCell>
        <mxCell id="PO5p06K-QGhl4sjE519e-1" value="" style="html=1;points=[];perimeter=orthogonalPerimeter;" parent="PO5p06K-QGhl4sjE519e-0" vertex="1">
          <mxGeometry x="45" y="50" width="10" height="430" as="geometry" />
        </mxCell>
        <mxCell id="QiM8FrbnQe_P4ZbCg4Pd-1" value="" style="html=1;points=[];perimeter=orthogonalPerimeter;" parent="PO5p06K-QGhl4sjE519e-0" vertex="1">
          <mxGeometry x="45" y="70" width="10" height="40" as="geometry" />
        </mxCell>
        <mxCell id="Qpem3Auo7QYa6zLrO4Lc-1" value="" style="html=1;points=[];perimeter=orthogonalPerimeter;" parent="PO5p06K-QGhl4sjE519e-0" vertex="1">
          <mxGeometry x="45" y="110" width="10" height="40" as="geometry" />
        </mxCell>
        <mxCell id="Qpem3Auo7QYa6zLrO4Lc-2" value="1.prikaziPotezIgraca" style="edgeStyle=orthogonalEdgeStyle;html=1;align=left;spacingLeft=2;endArrow=block;rounded=0;entryX=1;entryY=0;" parent="PO5p06K-QGhl4sjE519e-0" target="Qpem3Auo7QYa6zLrO4Lc-1" edge="1">
          <mxGeometry relative="1" as="geometry">
            <mxPoint x="50" y="90" as="sourcePoint" />
            <Array as="points">
              <mxPoint x="75" y="90" />
            </Array>
          </mxGeometry>
        </mxCell>
        <mxCell id="b7smmtVz18x53VpKh2Ir-1" value="" style="html=1;points=[];perimeter=orthogonalPerimeter;" parent="PO5p06K-QGhl4sjE519e-0" vertex="1">
          <mxGeometry x="45" y="200" width="10" height="40" as="geometry" />
        </mxCell>
        <mxCell id="b7smmtVz18x53VpKh2Ir-2" value="1.3trenutnakarta()" style="edgeStyle=orthogonalEdgeStyle;html=1;align=left;spacingLeft=2;endArrow=block;rounded=0;entryX=1;entryY=0;" parent="PO5p06K-QGhl4sjE519e-0" target="b7smmtVz18x53VpKh2Ir-1" edge="1">
          <mxGeometry x="0.0769" y="15" relative="1" as="geometry">
            <mxPoint x="50" y="180" as="sourcePoint" />
            <Array as="points">
              <mxPoint x="75" y="180" />
            </Array>
            <mxPoint as="offset" />
          </mxGeometry>
        </mxCell>
        <mxCell id="PO5p06K-QGhl4sjE519e-2" value="" style="html=1;points=[];perimeter=orthogonalPerimeter;" parent="T1ptHYoZRAaqiO8sSAdI-1" vertex="1">
          <mxGeometry x="520" y="-100" width="10" height="80" as="geometry" />
        </mxCell>
        <mxCell id="PO5p06K-QGhl4sjE519e-4" value="return" style="html=1;verticalAlign=bottom;endArrow=open;dashed=1;endSize=8;" parent="T1ptHYoZRAaqiO8sSAdI-1" source="PO5p06K-QGhl4sjE519e-6" target="Qpem3Auo7QYa6zLrO4Lc-0" edge="1">
          <mxGeometry relative="1" as="geometry">
            <mxPoint x="220" y="-24" as="targetPoint" />
            <Array as="points">
              <mxPoint x="370" y="80" />
            </Array>
          </mxGeometry>
        </mxCell>
        <mxCell id="PO5p06K-QGhl4sjE519e-5" value="Igrac:igrac" style="shape=umlLifeline;perimeter=lifelinePerimeter;whiteSpace=wrap;html=1;container=1;collapsible=0;recursiveResize=0;outlineConnect=0;" parent="T1ptHYoZRAaqiO8sSAdI-1" vertex="1">
          <mxGeometry x="475" y="-170" width="100" height="560" as="geometry" />
        </mxCell>
        <mxCell id="PO5p06K-QGhl4sjE519e-6" value="" style="html=1;points=[];perimeter=orthogonalPerimeter;" parent="PO5p06K-QGhl4sjE519e-5" vertex="1">
          <mxGeometry x="45" y="70" width="10" height="430" as="geometry" />
        </mxCell>
        <mxCell id="Qpem3Auo7QYa6zLrO4Lc-0" value="Igrac" style="shape=umlLifeline;participant=umlActor;perimeter=lifelinePerimeter;whiteSpace=wrap;html=1;container=1;collapsible=0;recursiveResize=0;verticalAlign=top;spacingTop=36;outlineConnect=0;size=40;" parent="T1ptHYoZRAaqiO8sSAdI-1" vertex="1">
          <mxGeometry x="-60" y="-210" width="20" height="1310" as="geometry" />
        </mxCell>
        <mxCell id="3X4MAci12TmddQ04tI5R-0" value="1.1ocistiEkran()&lt;br&gt;1.2print()" style="shape=note;whiteSpace=wrap;html=1;backgroundOutline=1;darkOpacity=0.05;" parent="T1ptHYoZRAaqiO8sSAdI-1" vertex="1">
          <mxGeometry x="283.5" y="-70" width="130" height="50" as="geometry" />
        </mxCell>
        <mxCell id="b7smmtVz18x53VpKh2Ir-3" value="1.4 Enter za nastavak" style="html=1;verticalAlign=bottom;startArrow=circle;startFill=1;endArrow=open;startSize=6;endSize=8;exitX=0.1;exitY=0.975;exitDx=0;exitDy=0;exitPerimeter=0;entryX=-0.1;entryY=0.37;entryDx=0;entryDy=0;entryPerimeter=0;" parent="T1ptHYoZRAaqiO8sSAdI-1" source="b7smmtVz18x53VpKh2Ir-1" target="PO5p06K-QGhl4sjE519e-6" edge="1">
          <mxGeometry width="80" relative="1" as="geometry">
            <mxPoint x="410" y="10" as="sourcePoint" />
            <mxPoint x="490" y="10" as="targetPoint" />
          </mxGeometry>
        </mxCell>
      </root>
    </mxGraphModel>
  </diagram>
  <diagram id="bglKyPm6Kxij1Aqso1cd" name="igracNaRedu">
    <mxGraphModel dx="1929" dy="1783" grid="1" gridSize="10" guides="1" tooltips="1" connect="1" arrows="1" fold="1" page="1" pageScale="1" pageWidth="827" pageHeight="1169" math="0" shadow="0">
      <root>
        <mxCell id="7MPCGlftmwWGxy-j66-Z-0" />
        <mxCell id="7MPCGlftmwWGxy-j66-Z-1" parent="7MPCGlftmwWGxy-j66-Z-0" />
        <mxCell id="-s8oRg31cX_59YZlKliD-0" value="" style="shape=umlFrame;whiteSpace=wrap;html=1;" parent="7MPCGlftmwWGxy-j66-Z-1" vertex="1">
          <mxGeometry x="140" y="-140" width="620" height="1060" as="geometry" />
        </mxCell>
        <mxCell id="lT4hv9n9i4eMq8wE22r--4" value="loop" style="shape=umlFrame;whiteSpace=wrap;html=1;" parent="7MPCGlftmwWGxy-j66-Z-1" vertex="1">
          <mxGeometry x="150" y="150" width="590" height="570" as="geometry" />
        </mxCell>
        <mxCell id="lT4hv9n9i4eMq8wE22r--8" value="alt" style="shape=umlFrame;whiteSpace=wrap;html=1;" parent="7MPCGlftmwWGxy-j66-Z-1" vertex="1">
          <mxGeometry x="165" y="245" width="530" height="400" as="geometry" />
        </mxCell>
        <mxCell id="lT4hv9n9i4eMq8wE22r--10" value="alt" style="shape=umlFrame;whiteSpace=wrap;html=1;" parent="7MPCGlftmwWGxy-j66-Z-1" vertex="1">
          <mxGeometry x="200" y="330" width="450" height="150" as="geometry" />
        </mxCell>
        <mxCell id="lT4hv9n9i4eMq8wE22r--1" value="alt" style="shape=umlFrame;whiteSpace=wrap;html=1;" parent="7MPCGlftmwWGxy-j66-Z-1" vertex="1">
          <mxGeometry x="180" y="-10" width="500" height="130" as="geometry" />
        </mxCell>
        <mxCell id="krd1XjzdVa_1OecfsEpJ-0" value="Igra:igra" style="shape=umlLifeline;perimeter=lifelinePerimeter;whiteSpace=wrap;html=1;container=1;collapsible=0;recursiveResize=0;outlineConnect=0;" parent="7MPCGlftmwWGxy-j66-Z-1" vertex="1">
          <mxGeometry x="230" y="-180" width="100" height="1280" as="geometry" />
        </mxCell>
        <mxCell id="krd1XjzdVa_1OecfsEpJ-1" value="" style="html=1;points=[];perimeter=orthogonalPerimeter;" parent="krd1XjzdVa_1OecfsEpJ-0" vertex="1">
          <mxGeometry x="45" y="65" width="10" height="1095" as="geometry" />
        </mxCell>
        <mxCell id="0d2er5c2iAJOQkwn_1Hn-1" value="" style="html=1;points=[];perimeter=orthogonalPerimeter;" parent="krd1XjzdVa_1OecfsEpJ-0" vertex="1">
          <mxGeometry x="45" y="100" width="10" height="40" as="geometry" />
        </mxCell>
        <mxCell id="0d2er5c2iAJOQkwn_1Hn-2" value="&lt;br style=&quot;font-size: 12px ; text-align: center ; background-color: rgb(248 , 249 , 250)&quot;&gt;&lt;br style=&quot;font-size: 12px ; text-align: center ; background-color: rgb(248 , 249 , 250)&quot;&gt;&lt;span style=&quot;text-align: center ; font-family: &amp;#34;helvetica&amp;#34;&quot;&gt;2: korisnik_igra=igra.igracNaRedu(igrac)&lt;/span&gt;" style="edgeStyle=orthogonalEdgeStyle;html=1;align=left;spacingLeft=2;endArrow=block;rounded=0;entryX=1;entryY=0;" parent="krd1XjzdVa_1OecfsEpJ-0" target="0d2er5c2iAJOQkwn_1Hn-1" edge="1">
          <mxGeometry x="-0.2308" y="-10" relative="1" as="geometry">
            <mxPoint x="50" y="80" as="sourcePoint" />
            <Array as="points">
              <mxPoint x="75" y="80" />
            </Array>
            <mxPoint x="10" y="-10" as="offset" />
          </mxGeometry>
        </mxCell>
        <mxCell id="UoSrK3WuaTYGztkJ5yFT-0" value="Igrac:igrac" style="shape=umlLifeline;perimeter=lifelinePerimeter;whiteSpace=wrap;html=1;container=1;collapsible=0;recursiveResize=0;outlineConnect=0;" parent="7MPCGlftmwWGxy-j66-Z-1" vertex="1">
          <mxGeometry x="550" y="-180" width="100" height="1280" as="geometry" />
        </mxCell>
        <mxCell id="UoSrK3WuaTYGztkJ5yFT-1" value="" style="html=1;points=[];perimeter=orthogonalPerimeter;" parent="UoSrK3WuaTYGztkJ5yFT-0" vertex="1">
          <mxGeometry x="45" y="70" width="10" height="1090" as="geometry" />
        </mxCell>
        <mxCell id="PzPwh2qabYS6AptmMT5p-0" value="Igrac" style="shape=umlLifeline;participant=umlActor;perimeter=lifelinePerimeter;whiteSpace=wrap;html=1;container=1;collapsible=0;recursiveResize=0;verticalAlign=top;spacingTop=36;outlineConnect=0;size=40;" parent="7MPCGlftmwWGxy-j66-Z-1" vertex="1">
          <mxGeometry x="-50" y="-190" width="20" height="1310" as="geometry" />
        </mxCell>
        <mxCell id="lT4hv9n9i4eMq8wE22r--0" value="zadnjakarta&lt;br&gt;potezmoguc=False&lt;br&gt;jedinakarta=False" style="shape=note;whiteSpace=wrap;html=1;backgroundOutline=1;darkOpacity=0.05;" parent="7MPCGlftmwWGxy-j66-Z-1" vertex="1">
          <mxGeometry x="310" y="-80" width="210" height="60" as="geometry" />
        </mxCell>
        <mxCell id="lT4hv9n9i4eMq8wE22r--2" value="if self.karta_u_igri.vrsta == &quot;Specijalna" style="text;html=1;align=center;verticalAlign=middle;resizable=0;points=[];autosize=1;" parent="7MPCGlftmwWGxy-j66-Z-1" vertex="1">
          <mxGeometry x="180" y="40" width="220" height="20" as="geometry" />
        </mxCell>
        <mxCell id="lT4hv9n9i4eMq8wE22r--3" value="jedina_karta= True" style="text;html=1;align=center;verticalAlign=middle;resizable=0;points=[];autosize=1;" parent="7MPCGlftmwWGxy-j66-Z-1" vertex="1">
          <mxGeometry x="370" y="80" width="120" height="20" as="geometry" />
        </mxCell>
        <mxCell id="lT4hv9n9i4eMq8wE22r--5" value="while not potez_moguc" style="text;html=1;align=center;verticalAlign=middle;resizable=0;points=[];autosize=1;" parent="7MPCGlftmwWGxy-j66-Z-1" vertex="1">
          <mxGeometry x="150" y="190" width="140" height="20" as="geometry" />
        </mxCell>
        <mxCell id="lT4hv9n9i4eMq8wE22r--7" value="&lt;span style=&quot;font-size: 12px ; background-color: rgb(248 , 249 , 250)&quot;&gt;potezIgraca=input()&lt;/span&gt;" style="html=1;verticalAlign=bottom;startArrow=oval;startFill=1;endArrow=block;startSize=8;" parent="7MPCGlftmwWGxy-j66-Z-1" source="PzPwh2qabYS6AptmMT5p-0" target="UoSrK3WuaTYGztkJ5yFT-1" edge="1">
          <mxGeometry x="0.6066" width="60" relative="1" as="geometry">
            <mxPoint x="100" y="240" as="sourcePoint" />
            <mxPoint x="160" y="240" as="targetPoint" />
            <Array as="points">
              <mxPoint x="430" y="240" />
            </Array>
            <mxPoint x="1" as="offset" />
          </mxGeometry>
        </mxCell>
        <mxCell id="lT4hv9n9i4eMq8wE22r--9" value="if potezIgraca.lower() == &quot;f&quot;" style="text;html=1;align=center;verticalAlign=middle;resizable=0;points=[];autosize=1;" parent="7MPCGlftmwWGxy-j66-Z-1" vertex="1">
          <mxGeometry x="220" y="300" width="160" height="20" as="geometry" />
        </mxCell>
        <mxCell id="lT4hv9n9i4eMq8wE22r--11" value="if not zadnja karta ili vlasnik igrac" style="text;html=1;align=center;verticalAlign=middle;resizable=0;points=[];autosize=1;" parent="7MPCGlftmwWGxy-j66-Z-1" vertex="1">
          <mxGeometry x="300" y="330" width="190" height="20" as="geometry" />
        </mxCell>
        <mxCell id="XxfzBGF1H1oKZYPIeFYD-0" value="return&amp;nbsp;" style="shape=note;whiteSpace=wrap;html=1;backgroundOutline=1;darkOpacity=0.05;size=15;" parent="7MPCGlftmwWGxy-j66-Z-1" vertex="1">
          <mxGeometry x="340" y="380" width="110" height="20" as="geometry" />
        </mxCell>
        <mxCell id="XxfzBGF1H1oKZYPIeFYD-1" value="igrac.makniKartu(karte)" style="html=1;verticalAlign=bottom;startArrow=oval;startFill=1;endArrow=block;startSize=8;" parent="7MPCGlftmwWGxy-j66-Z-1" source="krd1XjzdVa_1OecfsEpJ-1" target="UoSrK3WuaTYGztkJ5yFT-1" edge="1">
          <mxGeometry width="60" relative="1" as="geometry">
            <mxPoint x="560" y="250" as="sourcePoint" />
            <mxPoint x="600" y="250" as="targetPoint" />
            <Array as="points">
              <mxPoint x="460" y="370" />
            </Array>
          </mxGeometry>
        </mxCell>
        <mxCell id="XxfzBGF1H1oKZYPIeFYD-2" value="&lt;div&gt;else:&lt;/div&gt;&lt;div&gt;&amp;nbsp; &amp;nbsp; &amp;nbsp; &amp;nbsp; &amp;nbsp; &amp;nbsp; &amp;nbsp; &amp;nbsp; &amp;nbsp; &amp;nbsp;&amp;nbsp;&lt;/div&gt;" style="text;html=1;align=center;verticalAlign=middle;resizable=0;points=[];autosize=1;" parent="7MPCGlftmwWGxy-j66-Z-1" vertex="1">
          <mxGeometry x="180" y="430" width="80" height="30" as="geometry" />
        </mxCell>
        <mxCell id="XxfzBGF1H1oKZYPIeFYD-4" value="&lt;div&gt;getpass(&quot;Ne možeš završiti igru&quot;)&lt;/div&gt;&lt;div&gt;&amp;nbsp; &amp;nbsp; &amp;nbsp; &amp;nbsp; &amp;nbsp; &amp;nbsp; &amp;nbsp; &amp;nbsp; &amp;nbsp; &amp;nbsp; continue&lt;/div&gt;" style="shape=note;whiteSpace=wrap;html=1;backgroundOutline=1;darkOpacity=0.05;size=13;" parent="7MPCGlftmwWGxy-j66-Z-1" vertex="1">
          <mxGeometry x="300" y="420" width="210" height="40" as="geometry" />
        </mxCell>
        <mxCell id="XxfzBGF1H1oKZYPIeFYD-5" value="" style="endArrow=none;dashed=1;html=1;" parent="7MPCGlftmwWGxy-j66-Z-1" target="lT4hv9n9i4eMq8wE22r--8" edge="1">
          <mxGeometry width="50" height="50" relative="1" as="geometry">
            <mxPoint x="171" y="505" as="sourcePoint" />
            <mxPoint x="610" y="370" as="targetPoint" />
            <Array as="points">
              <mxPoint x="700" y="505" />
              <mxPoint x="700" y="505" />
            </Array>
          </mxGeometry>
        </mxCell>
        <mxCell id="XxfzBGF1H1oKZYPIeFYD-6" value="elif potezIgraca.lower() == &quot;g&quot;" style="text;html=1;align=center;verticalAlign=middle;resizable=0;points=[];autosize=1;" parent="7MPCGlftmwWGxy-j66-Z-1" vertex="1">
          <mxGeometry x="175" y="510" width="170" height="20" as="geometry" />
        </mxCell>
        <mxCell id="XxfzBGF1H1oKZYPIeFYD-7" value="igrac.izgubljeno += 1" style="html=1;verticalAlign=bottom;startArrow=oval;startFill=1;endArrow=block;startSize=8;" parent="7MPCGlftmwWGxy-j66-Z-1" edge="1">
          <mxGeometry width="60" relative="1" as="geometry">
            <mxPoint x="280" y="540" as="sourcePoint" />
            <mxPoint x="600" y="540" as="targetPoint" />
            <Array as="points">
              <mxPoint x="455" y="540" />
            </Array>
          </mxGeometry>
        </mxCell>
        <mxCell id="XxfzBGF1H1oKZYPIeFYD-8" value="return&amp;nbsp;" style="shape=note;whiteSpace=wrap;html=1;backgroundOutline=1;darkOpacity=0.05;size=15;" parent="7MPCGlftmwWGxy-j66-Z-1" vertex="1">
          <mxGeometry x="395" y="550" width="110" height="20" as="geometry" />
        </mxCell>
        <mxCell id="XxfzBGF1H1oKZYPIeFYD-9" value="elif potezIgraca.lower() == &quot;q&quot;" style="text;html=1;align=center;verticalAlign=middle;resizable=0;points=[];autosize=1;" parent="7MPCGlftmwWGxy-j66-Z-1" vertex="1">
          <mxGeometry x="175" y="584.5" width="170" height="20" as="geometry" />
        </mxCell>
        <mxCell id="XxfzBGF1H1oKZYPIeFYD-10" value="quit" style="shape=note;whiteSpace=wrap;html=1;backgroundOutline=1;darkOpacity=0.05;size=15;" parent="7MPCGlftmwWGxy-j66-Z-1" vertex="1">
          <mxGeometry x="390" y="604.5" width="110" height="20" as="geometry" />
        </mxCell>
        <mxCell id="XxfzBGF1H1oKZYPIeFYD-11" value="" style="endArrow=none;dashed=1;html=1;" parent="7MPCGlftmwWGxy-j66-Z-1" edge="1">
          <mxGeometry width="50" height="50" relative="1" as="geometry">
            <mxPoint x="170" y="580" as="sourcePoint" />
            <mxPoint x="699" y="580" as="targetPoint" />
            <Array as="points">
              <mxPoint x="699" y="580" />
              <mxPoint x="699" y="580" />
            </Array>
          </mxGeometry>
        </mxCell>
        <mxCell id="XxfzBGF1H1oKZYPIeFYD-13" value="potez_moguc = igrac.staviKarte(potezIgraca, karte, igra)" style="html=1;verticalAlign=bottom;startArrow=oval;startFill=1;endArrow=block;startSize=8;" parent="7MPCGlftmwWGxy-j66-Z-1" edge="1">
          <mxGeometry width="60" relative="1" as="geometry">
            <mxPoint x="275" y="670" as="sourcePoint" />
            <mxPoint x="595" y="670" as="targetPoint" />
            <Array as="points">
              <mxPoint x="450" y="670" />
            </Array>
          </mxGeometry>
        </mxCell>
        <mxCell id="XxfzBGF1H1oKZYPIeFYD-14" value="alt" style="shape=umlFrame;whiteSpace=wrap;html=1;" parent="7MPCGlftmwWGxy-j66-Z-1" vertex="1">
          <mxGeometry x="205" y="740" width="450" height="90" as="geometry" />
        </mxCell>
        <mxCell id="XxfzBGF1H1oKZYPIeFYD-15" value="&amp;nbsp;if zadnja_karta is self.karta_u_igri:" style="text;html=1;align=center;verticalAlign=middle;resizable=0;points=[];autosize=1;" parent="7MPCGlftmwWGxy-j66-Z-1" vertex="1">
          <mxGeometry x="310" y="750" width="200" height="20" as="geometry" />
        </mxCell>
        <mxCell id="XxfzBGF1H1oKZYPIeFYD-16" value="return&amp;nbsp;" style="shape=note;whiteSpace=wrap;html=1;backgroundOutline=1;darkOpacity=0.05;size=15;" parent="7MPCGlftmwWGxy-j66-Z-1" vertex="1">
          <mxGeometry x="360" y="780" width="110" height="20" as="geometry" />
        </mxCell>
        <mxCell id="XxfzBGF1H1oKZYPIeFYD-17" value="return&amp;nbsp;" style="shape=note;whiteSpace=wrap;html=1;backgroundOutline=1;darkOpacity=0.05;size=15;" parent="7MPCGlftmwWGxy-j66-Z-1" vertex="1">
          <mxGeometry x="360" y="860" width="110" height="20" as="geometry" />
        </mxCell>
      </root>
    </mxGraphModel>
  </diagram>
  <diagram id="Ysou84DIt4ao27eHNgUk" name="Specijalni potezi">
    <mxGraphModel dx="1102" dy="1783" grid="1" gridSize="10" guides="1" tooltips="1" connect="1" arrows="1" fold="1" page="1" pageScale="1" pageWidth="827" pageHeight="1169" math="0" shadow="0">
      <root>
        <mxCell id="ulcD42sCU8o4hudCynjR-0" />
        <mxCell id="ulcD42sCU8o4hudCynjR-1" parent="ulcD42sCU8o4hudCynjR-0" />
        <mxCell id="bDchHPWpr42vqCl23L5o-2" value="alt" style="shape=umlFrame;whiteSpace=wrap;html=1;" parent="ulcD42sCU8o4hudCynjR-1" vertex="1">
          <mxGeometry x="170" y="-70" width="500" height="210" as="geometry" />
        </mxCell>
        <mxCell id="bDchHPWpr42vqCl23L5o-3" value="loop" style="shape=umlFrame;whiteSpace=wrap;html=1;" parent="ulcD42sCU8o4hudCynjR-1" vertex="1">
          <mxGeometry x="170" y="20" width="480" height="110" as="geometry" />
        </mxCell>
        <mxCell id="bDchHPWpr42vqCl23L5o-0" value="" style="shape=umlFrame;whiteSpace=wrap;html=1;" parent="ulcD42sCU8o4hudCynjR-1" vertex="1">
          <mxGeometry x="160" y="-130" width="600" height="320" as="geometry" />
        </mxCell>
        <mxCell id="pmX6kx45xB3x9Ynyj8Ty-0" value="igrac:Igrac" style="shape=umlLifeline;perimeter=lifelinePerimeter;whiteSpace=wrap;html=1;container=1;collapsible=0;recursiveResize=0;outlineConnect=0;" parent="ulcD42sCU8o4hudCynjR-1" vertex="1">
          <mxGeometry x="550" y="-200" width="100" height="1280" as="geometry" />
        </mxCell>
        <mxCell id="pmX6kx45xB3x9Ynyj8Ty-1" value="" style="html=1;points=[];perimeter=orthogonalPerimeter;" parent="pmX6kx45xB3x9Ynyj8Ty-0" vertex="1">
          <mxGeometry x="45" y="70" width="10" height="1090" as="geometry" />
        </mxCell>
        <mxCell id="pmX6kx45xB3x9Ynyj8Ty-6" value="&lt;span style=&quot;color: rgb(0, 0, 0); font-family: helvetica; font-size: 11px; font-style: normal; font-weight: 400; letter-spacing: normal; text-align: center; text-indent: 0px; text-transform: none; word-spacing: 0px; background-color: rgb(255, 255, 255); display: inline; float: none;&quot;&gt;kontra = igra.specijalniPotezi(igrac, zadnja_karta, kontra)&lt;/span&gt;" style="text;whiteSpace=wrap;html=1;" parent="ulcD42sCU8o4hudCynjR-1" vertex="1">
          <mxGeometry x="260" y="-110" width="300" height="30" as="geometry" />
        </mxCell>
        <mxCell id="bDchHPWpr42vqCl23L5o-1" value="dispatch" style="html=1;verticalAlign=bottom;startArrow=oval;startFill=1;endArrow=block;startSize=8;" parent="ulcD42sCU8o4hudCynjR-1" source="pmX6kx45xB3x9Ynyj8Ty-4" edge="1">
          <mxGeometry width="60" relative="1" as="geometry">
            <mxPoint x="380" y="-110" as="sourcePoint" />
            <mxPoint x="604" y="-86" as="targetPoint" />
            <Array as="points">
              <mxPoint x="520" y="-86" />
            </Array>
          </mxGeometry>
        </mxCell>
        <mxCell id="pmX6kx45xB3x9Ynyj8Ty-2" value="igra:Igrac" style="shape=umlLifeline;perimeter=lifelinePerimeter;whiteSpace=wrap;html=1;container=1;collapsible=0;recursiveResize=0;outlineConnect=0;" parent="ulcD42sCU8o4hudCynjR-1" vertex="1">
          <mxGeometry x="180" y="-200" width="100" height="1280" as="geometry" />
        </mxCell>
        <mxCell id="pmX6kx45xB3x9Ynyj8Ty-4" value="" style="html=1;points=[];perimeter=orthogonalPerimeter;" parent="pmX6kx45xB3x9Ynyj8Ty-2" vertex="1">
          <mxGeometry x="45" y="115" width="10" height="40" as="geometry" />
        </mxCell>
        <mxCell id="pmX6kx45xB3x9Ynyj8Ty-5" value="&lt;span style=&quot;color: rgba(0 , 0 , 0 , 0) ; font-family: monospace ; font-size: 0px ; background-color: rgb(248 , 249 , 250)&quot;&gt;%3CmxGraphModel%3E%3Croot%3E%3CmxCell%20id%3D%220%22%2F%3E%3CmxCell%20id%3D%221%22%20parent%3D%220%22%2F%3E%3CmxCell%20id%3D%222%22%20value%3D%22%26lt%3Bspan%20style%3D%26quot%3Bcolor%3A%20rgb(0%2C%200%2C%200)%3B%20font-family%3A%20helvetica%3B%20font-size%3A%2011px%3B%20font-style%3A%20normal%3B%20font-weight%3A%20400%3B%20letter-spacing%3A%20normal%3B%20text-align%3A%20center%3B%20text-indent%3A%200px%3B%20text-transform%3A%20none%3B%20word-spacing%3A%200px%3B%20background-color%3A%20rgb(255%2C%20255%2C%20255)%3B%20display%3A%20inline%3B%20float%3A%20none%3B%26quot%3B%26gt%3Bkontra%20%3D%20igra.specijalniPotezi(igrac%2C%20zadnja_karta%2C%20kontra)%26lt%3B%2Fspan%26gt%3B%22%20style%3D%22text%3BwhiteSpace%3Dwrap%3Bhtml%3D1%3B%22%20vertex%3D%221%22%20parent%3D%221%22%3E%3CmxGeometry%20x%3D%22260%22%20y%3D%22-90%22%20width%3D%22300%22%20height%3D%2230%22%20as%3D%22geometry%22%2F%3E%3C%2FmxCell%3E%3C%2Froot%3E%3C%2FmxGraphModel%3E&lt;/span&gt;&lt;span style=&quot;color: rgba(0 , 0 , 0 , 0) ; font-family: monospace ; font-size: 0px ; background-color: rgb(248 , 249 , 250)&quot;&gt;%3CmxGraphModel%3E%3Croot%3E%3CmxCell%20id%3D%220%22%2F%3E%3CmxCell%20id%3D%221%22%20parent%3D%220%22%2F%3E%3CmxCell%20id%3D%222%22%20value%3D%22%26lt%3Bspan%20style%3D%26quot%3Bcolor%3A%20rgb(0%2C%200%2C%200)%3B%20font-family%3A%20helvetica%3B%20font-size%3A%2011px%3B%20font-style%3A%20normal%3B%20font-weight%3A%20400%3B%20letter-spacing%3A%20normal%3B%20text-align%3A%20center%3B%20text-indent%3A%200px%3B%20text-transform%3A%20none%3B%20word-spacing%3A%200px%3B%20background-color%3A%20rgb(255%2C%20255%2C%20255)%3B%20display%3A%20inline%3B%20float%3A%20none%3B%26quot%3B%26gt%3Bkontra%20%3D%20igra.specijalniPotezi(igrac%2C%20zadnja_karta%2C%20kontra)%26lt%3B%2Fspan%26gt%3B%22%20style%3D%22text%3BwhiteSpace%3Dwrap%3Bhtml%3D1%3B%22%20vertex%3D%221%22%20parent%3D%221%22%3E%3CmxGeometry%20x%3D%22260%22%20y%3D%22-90%22%20width%3D%22300%22%20height%3D%2230%22%20as%3D%22geometry%22%2F%3E%3C%2FmxCell%3E%3C%2Froot%3E%3C%2FmxGraphModel%3E&lt;/span&gt;" style="edgeStyle=orthogonalEdgeStyle;html=1;align=left;spacingLeft=2;endArrow=block;rounded=0;entryX=1;entryY=0;" parent="pmX6kx45xB3x9Ynyj8Ty-2" target="pmX6kx45xB3x9Ynyj8Ty-4" edge="1">
          <mxGeometry relative="1" as="geometry">
            <mxPoint x="50" y="95" as="sourcePoint" />
            <Array as="points">
              <mxPoint x="75" y="95" />
            </Array>
          </mxGeometry>
        </mxCell>
        <mxCell id="pmX6kx45xB3x9Ynyj8Ty-3" value="" style="html=1;points=[];perimeter=orthogonalPerimeter;" parent="pmX6kx45xB3x9Ynyj8Ty-2" vertex="1">
          <mxGeometry x="45" y="70" width="10" height="1090" as="geometry" />
        </mxCell>
        <mxCell id="Jpii4DcqEd2UwU6sZbrG-1" value="karte:Karte" style="shape=umlLifeline;perimeter=lifelinePerimeter;whiteSpace=wrap;html=1;container=1;collapsible=0;recursiveResize=0;outlineConnect=0;" parent="ulcD42sCU8o4hudCynjR-1" vertex="1">
          <mxGeometry x="827" y="-200" width="100" height="1280" as="geometry" />
        </mxCell>
        <mxCell id="Jpii4DcqEd2UwU6sZbrG-2" value="" style="html=1;points=[];perimeter=orthogonalPerimeter;" parent="Jpii4DcqEd2UwU6sZbrG-1" vertex="1">
          <mxGeometry x="45" y="70" width="10" height="1090" as="geometry" />
        </mxCell>
        <mxCell id="Jpii4DcqEd2UwU6sZbrG-3" value="&lt;span style=&quot;color: rgba(0 , 0 , 0 , 0) ; font-family: monospace ; font-size: 0px ; background-color: rgb(248 , 249 , 250)&quot;&gt;%3CmxGraphModel%3E%3Croot%3E%3CmxCell%20id%3D%220%22%2F%3E%3CmxCell%20id%3D%221%22%20parent%3D%220%22%2F%3E%3CmxCell%20id%3D%222%22%20value%3D%22zadnja_karta.akcija(cilj%2C%20karte)%22%20style%3D%22text%3Bhtml%3D1%3Balign%3Dcenter%3BverticalAlign%3Dmiddle%3Bresizable%3D0%3Bpoints%3D%5B%5D%3Bautosize%3D1%3B%22%20vertex%3D%221%22%20parent%3D%221%22%3E%3CmxGeometry%20x%3D%22290%22%20y%3D%2260%22%20width%3D%22170%22%20height%3D%2220%22%20as%3D%22geometry%22%2F%3E%3C%2FmxCell%3E%3C%2Froot%3E%3C%2FmxGraphModel%3E&lt;/span&gt;&lt;span style=&quot;color: rgba(0 , 0 , 0 , 0) ; font-family: monospace ; font-size: 0px ; background-color: rgb(248 , 249 , 250)&quot;&gt;%3CmxGraphModel%3E%3Croot%3E%3CmxCell%20id%3D%220%22%2F%3E%3CmxCell%20id%3D%221%22%20parent%3D%220%22%2F%3E%3CmxCell%20id%3D%222%22%20value%3D%22zadnja_karta.akcija(cilj%2C%20karte)%22%20style%3D%22text%3Bhtml%3D1%3Balign%3Dcenter%3BverticalAlign%3Dmiddle%3Bresizable%3D0%3Bpoints%3D%5B%5D%3Bautosize%3D1%3B%22%20vertex%3D%221%22%20parent%3D%221%22%3E%3CmxGeometry%20x%3D%22290%22%20y%3D%2260%22%20width%3D%22170%22%20height%3D%2220%22%20as%3D%22geometry%22%2F%3E%3C%2FmxCell%3E%3C%2Froot%3E%3C%2FmxGraphModel%3E&lt;/span&gt;" style="html=1;verticalAlign=bottom;startArrow=oval;startFill=1;endArrow=block;startSize=8;entryX=1;entryY=0.173;entryDx=0;entryDy=0;entryPerimeter=0;" parent="ulcD42sCU8o4hudCynjR-1" source="pmX6kx45xB3x9Ynyj8Ty-3" target="Jpii4DcqEd2UwU6sZbrG-2" edge="1">
          <mxGeometry width="60" relative="1" as="geometry">
            <mxPoint x="490" y="40" as="sourcePoint" />
            <mxPoint x="550" y="40" as="targetPoint" />
            <Array as="points">
              <mxPoint x="340" y="60" />
            </Array>
          </mxGeometry>
        </mxCell>
        <mxCell id="Jpii4DcqEd2UwU6sZbrG-4" value="&lt;span style=&quot;font-size: 12px ; background-color: rgb(248 , 249 , 250)&quot;&gt;zadnja_karta.akcija(cilj, karte)&lt;/span&gt;" style="edgeLabel;html=1;align=center;verticalAlign=middle;resizable=0;points=[];" parent="Jpii4DcqEd2UwU6sZbrG-3" vertex="1" connectable="0">
          <mxGeometry x="-0.1495" y="1" relative="1" as="geometry">
            <mxPoint as="offset" />
          </mxGeometry>
        </mxCell>
        <mxCell id="Jpii4DcqEd2UwU6sZbrG-5" value="for i in range(kontra)" style="text;html=1;align=center;verticalAlign=middle;resizable=0;points=[];autosize=1;" parent="ulcD42sCU8o4hudCynjR-1" vertex="1">
          <mxGeometry x="270" y="25" width="120" height="20" as="geometry" />
        </mxCell>
        <mxCell id="GAGALGo6Uu971Nyk2-mb-0" value="return kontra" style="shape=note;whiteSpace=wrap;html=1;backgroundOutline=1;darkOpacity=0.05;size=15;" parent="ulcD42sCU8o4hudCynjR-1" vertex="1">
          <mxGeometry x="365" y="160" width="110" height="20" as="geometry" />
        </mxCell>
        <mxCell id="GAGALGo6Uu971Nyk2-mb-1" value="" style="html=1;verticalAlign=bottom;startArrow=circle;startFill=1;endArrow=open;startSize=6;endSize=8;exitX=0;exitY=0.5;exitDx=0;exitDy=0;exitPerimeter=0;" parent="ulcD42sCU8o4hudCynjR-1" source="GAGALGo6Uu971Nyk2-mb-0" target="pmX6kx45xB3x9Ynyj8Ty-3" edge="1">
          <mxGeometry width="80" relative="1" as="geometry">
            <mxPoint x="320" y="60" as="sourcePoint" />
            <mxPoint x="400" y="60" as="targetPoint" />
          </mxGeometry>
        </mxCell>
      </root>
    </mxGraphModel>
  </diagram>
  <diagram id="qTzWk6K1aawuDBCmmLu5" name="potezRobota">
    <mxGraphModel dx="1102" dy="614" grid="1" gridSize="10" guides="1" tooltips="1" connect="1" arrows="1" fold="1" page="1" pageScale="1" pageWidth="827" pageHeight="1169" math="0" shadow="0">
      <root>
        <mxCell id="-wiCkn51dZCrDzY47v_M-0" />
        <mxCell id="-wiCkn51dZCrDzY47v_M-1" parent="-wiCkn51dZCrDzY47v_M-0" />
        <mxCell id="-wiCkn51dZCrDzY47v_M-11" value="" style="shape=umlFrame;whiteSpace=wrap;html=1;" parent="-wiCkn51dZCrDzY47v_M-1" vertex="1">
          <mxGeometry x="660" y="1205" width="870" height="700" as="geometry" />
        </mxCell>
        <mxCell id="DhbUU02yTxuHfQU2IbBv-5" value="loop" style="shape=umlFrame;whiteSpace=wrap;html=1;" parent="-wiCkn51dZCrDzY47v_M-1" vertex="1">
          <mxGeometry x="740" y="1340" width="720" height="370" as="geometry" />
        </mxCell>
        <mxCell id="DhbUU02yTxuHfQU2IbBv-7" value="loop" style="shape=umlFrame;whiteSpace=wrap;html=1;" parent="-wiCkn51dZCrDzY47v_M-1" vertex="1">
          <mxGeometry x="770" y="1415" width="460" height="165" as="geometry" />
        </mxCell>
        <mxCell id="-wiCkn51dZCrDzY47v_M-5" value="igra:Igra" style="shape=umlLifeline;perimeter=lifelinePerimeter;whiteSpace=wrap;html=1;container=1;collapsible=0;recursiveResize=0;outlineConnect=0;" parent="-wiCkn51dZCrDzY47v_M-1" vertex="1">
          <mxGeometry x="820" y="1050" width="100" height="1010" as="geometry" />
        </mxCell>
        <mxCell id="-wiCkn51dZCrDzY47v_M-6" value="" style="html=1;points=[];perimeter=orthogonalPerimeter;" parent="-wiCkn51dZCrDzY47v_M-5" vertex="1">
          <mxGeometry x="45" y="120" width="10" height="890" as="geometry" />
        </mxCell>
        <mxCell id="DhbUU02yTxuHfQU2IbBv-9" value="" style="html=1;points=[];perimeter=orthogonalPerimeter;" parent="-wiCkn51dZCrDzY47v_M-5" vertex="1">
          <mxGeometry x="45" y="437.5" width="10" height="40" as="geometry" />
        </mxCell>
        <mxCell id="DhbUU02yTxuHfQU2IbBv-10" value="potez = self.staviKarte()" style="edgeStyle=orthogonalEdgeStyle;html=1;align=left;spacingLeft=2;endArrow=block;rounded=0;entryX=1;entryY=0;" parent="-wiCkn51dZCrDzY47v_M-5" target="DhbUU02yTxuHfQU2IbBv-9" edge="1">
          <mxGeometry relative="1" as="geometry">
            <mxPoint x="50" y="417.5" as="sourcePoint" />
            <Array as="points">
              <mxPoint x="75" y="417.5" />
            </Array>
          </mxGeometry>
        </mxCell>
        <mxCell id="-wiCkn51dZCrDzY47v_M-2" value=".1:robot_igra = robot.potezRobota(igra, karte)" style="html=1;verticalAlign=bottom;startArrow=oval;startFill=1;endArrow=block;startSize=8;" parent="-wiCkn51dZCrDzY47v_M-1" target="-wiCkn51dZCrDzY47v_M-4" edge="1">
          <mxGeometry x="-0.0244" y="10" width="60" relative="1" as="geometry">
            <mxPoint x="870" y="1270" as="sourcePoint" />
            <mxPoint x="1500" y="1270" as="targetPoint" />
            <Array as="points" />
            <mxPoint as="offset" />
          </mxGeometry>
        </mxCell>
        <mxCell id="-wiCkn51dZCrDzY47v_M-3" value="robot:Robot" style="shape=umlLifeline;perimeter=lifelinePerimeter;whiteSpace=wrap;html=1;container=1;collapsible=0;recursiveResize=0;outlineConnect=0;" parent="-wiCkn51dZCrDzY47v_M-1" vertex="1">
          <mxGeometry x="1141" y="1060" width="100" height="1010" as="geometry" />
        </mxCell>
        <mxCell id="-wiCkn51dZCrDzY47v_M-4" value="" style="html=1;points=[];perimeter=orthogonalPerimeter;" parent="-wiCkn51dZCrDzY47v_M-3" vertex="1">
          <mxGeometry x="45" y="115" width="10" height="895" as="geometry" />
        </mxCell>
        <mxCell id="-wiCkn51dZCrDzY47v_M-7" value="karte:Karte" style="shape=umlLifeline;perimeter=lifelinePerimeter;whiteSpace=wrap;html=1;container=1;collapsible=0;recursiveResize=0;outlineConnect=0;" parent="-wiCkn51dZCrDzY47v_M-1" vertex="1">
          <mxGeometry x="1420" y="1060" width="100" height="1540" as="geometry" />
        </mxCell>
        <mxCell id="-wiCkn51dZCrDzY47v_M-8" value="" style="html=1;points=[];perimeter=orthogonalPerimeter;" parent="-wiCkn51dZCrDzY47v_M-7" vertex="1">
          <mxGeometry x="45" y="115" width="10" height="1425" as="geometry" />
        </mxCell>
        <mxCell id="8JYCVQM5KXcohrJ-dHsE-0" value="1.1zadnja_karta=igra.karta_u_igri" style="html=1;verticalAlign=bottom;startArrow=oval;startFill=1;endArrow=block;startSize=8;" parent="-wiCkn51dZCrDzY47v_M-1" source="-wiCkn51dZCrDzY47v_M-6" target="-wiCkn51dZCrDzY47v_M-8" edge="1">
          <mxGeometry x="-0.1356" y="-20" width="60" relative="1" as="geometry">
            <mxPoint x="930" y="1300" as="sourcePoint" />
            <mxPoint x="990" y="1300" as="targetPoint" />
            <Array as="points">
              <mxPoint x="1340" y="1280" />
            </Array>
            <mxPoint as="offset" />
          </mxGeometry>
        </mxCell>
        <mxCell id="DhbUU02yTxuHfQU2IbBv-1" value="potez=False" style="shape=note;whiteSpace=wrap;html=1;backgroundOutline=1;darkOpacity=0.05;size=15;" parent="-wiCkn51dZCrDzY47v_M-1" vertex="1">
          <mxGeometry x="960" y="1300" width="110" height="20" as="geometry" />
        </mxCell>
        <mxCell id="DhbUU02yTxuHfQU2IbBv-4" value="1.2" style="text;html=1;align=center;verticalAlign=middle;resizable=0;points=[];autosize=1;" parent="-wiCkn51dZCrDzY47v_M-1" vertex="1">
          <mxGeometry x="930" y="1300" width="30" height="20" as="geometry" />
        </mxCell>
        <mxCell id="DhbUU02yTxuHfQU2IbBv-6" value="while not potez" style="text;html=1;align=center;verticalAlign=middle;resizable=0;points=[];autosize=1;" parent="-wiCkn51dZCrDzY47v_M-1" vertex="1">
          <mxGeometry x="760" y="1395" width="100" height="20" as="geometry" />
        </mxCell>
        <mxCell id="DhbUU02yTxuHfQU2IbBv-8" value="for i in self.ruka" style="text;html=1;align=center;verticalAlign=middle;resizable=0;points=[];autosize=1;" parent="-wiCkn51dZCrDzY47v_M-1" vertex="1">
          <mxGeometry x="760" y="1450" width="100" height="20" as="geometry" />
        </mxCell>
        <mxCell id="DhbUU02yTxuHfQU2IbBv-11" value="alt" style="shape=umlFrame;whiteSpace=wrap;html=1;" parent="-wiCkn51dZCrDzY47v_M-1" vertex="1">
          <mxGeometry x="790" y="1490" width="340" height="80" as="geometry" />
        </mxCell>
        <mxCell id="DhbUU02yTxuHfQU2IbBv-12" value="if potez" style="text;html=1;align=center;verticalAlign=middle;resizable=0;points=[];autosize=1;" parent="-wiCkn51dZCrDzY47v_M-1" vertex="1">
          <mxGeometry x="790" y="1530" width="50" height="20" as="geometry" />
        </mxCell>
        <mxCell id="DhbUU02yTxuHfQU2IbBv-13" value="break" style="shape=note;whiteSpace=wrap;html=1;backgroundOutline=1;darkOpacity=0.05;size=15;" parent="-wiCkn51dZCrDzY47v_M-1" vertex="1">
          <mxGeometry x="895" y="1530" width="110" height="20" as="geometry" />
        </mxCell>
        <mxCell id="DhbUU02yTxuHfQU2IbBv-14" value="1.3" style="text;html=1;align=center;verticalAlign=middle;resizable=0;points=[];autosize=1;" parent="-wiCkn51dZCrDzY47v_M-1" vertex="1">
          <mxGeometry x="710" y="1350" width="30" height="20" as="geometry" />
        </mxCell>
        <mxCell id="DhbUU02yTxuHfQU2IbBv-15" value="1.4" style="text;html=1;align=center;verticalAlign=middle;resizable=0;points=[];autosize=1;" parent="-wiCkn51dZCrDzY47v_M-1" vertex="1">
          <mxGeometry x="740" y="1420" width="30" height="20" as="geometry" />
        </mxCell>
        <mxCell id="DhbUU02yTxuHfQU2IbBv-16" value="1.5" style="text;html=1;align=center;verticalAlign=middle;resizable=0;points=[];autosize=1;" parent="-wiCkn51dZCrDzY47v_M-1" vertex="1">
          <mxGeometry x="760" y="1500" width="30" height="20" as="geometry" />
        </mxCell>
        <mxCell id="DhbUU02yTxuHfQU2IbBv-17" value="alt" style="shape=umlFrame;whiteSpace=wrap;html=1;" parent="-wiCkn51dZCrDzY47v_M-1" vertex="1">
          <mxGeometry x="775" y="1600" width="615" height="90" as="geometry" />
        </mxCell>
        <mxCell id="DhbUU02yTxuHfQU2IbBv-18" value="1.6" style="text;html=1;align=center;verticalAlign=middle;resizable=0;points=[];autosize=1;" parent="-wiCkn51dZCrDzY47v_M-1" vertex="1">
          <mxGeometry x="745" y="1610" width="30" height="20" as="geometry" />
        </mxCell>
        <mxCell id="DhbUU02yTxuHfQU2IbBv-20" value="&lt;div&gt;if not potez:&lt;/div&gt;&lt;div&gt;&amp;nbsp; &amp;nbsp; &amp;nbsp; &amp;nbsp; &amp;nbsp; &amp;nbsp; &amp;nbsp; &amp;nbsp;&amp;nbsp;&lt;/div&gt;" style="text;html=1;align=center;verticalAlign=middle;resizable=0;points=[];autosize=1;" parent="-wiCkn51dZCrDzY47v_M-1" vertex="1">
          <mxGeometry x="775" y="1630" width="80" height="30" as="geometry" />
        </mxCell>
        <mxCell id="DhbUU02yTxuHfQU2IbBv-22" value="" style="html=1;points=[];perimeter=orthogonalPerimeter;" parent="-wiCkn51dZCrDzY47v_M-1" vertex="1">
          <mxGeometry x="865" y="1650" width="10" height="20" as="geometry" />
        </mxCell>
        <mxCell id="DhbUU02yTxuHfQU2IbBv-23" value="1.6.1self.makniKartu(karte)" style="edgeStyle=orthogonalEdgeStyle;html=1;align=left;spacingLeft=2;endArrow=block;rounded=0;entryX=1;entryY=0;" parent="-wiCkn51dZCrDzY47v_M-1" target="DhbUU02yTxuHfQU2IbBv-22" edge="1">
          <mxGeometry relative="1" as="geometry">
            <mxPoint x="870" y="1630" as="sourcePoint" />
            <Array as="points">
              <mxPoint x="895" y="1630" />
            </Array>
          </mxGeometry>
        </mxCell>
        <mxCell id="DhbUU02yTxuHfQU2IbBv-24" value="1.6.1(salju se karte u makniKartu)" style="html=1;verticalAlign=bottom;startArrow=oval;startFill=1;endArrow=block;startSize=8;exitX=1.008;exitY=0.784;exitDx=0;exitDy=0;exitPerimeter=0;" parent="-wiCkn51dZCrDzY47v_M-1" source="DhbUU02yTxuHfQU2IbBv-5" edge="1">
          <mxGeometry width="60" relative="1" as="geometry">
            <mxPoint x="1190" y="1630" as="sourcePoint" />
            <mxPoint x="1030" y="1640" as="targetPoint" />
          </mxGeometry>
        </mxCell>
        <mxCell id="DhbUU02yTxuHfQU2IbBv-25" value="alt" style="shape=umlFrame;whiteSpace=wrap;html=1;" parent="-wiCkn51dZCrDzY47v_M-1" vertex="1">
          <mxGeometry x="775" y="1754" width="725" height="106" as="geometry" />
        </mxCell>
        <mxCell id="DhbUU02yTxuHfQU2IbBv-26" value="1.7" style="text;html=1;align=center;verticalAlign=middle;resizable=0;points=[];autosize=1;" parent="-wiCkn51dZCrDzY47v_M-1" vertex="1">
          <mxGeometry x="740" y="1760" width="30" height="20" as="geometry" />
        </mxCell>
        <mxCell id="DhbUU02yTxuHfQU2IbBv-27" value="if zadnja_karta is igra.karta_u_igri:" style="text;html=1;align=center;verticalAlign=middle;resizable=0;points=[];autosize=1;" parent="-wiCkn51dZCrDzY47v_M-1" vertex="1">
          <mxGeometry x="890" y="1770" width="200" height="20" as="geometry" />
        </mxCell>
        <mxCell id="DhbUU02yTxuHfQU2IbBv-28" value="return&lt;span style=&quot;color: rgba(0 , 0 , 0 , 0) ; font-family: monospace ; font-size: 0px&quot;&gt;%3CmxGraphModel%3E%3Croot%3E%3CmxCell%20id%3D%220%22%2F%3E%3CmxCell%20id%3D%221%22%20parent%3D%220%22%2F%3E%3CmxCell%20id%3D%222%22%20value%3D%22break%22%20style%3D%22shape%3Dnote%3BwhiteSpace%3Dwrap%3Bhtml%3D1%3BbackgroundOutline%3D1%3BdarkOpacity%3D0.05%3Bsize%3D15%3B%22%20vertex%3D%221%22%20parent%3D%221%22%3E%3CmxGeometry%20x%3D%22895%22%20y%3D%221530%22%20width%3D%22110%22%20height%3D%2220%22%20as%3D%22geometry%22%2F%3E%3C%2FmxCell%3E%3C%2Froot%3E%3C%2FmxGraphModel%3E&lt;/span&gt;" style="shape=note;whiteSpace=wrap;html=1;backgroundOutline=1;darkOpacity=0.05;size=15;" parent="-wiCkn51dZCrDzY47v_M-1" vertex="1">
          <mxGeometry x="960" y="1820" width="110" height="20" as="geometry" />
        </mxCell>
        <mxCell id="DhbUU02yTxuHfQU2IbBv-29" value="return&lt;span style=&quot;color: rgba(0 , 0 , 0 , 0) ; font-family: monospace ; font-size: 0px&quot;&gt;%3CmxGraphModel%3E%3Croot%3E%3CmxCell%20id%3D%220%22%2F%3E%3CmxCell%20id%3D%221%22%20parent%3D%220%22%2F%3E%3CmxCell%20id%3D%222%22%20value%3D%22break%22%20style%3D%22shape%3Dnote%3BwhiteSpace%3Dwrap%3Bhtml%3D1%3BbackgroundOutline%3D1%3BdarkOpacity%3D0.05%3Bsize%3D15%3B%22%20vertex%3D%221%22%20parent%3D%221%22%3E%3CmxGeometry%20x%3D%22895%22%20y%3D%221530%22%20width%3D%22110%22%20height%3D%2220%22%20as%3D%22geometry%22%2F%3E%3C%2FmxCell%3E%3C%2Froot%3E%3C%2FmxGraphModel%3E&lt;/span&gt;" style="shape=note;whiteSpace=wrap;html=1;backgroundOutline=1;darkOpacity=0.05;size=15;" parent="-wiCkn51dZCrDzY47v_M-1" vertex="1">
          <mxGeometry x="960" y="1870" width="110" height="20" as="geometry" />
        </mxCell>
        <mxCell id="DhbUU02yTxuHfQU2IbBv-30" value="robotigra=robot.potezRobota()" style="html=1;verticalAlign=bottom;endArrow=open;dashed=1;endSize=8;" parent="-wiCkn51dZCrDzY47v_M-1" source="DhbUU02yTxuHfQU2IbBv-29" target="-wiCkn51dZCrDzY47v_M-5" edge="1">
          <mxGeometry relative="1" as="geometry">
            <mxPoint x="870" y="1730" as="sourcePoint" />
            <mxPoint x="790" y="1730" as="targetPoint" />
            <Array as="points">
              <mxPoint x="1015" y="1990" />
            </Array>
          </mxGeometry>
        </mxCell>
      </root>
    </mxGraphModel>
  </diagram>
</mxfile>
